{
.appVersion = "3150";
.formatVersion = 3;
axes = (
{
name = Weight;
tag = wght;
}
);
classes = (
{
automatic = 1;

glyphs = (
{
glyphname = A;
layers = (
{
anchors = (
{
name = bottom;
pos = (256,0);
},
{
name = ogonek;
pos = (450,0);
},
{
name = top;
pos = (372,730);
}
);
layerId = "EDF5EB54-295C-4C90-9A2F-67CD82979CFF";
shapes = (
{
closed = 1;
nodes = (
(76,0,l),
(165,210,l),
(415,210,l),
(438,0,l),
(488,0,l),
(403,730,l),
(341,730,l),
(24,0,l)
);
},
{
closed = 1;
nodes = (
(311,550,ls),
(342,622,o),
(362,673,o),
(367,688,c),
(368,673,o),
(370,622,o),
(378,550,cs),
(410,255,l),
(184,255,l)
);
}
);
width = 600;
},
{
anchors = (
{
name = bottom;
pos = (256,0);
},
{
name = ogonek;
pos = (430,0);
},
{
name = top;
pos = (372,730);
}
);
layerId = "9ADF6715-3D0F-493D-8567-18A6FBCFC567";
shapes = (
{
closed = 1;
nodes = (
(138,0,l),
(199,165,l),
(373,165,l),
(382,0,l),
(531,0,l),
(466,730,l),
(276,730,l),
(-19,0,l)
);
},
{
closed = 1;
nodes = (
(308,462,ls),
(326,512,o),
(343,567,o),
(352,595,c),
(353,567,o),
(357,512,o),
(359,461,cs),
(366,285,l),
(243,285,l)
);
}
);
width = 600;
},
{
anchors = (
{
name = bottom;
pos = (256,0);
},
{
name = ogonek;
pos = (455,0);
},
{
name = top;
pos = (372,730);
}
);
layerId = "CCC0BD40-BA8C-414E-B576-CF0B94E6C996";
shapes = (
{
closed = 1;
nodes = (
(101,0,l),
(180,194,l),
(401,194,l),
(418,0,l),
(506,0,l),
(433,730,l),
(312,730,l),
(6,0,l)
);
},
{
closed = 1;
nodes = (
(302,496,ls),
(336,580,o),
(357,640,o),
(363,658,c),
(363,640,o),
(365,580,o),
(373,495,cs),
(394,270,l),
(210,270,l)
);
}
);
width = 600;
}
);
unicode = 65;
},
{
glyphname = Aogonek;
layers = (
{
layerId = "EDF5EB54-295C-4C90-9A2F-67CD82979CFF";
shapes = (
{
closed = 1;
nodes = (
(497,-195,l),
(504,-153,l),
(440,-153,ls),
(408,-153,o),
(392,-134,o),
(397,-103,cs),
(401,-75,o),
(430,-36,o),
(474,0,cs),
(487,10,l),
(450,10,l),
(393,-27,o),
(354,-74,o),
(348,-115,cs),
(340,-165,o),
(369,-195,o),
(424,-195,c)
);
},
{
ref = A;
}
);
width = 600;
},
{
layerId = "CCC0BD40-BA8C-414E-B576-CF0B94E6C996";
shapes = (
{
closed = 1;
nodes = (
(509,-203,l),
(518,-143,l),
(458,-143,ls),
(424,-143,o),
(407,-122,o),
(411,-93,cs),
(416,-65,o),
(439,-36,o),
(490,1,c),
(503,10,l),
(428,10,l),
(358,-34,o),
(330,-72,o),
(324,-110,cs),
(315,-164,o),
(357,-203,o),
(431,-203,cs)
);
},
{
ref = A;
}
);
width = 600;
},
{
layerId = "9ADF6715-3D0F-493D-8567-18A6FBCFC567";
shapes = (
{
closed = 1;
nodes = (
(492,-225,l),
(509,-120,l),
(440,-120,ls),
(411,-120,o),
(397,-103,o),
(400,-83,cs),
(403,-66,o),
(421,-42,o),
(451,-18,cs),
(488,11,l),
(402,11,l),
(329,-19,o),
(278,-68,o),
(271,-115,cs),
(260,-180,o),
(303,-225,o),
(384,-225,cs)
);
},
{
ref = A;
}
);
width = 600;
}
);
unicode = 260;
},
{
glyphname = AE;
layers = (
{
anchors = (
{
name = bottom;
pos = (256,0);
},
{
name = top;
pos = (372,730);
}
);
layerId = "9ADF6715-3D0F-493D-8567-18A6FBCFC567";
shapes = (
{
closed = 1;
nodes = (
(99,0,l),
(151,165,l),
(273,165,l),
(247,0,l),
(536,0,l),
(556,126,l),
(392,126,l),
(420,305,l),
(559,305,l),
(580,436,l),
(441,436,l),
(468,605,l),
(632,605,l),
(652,730,l),
(209,730,l),
(-44,0,l)
);
},
{
closed = 1;
nodes = (
(294,605,l),
(343,605,l),
(290,270,l),
(185,270,l)
);
}
);
width = 600;
},
{
anchors = (
{
name = bottom;
pos = (256,0);
},
{
name = top;
pos = (372,730);
}
);
layerId = "CCC0BD40-BA8C-414E-B576-CF0B94E6C996";
shapes = (
{
closed = 1;
nodes = (
(77,0,l),
(149,203,l),
(290,203,l),
(258,0,l),
(526,0,l),
(539,82,l),
(357,82,l),
(398,338,l),
(555,338,l),
(568,420,l),
(411,420,l),
(447,648,l),
(629,648,l),
(642,730,l),
(247,730,l),
(-14,0,l)
);
},
{
closed = 1;
nodes = (
(305,648,l),
(361,648,l),
(302,278,l),
(175,278,l)
);
}
);
width = 600;
},
{
anchors = (
{
name = bottom;
pos = (256,0);
},
{
name = top;
pos = (372,730);
}
);
layerId = "EDF5EB54-295C-4C90-9A2F-67CD82979CFF";
shapes = (
{
closed = 1;
nodes = (
(40,0,l),
(130,215,l),
(300,215,l),
(266,0,l),
(525,0,l),
(532,45,l),
(323,45,l),
(373,357,l),
(546,357,l),
(553,402,l),
(380,402,l),
(424,685,l),
(633,685,l),
(641,730,l),
(294,730,l),
(-10,0,l)
);
},
{
closed = 1;
nodes = (
(323,685,l),
(374,685,l),
(307,260,l),
(150,260,l)
);
}
);
width = 600;
}
);
unicode = 198;
},
{
glyphname = B;
layers = (
{
anchors = (
{
name = bottom;
pos = (256,0);
},
{
name = top;
pos = (372,730);
}
);
layerId = "9ADF6715-3D0F-493D-8567-18A6FBCFC567";
shapes = (
{
closed = 1;
nodes = (
(266,0,ls),
(425,0,o),
(529,77,o),
(550,211,cs),
(565,304,o),
(520,378,o),
(439,387,c),
(440,389,l),
(513,399,o),
(573,459,o),
(586,542,cs),
(603,651,o),
(515,730,o),
(373,730,cs),
(138,730,l),
(22,0,l)
);
},
{
closed = 1;
nodes = (
(217,318,l),
(311,318,ls),
(376,318,o),
(410,280,o),
(401,219,cs),
(391,158,o),
(345,121,o),
(280,121,cs),
(186,121,l)
);
},
{
closed = 1;
nodes = (
(263,609,l),
(351,609,ls),
(409,609,o),
(440,577,o),
(432,523,cs),
(423,469,o),
(382,436,o),
(324,436,cs),
(236,436,l)
);
}
);
width = 600;
},
{
anchors = (
{
name = bottom;
pos = (256,0);
},
{
name = top;
pos = (372,730);
}
);
layerId = "CCC0BD40-BA8C-414E-B576-CF0B94E6C996";
shapes = (
{
closed = 1;
nodes = (
(271,0,ls),
(404,0,o),
(498,78,o),
(518,203,cs),
(533,295,o),
(486,370,o),
(401,381,c),
(402,384,l),
(480,399,o),
(543,466,o),
(555,541,cs),
(573,659,o),
(505,730,o),
(372,730,cs),
(165,730,l),
(49,0,l)
);
},
{
closed = 1;
nodes = (
(191,341,l),
(315,341,ls),
(399,341,o),
(442,286,o),
(430,206,cs),
(417,129,o),
(358,81,o),
(274,81,cs),
(150,81,l)
);
},
{
closed = 1;
nodes = (
(240,649,l),
(359,649,ls),
(436,649,o),
(476,605,o),
(465,534,cs),
(453,463,o),
(398,419,o),
(321,419,cs),
(203,419,l)
);
}
);
width = 600;
},
{
anchors = (
{
name = bottom;
pos = (256,0);
},
{
name = top;
pos = (372,730);
}
);
layerId = "EDF5EB54-295C-4C90-9A2F-67CD82979CFF";
shapes = (
{
closed = 1;
nodes = (
(257,0,ls),
(393,0,o),
(482,73,o),
(503,200,cs),
(517,289,o),
(469,368,o),
(391,381,c),
(392,384,l),
(464,397,o),
(528,467,o),
(540,542,cs),
(558,656,o),
(491,730,o),
(370,730,cs),
(182,730,l),
(66,0,l)
);
},
{
closed = 1;
nodes = (
(172,353,l),
(313,353,ls),
(415,353,o),
(469,294,o),
(454,199,cs),
(438,104,o),
(366,46,o),
(264,46,cs),
(123,46,l)
);
},
{
closed = 1;
nodes = (
(224,684,l),
(362,684,ls),
(455,684,o),
(504,630,o),
(490,541,cs),
(476,452,o),
(411,398,o),
(317,398,cs),
(179,398,l)
);
}
);
width = 600;
}
);
unicode = 66;
},
{
glyphname = C;
layers = (
{
anchors = (
{
name = bottom;
pos = (261,0);
},
{
name = top;
pos = (377,730);
}
);
layerId = "9ADF6715-3D0F-493D-8567-18A6FBCFC567";
shapes = (
{
closed = 1;
nodes = (
(417,-10,o),
(519,70,o),
(541,210,c),
(391,210,l),
(382,152,o),
(343,120,o),
(283,120,cs),
(223,120,o),
(194,152,o),
(203,210,cs),
(252,520,ls),
(262,578,o),
(301,610,o),
(361,610,cs),
(421,610,o),
(450,578,o),
(440,520,c),
(590,520,l),
(610,649,o),
(524,740,o),
(381,740,cs),
(226,740,o),
(124,660,o),
(102,520,cs),
(53,210,ls),
(32,78,o),
(115,-10,o),
(262,-10,cs)
);
}
);
width = 600;
},
{
anchors = (
{
name = bottom;
pos = (261,0);
},
{
name = top;
pos = (377,730);
}
);
layerId = "EDF5EB54-295C-4C90-9A2F-67CD82979CFF";
shapes = (
{
closed = 1;
nodes = (
(391,-10,o),
(480,69,o),
(502,200,c),
(452,200,l),
(436,98,o),
(368,35,o),
(272,35,cs),
(178,35,o),
(130,94,o),
(145,190,cs),
(201,540,ls),
(216,636,o),
(283,695,o),
(376,695,cs),
(471,695,o),
(520,632,o),
(504,530,c),
(554,530,l),
(574,658,o),
(507,740,o),
(383,740,cs),
(258,740,o),
(171,665,o),
(151,540,cs),
(95,190,ls),
(76,69,o),
(142,-10,o),
(264,-10,cs)
);
}
);
width = 600;
},
{
anchors = (
{
name = bottom;
pos = (261,0);
},
{
name = top;
pos = (377,730);
}
);
layerId = "CCC0BD40-BA8C-414E-B576-CF0B94E6C996";
shapes = (
{
closed = 1;
nodes = (
(398,-10,o),
(488,67,o),
(510,200,c),
(420,200,l),
(408,121,o),
(352,71,o),
(275,71,cs),
(198,71,o),
(158,121,o),
(170,200,cs),
(222,530,ls),
(234,609,o),
(291,659,o),
(368,659,cs),
(444,659,o),
(484,609,o),
(472,530,c),
(562,530,l),
(582,655,o),
(509,740,o),
(381,740,cs),
(244,740,o),
(154,663,o),
(132,530,cs),
(80,200,ls),
(60,71,o),
(130,-10,o),
(262,-10,cs)
);
}
);
width = 600;
}
);
unicode = 67;
},
{
glyphname = Ccedilla;
layers = (
{
layerId = "EDF5EB54-295C-4C90-9A2F-67CD82979CFF";
shapes = (
{
closed = 1;
nodes = (
(245,-195,ls),
(305,-195,o),
(350,-161,o),
(357,-118,cs),
(366,-61,o),
(307,-37,o),
(260,-34,c),
(293,26,l),
(251,26,l),
(202,-64,l),
(273,-64,o),
(316,-86,o),
(311,-118,cs),
(308,-140,o),
(283,-160,o),
(251,-160,cs),
(171,-160,l),
(165,-195,l)
);
},
{
ref = C;
}
);
width = 600;
},
{
layerId = "CCC0BD40-BA8C-414E-B576-CF0B94E6C996";
shapes = (
{
closed = 1;
nodes = (
(219,-203,ls),
(291,-203,o),
(345,-166,o),
(352,-120,cs),
(360,-68,o),
(297,-41,o),
(245,-35,c),
(276,26,l),
(219,26,l),
(169,-69,l),
(236,-69,o),
(271,-89,o),
(267,-112,cs),
(264,-130,o),
(242,-148,o),
(213,-148,cs),
(143,-148,l),
(134,-203,l)
);
},
{
ref = C;
}
);
width = 600;
},
{
layerId = "9ADF6715-3D0F-493D-8567-18A6FBCFC567";
shapes = (
{
closed = 1;
nodes = (
(230,-225,ls),
(314,-225,o),
(377,-182,o),
(385,-133,cs),
(395,-72,o),
(318,-43,o),
(258,-39,c),
(286,16,l),
(213,16,l),
(164,-69,l),
(237,-69,o),
(277,-88,o),
(272,-119,cs),
(270,-135,o),
(244,-155,o),
(211,-155,cs),
(131,-155,l),
(120,-225,l)
);
},
{
ref = C;
}
);
width = 600;
}
);
unicode = 199;
},
{
glyphname = D;
layers = (
{
anchors = (
{
name = bottom;
pos = (256,0);
},
{
name = center;
pos = (314,365);
},
{
name = top;
pos = (372,730);
}
);
layerId = "9ADF6715-3D0F-493D-8567-18A6FBCFC567";
shapes = (
{
closed = 1;
nodes = (
(256,0,ls),
(407,0,o),
(523,94,o),
(545,235,cs),
(587,496,ls),
(609,637,o),
(523,730,o),
(372,730,cs),
(135,730,l),
(19,0,l)
);
},
{
closed = 1;
nodes = (
(262,590,l),
(349,590,ls),
(410,590,o),
(445,552,o),
(437,496,cs),
(395,235,ls),
(386,178,o),
(339,140,o),
(278,140,cs),
(191,140,l)
);
}
);
width = 600;
},
{
anchors = (
{
name = bottom;
pos = (256,0);
},
{
name = center;
pos = (314,365);
},
{
name = top;
pos = (372,730);
}
);
layerId = "CCC0BD40-BA8C-414E-B576-CF0B94E6C996";
shapes = (
{
closed = 1;
nodes = (
(237,0,ls),
(378,0,o),
(482,86,o),
(503,220,cs),
(549,511,ls),
(570,644,o),
(494,730,o),
(353,730,cs),
(164,730,l),
(48,0,l)
);
},
{
closed = 1;
nodes = (
(241,650,l),
(340,650,ls),
(428,650,o),
(473,598,o),
(459,511,cs),
(413,220,ls),
(399,132,o),
(338,80,o),
(250,80,cs),
(151,80,l)
);
}
);
width = 600;
},
{
anchors = (
{
name = bottom;
pos = (256,0);
},
{
name = center;
pos = (314,365);
},
{
name = top;
pos = (372,730);
}
);
layerId = "EDF5EB54-295C-4C90-9A2F-67CD82979CFF";
shapes = (
{
closed = 1;
nodes = (
(226,0,ls),
(361,0,o),
(465,88,o),
(486,220,cs),
(532,510,ls),
(553,642,o),
(477,730,o),
(342,730,cs),
(182,730,l),
(66,0,l)
);
},
{
closed = 1;
nodes = (
(224,684,l),
(334,684,ls),
(438,684,o),
(498,614,o),
(482,510,cs),
(436,220,ls),
(419,115,o),
(338,46,o),
(233,46,cs),
(123,46,l)
);
}
);
width = 600;
}
);
unicode = 68;
},
{
glyphname = Eth;
layers = (
{
layerId = "9ADF6715-3D0F-493D-8567-18A6FBCFC567";
shapes = (
{
closed = 1;
nodes = (
(282,325,l),
(298,420,l),
(18,420,l),
(2,325,l)
);
},
{
ref = D;
}
);
width = 600;
},
{
layerId = "CCC0BD40-BA8C-414E-B576-CF0B94E6C996";
shapes = (
{
closed = 1;
nodes = (
(290,335,l),
(302,410,l),
(22,410,l),
(10,335,l)
);
},
{
ref = D;
}
);
width = 600;
},
{
layerId = "EDF5EB54-295C-4C90-9A2F-67CD82979CFF";
shapes = (
{
closed = 1;
nodes = (
(290,351,l),
(290,395,l),
(10,395,l),
(10,351,l)
);
},
{
ref = D;
}
);
width = 600;
}
);
unicode = 208;
},
{
glyphname = Dcroat;
layers = (
{
layerId = "EDF5EB54-295C-4C90-9A2F-67CD82979CFF";
shapes = (
{
closed = 1;
nodes = (
(290,351,l),
(297,395,l),
(17,395,l),
(10,351,l)
);
},
{
ref = D;
}
);
width = 600;
},
{
layerId = "CCC0BD40-BA8C-414E-B576-CF0B94E6C996";
shapes = (
{
closed = 1;
nodes = (
(290,335,l),
(302,410,l),
(22,410,l),
(10,335,l)
);
},
{
ref = D;
}
);
width = 600;
},
{
layerId = "9ADF6715-3D0F-493D-8567-18A6FBCFC567";
shapes = (
{
closed = 1;
nodes = (
(290,325,l),
(305,420,l),
(25,420,l),
(10,325,l)
);
},
{
ref = D;
}
);
width = 600;
}
);
unicode = 272;
},
{
glyphname = E;
layers = (
{
anchors = (
{
name = bottom;
pos = (305,0);
},
{
name = ogonek;
pos = (380,0);
},
{
name = top;
pos = (377,730);
},
{
name = topleft;
pos = (92,730);
}
);
layerId = "9ADF6715-3D0F-493D-8567-18A6FBCFC567";
shapes = (
{
closed = 1;
nodes = (
(486,0,l),
(506,128,l),
(203,128,l),
(232,310,l),
(500,310,l),
(520,438,l),
(252,438,l),
(278,602,l),
(581,602,l),
(602,730,l),
(152,730,l),
(36,0,l)
);
}
);
width = 600;
},
{
anchors = (
{
name = bottom;
pos = (310,0);
},
{
name = ogonek;
pos = (390,0);
},
{
name = top;
pos = (382,730);
},
{
name = topleft;
pos = (92,730);
}
);
layerId = "CCC0BD40-BA8C-414E-B576-CF0B94E6C996";
shapes = (
{
closed = 1;
nodes = (
(476,0,l),
(489,82,l),
(158,82,l),
(199,341,l),
(495,341,l),
(508,422,l),
(212,422,l),
(248,648,l),
(579,648,l),
(592,730,l),
(172,730,l),
(56,0,l)
);
}
);
width = 600;
},
{
anchors = (
{
name = bottom;
pos = (315,0);
},
{
name = ogonek;
pos = (400,0);
},
{
name = top;
pos = (387,730);
},
{
name = topleft;
pos = (92,730);
}
);
layerId = "EDF5EB54-295C-4C90-9A2F-67CD82979CFF";
shapes = (
{
closed = 1;
nodes = (
(466,0,l),
(473,46,l),
(133,46,l),
(183,358,l),
(488,358,l),
(495,403,l),
(190,403,l),
(234,684,l),
(574,684,l),
(582,730,l),
(192,730,l),
(76,0,l)
);
}
);
width = 600;
}
);
unicode = 69;
},
{
glyphname = Eogonek;
layers = (
{
layerId = "9ADF6715-3D0F-493D-8567-18A6FBCFC567";
shapes = (
{
closed = 1;
nodes = (
(454,-225,l),
(471,-120,l),
(402,-120,ls),
(373,-120,o),
(359,-103,o),
(362,-83,cs),
(365,-66,o),
(383,-42,o),
(413,-18,cs),
(450,11,l),
(364,11,l),
(291,-19,o),
(240,-68,o),
(233,-115,cs),
(222,-180,o),
(265,-225,o),
(346,-225,cs)
);
},
{
alignment = -1;
ref = E;
}
);
width = 600;
},
{
layerId = "CCC0BD40-BA8C-414E-B576-CF0B94E6C996";
shapes = (
{
closed = 1;
nodes = (
(449,-203,l),
(458,-143,l),
(398,-143,ls),
(364,-143,o),
(347,-122,o),
(351,-93,cs),
(356,-65,o),
(379,-36,o),
(430,1,c),
(443,10,l),
(368,10,l),
(298,-34,o),
(270,-72,o),
(264,-110,cs),
(255,-164,o),
(297,-203,o),
(371,-203,cs)
);
},
{
alignment = -1;
ref = E;
}
);
width = 600;
},
{
layerId = "EDF5EB54-295C-4C90-9A2F-67CD82979CFF";
shapes = (
{
closed = 1;
nodes = (
(440,-195,l),
(447,-153,l),
(383,-153,ls),
(351,-153,o),
(335,-134,o),
(340,-103,cs),
(344,-75,o),
(373,-36,o),
(417,0,cs),
(430,10,l),
(393,10,l),
(336,-27,o),
(297,-74,o),
(291,-115,cs),
(283,-165,o),
(312,-195,o),
(367,-195,c)
);
},
{
alignment = -1;
ref = E;
}
);
width = 600;
}
);
unicode = 280;
},
{
glyphname = Eopen;
layers = (
{
layerId = "EDF5EB54-295C-4C90-9A2F-67CD82979CFF";
shapes = (
{
closed = 1;
nodes = (
(403,-10,o),
(503,68,o),
(523,193,c),
(473,193,l),
(458,99,o),
(376,35,o),
(272,35,cs),
(168,35,o),
(106,99,o),
(121,193,cs),
(136,288,o),
(218,353,o),
(322,353,cs),
(397,353,l),
(404,398,l),
(334,398,ls),
(237,398,o),
(181,459,o),
(195,547,cs),
(209,635,o),
(284,696,o),
(381,696,cs),
(478,696,o),
(535,635,o),
(521,547,c),
(571,547,l),
(589,661,o),
(514,740,o),
(388,740,cs),
(257,740,o),
(164,666,o),
(145,547,cs),
(128,442,o),
(185,370,o),
(285,370,c),
(286,380,l),
(176,380,o),
(88,305,o),
(71,196,cs),
(52,74,o),
(130,-10,o),
(264,-10,cs)
);
}
);
width = 600;
},
{
layerId = "CCC0BD40-BA8C-414E-B576-CF0B94E6C996";
shapes = (
{
closed = 1;
nodes = (
(406,-10,o),
(513,71,o),
(534,192,c),
(444,192,l),
(431,119,o),
(365,70,o),
(280,70,cs),
(190,70,o),
(139,124,o),
(151,205,cs),
(164,286,o),
(233,340,o),
(323,340,cs),
(414,340,l),
(427,420,l),
(337,420,ls),
(256,420,o),
(209,468,o),
(221,540,cs),
(232,612,o),
(294,660,o),
(375,660,cs),
(457,660,o),
(503,610,o),
(491,535,c),
(581,535,l),
(600,658,o),
(522,740,o),
(384,740,cs),
(250,740,o),
(150,663,o),
(131,546,cs),
(115,444,o),
(173,380,o),
(281,382,c),
(282,392,l),
(165,394,o),
(79,321,o),
(60,205,cs),
(40,76,o),
(122,-10,o),
(267,-10,cs)
);
}
);
width = 600;
},
{
layerId = "9ADF6715-3D0F-493D-8567-18A6FBCFC567";
shapes = (
{
closed = 1;
nodes = (
(411,-10,o),
(530,76,o),
(554,205,c),
(404,205,l),
(392,154,o),
(345,120,o),
(284,120,cs),
(218,120,o),
(180,159,o),
(190,218,cs),
(199,278,o),
(249,317,o),
(316,317,cs),
(417,317,l),
(436,437,l),
(333,437,ls),
(273,437,o),
(240,471,o),
(248,523,cs),
(256,575,o),
(301,610,o),
(361,610,cs),
(421,610,o),
(455,575,o),
(447,523,c),
(597,523,l),
(618,654,o),
(528,740,o),
(373,740,cs),
(226,740,o),
(117,660,o),
(98,540,cs),
(82,444,o),
(131,383,o),
(222,383,c),
(223,390,l),
(126,392,o),
(53,325,o),
(36,217,cs),
(15,80,o),
(104,-10,o),
(260,-10,cs)
);
}
);
width = 600;
}
);
unicode = 400;
},
{
glyphname = Schwa;
layers = (
{
layerId = "9ADF6715-3D0F-493D-8567-18A6FBCFC567";
shapes = (
{
closed = 1;
nodes = (
(402,-10,o),
(508,78,o),
(529,210,cs),
(578,520,ls),
(599,653,o),
(521,740,o),
(374,740,cs),
(228,740,o),
(122,654,o),
(100,520,c),
(250,520,l),
(260,578,o),
(294,610,o),
(354,610,cs),
(414,610,o),
(438,578,o),
(428,520,c),
(412,416,l),
(82,416,l),
(49,210,ls),
(28,78,o),
(109,-10,o),
(255,-10,cs)
);
},
{
closed = 1;
nodes = (
(212,105,o),
(188,138,o),
(199,210,cs),
(216,316,l),
(204,306,l),
(394,306,l),
(379,210,ls),
(368,142,o),
(340,105,o),
(274,105,cs)
);
}
);
width = 600;
},
{
layerId = "CCC0BD40-BA8C-414E-B576-CF0B94E6C996";
shapes = (
{
closed = 1;
nodes = (
(384,-10,o),
(478,73,o),
(498,200,cs),
(550,530,ls),
(571,661,o),
(506,740,o),
(373,740,cs),
(242,740,o),
(150,659,o),
(130,530,c),
(220,530,l),
(233,613,o),
(283,660,o),
(361,660,cs),
(440,660,o),
(473,613,o),
(460,531,cs),
(439,400,l),
(109,400,l),
(78,200,ls),
(58,73,o),
(124,-10,o),
(254,-10,cs)
);
},
{
closed = 1;
nodes = (
(184,65,o),
(154,113,o),
(168,200,cs),
(190,338,l),
(181,330,l),
(428,330,l),
(408,200,ls),
(394,113,o),
(348,65,o),
(266,65,cs)
);
}
);
width = 600;
},
{
layerId = "EDF5EB54-295C-4C90-9A2F-67CD82979CFF";
shapes = (
{
closed = 1;
nodes = (
(375,-10,o),
(462,69,o),
(481,190,cs),
(537,540,ls),
(556,662,o),
(494,740,o),
(372,740,cs),
(248,740,o),
(165,658,o),
(145,530,c),
(195,530,l),
(211,632,o),
(270,695,o),
(365,695,cs),
(458,695,o),
(502,636,o),
(487,540,cs),
(461,378,l),
(121,378,l),
(91,190,ls),
(72,69,o),
(132,-10,o),
(253,-10,cs)
);
},
{
closed = 1;
nodes = (
(168,34,o),
(126,94,o),
(141,190,cs),
(165,344,l),
(153,335,l),
(454,335,l),
(431,190,ls),
(416,93,o),
(354,34,o),
(260,34,cs)
);
}
);
width = 600;
}
);
unicode = 399;
},
{
glyphname = F;
layers = (
{
anchors = (
{
name = bottom;
pos = (256,0);
},
{
name = top;
pos = (372,730);
}
);
layerId = "9ADF6715-3D0F-493D-8567-18A6FBCFC567";
shapes = (
{
closed = 1;
nodes = (
(176,0,l),
(222,288,l),
(516,288,l),
(538,428,l),
(242,428,l),
(267,590,l),
(589,590,l),
(612,730,l),
(142,730,l),
(26,0,l)
);
}
);
width = 600;
},
{
anchors = (
{
name = bottom;
pos = (256,0);
},
{
name = top;
pos = (372,730);
}
);
layerId = "CCC0BD40-BA8C-414E-B576-CF0B94E6C996";
shapes = (
{
closed = 1;
nodes = (
(141,0,l),
(192,324,l),
(506,324,l),
(519,406,l),
(203,406,l),
(242,648,l),
(584,648,l),
(597,730,l),
(167,730,l),
(51,0,l)
);
}
);
width = 600;
},
{
anchors = (
{
name = bottom;
pos = (256,0);
},
{
name = top;
pos = (372,730);
}
);
layerId = "EDF5EB54-295C-4C90-9A2F-67CD82979CFF";
shapes = (
{
closed = 1;
nodes = (
(121,0,l),
(176,346,l),
(501,346,l),
(508,392,l),
(183,392,l),
(229,684,l),
(589,684,l),
(597,730,l),
(187,730,l),
(71,0,l)
);
}
);
width = 600;
}
);
unicode = 70;
},
{
glyphname = G;
layers = (
{
anchors = (
{
name = bottom;
pos = (260,0);
},
{
name = top;
pos = (372,730);
}
);
layerId = "9ADF6715-3D0F-493D-8567-18A6FBCFC567";
shapes = (
{
closed = 1;
nodes = (
(413,-10,o),
(515,70,o),
(537,210,cs),
(568,405,l),
(310,405,l),
(290,278,l),
(398,278,l),
(387,210,ls),
(378,152,o),
(339,120,o),
(279,120,cs),
(219,120,o),
(190,152,o),
(199,210,cs),
(248,520,ls),
(258,578,o),
(297,610,o),
(357,610,cs),
(417,610,o),
(446,578,o),
(436,520,c),
(586,520,l),
(606,649,o),
(520,740,o),
(377,740,cs),
(222,740,o),
(120,660,o),
(98,520,cs),
(49,210,ls),
(28,78,o),
(111,-10,o),
(258,-10,cs)
);
}
);
width = 600;
},
{
anchors = (
{
name = bottom;
pos = (260,0);
},
{
name = top;
pos = (372,730);
}
);
layerId = "CCC0BD40-BA8C-414E-B576-CF0B94E6C996";
shapes = (
{
closed = 1;
nodes = (
(393,-10,o),
(483,67,o),
(506,200,cs),
(535,382,l),
(297,382,l),
(284,300,l),
(432,300,l),
(416,200,ls),
(403,120,o),
(348,70,o),
(271,70,cs),
(194,70,o),
(153,120,o),
(166,200,cs),
(218,531,ls),
(230,610,o),
(287,659,o),
(364,659,cs),
(440,659,o),
(480,609,o),
(468,530,c),
(558,530,l),
(577,655,o),
(504,740,o),
(377,740,cs),
(241,740,o),
(151,663,o),
(128,530,cs),
(76,200,ls),
(55,71,o),
(126,-10,o),
(258,-10,cs)
);
}
);
width = 600;
},
{
anchors = (
{
name = bottom;
pos = (262,0);
},
{
name = top;
pos = (378,730);
}
);
layerId = "EDF5EB54-295C-4C90-9A2F-67CD82979CFF";
shapes = (
{
closed = 1;
nodes = (
(388,-10,o),
(477,68,o),
(498,200,cs),
(524,364,l),
(301,364,l),
(293,318,l),
(466,318,l),
(448,200,ls),
(432,98,o),
(364,35,o),
(268,35,cs),
(174,35,o),
(126,94,o),
(141,190,cs),
(197,540,ls),
(212,636,o),
(279,695,o),
(372,695,cs),
(467,695,o),
(516,632,o),
(500,530,c),
(550,530,l),
(570,658,o),
(503,740,o),
(379,740,cs),
(253,740,o),
(167,666,o),
(147,540,cs),
(91,190,ls),
(72,69,o),
(138,-10,o),
(260,-10,cs)
);
}
);
width = 600;
}
);
unicode = 71;
},
{
glyphname = H;
layers = (
{
anchors = (
{
name = bottom;
pos = (256,0);
},
{
name = center;
pos = (314,365);
},
{
name = top;
pos = (372,730);
},
{
name = topleft;
pos = (92,730);
}
);
layerId = "9ADF6715-3D0F-493D-8567-18A6FBCFC567";
shapes = (
{
closed = 1;
nodes = (
(172,0,l),
(221,311,l),
(389,311,l),
(340,0,l),
(490,0,l),
(606,730,l),
(456,730,l),
(411,446,l),
(243,446,l),
(288,730,l),
(138,730,l),
(22,0,l)
);
}
);
width = 600;
},
{
anchors = (
{
name = bottom;
pos = (256,0);
},
{
name = center;
pos = (314,365);
},
{
name = top;
pos = (372,730);
},
{
name = topleft;
pos = (92,730);
}
);
layerId = "CCC0BD40-BA8C-414E-B576-CF0B94E6C996";
shapes = (
{
closed = 1;
nodes = (
(139,0,l),
(192,336,l),
(426,336,l),
(373,0,l),
(463,0,l),
(579,730,l),
(489,730,l),
(439,418,l),
(205,418,l),
(255,730,l),
(165,730,l),
(49,0,l)
);
}
);
width = 600;
},
{
anchors = (
{
name = bottom;
pos = (256,0);
},
{
name = center;
pos = (314,365);
},
{
name = top;
pos = (372,730);
},
{
name = topleft;
pos = (92,730);
}
);
layerId = "EDF5EB54-295C-4C90-9A2F-67CD82979CFF";
shapes = (
{
closed = 1;
nodes = (
(116,0,l),
(173,357,l),
(453,357,l),
(396,0,l),
(446,0,l),
(562,730,l),
(512,730,l),
(460,402,l),
(180,402,l),
(232,730,l),
(182,730,l),
(66,0,l)
);
}
);
width = 600;
}
);
unicode = 72;
},
{
glyphname = Hbar;
layers = (
{
layerId = "9ADF6715-3D0F-493D-8567-18A6FBCFC567";
shapes = (
{
closed = 1;
nodes = (
(630,525,l),
(645,620,l),
(65,620,l),
(50,525,l)
);
},
{
alignment = -1;
ref = H;
}
);
width = 600;
},
{
layerId = "CCC0BD40-BA8C-414E-B576-CF0B94E6C996";
shapes = (
{
closed = 1;
nodes = (
(629,525,l),
(641,600,l),
(62,600,l),
(50,525,l)
);
},
{
alignment = -1;
ref = H;
}
);
width = 600;
},
{
layerId = "EDF5EB54-295C-4C90-9A2F-67CD82979CFF";
shapes = (
{
closed = 1;
nodes = (
(632,540,l),
(639,584,l),
(59,584,l),
(52,540,l)
);
},
{
alignment = -1;
ref = H;
}
);
width = 600;
}
);
unicode = 294;
},
{
glyphname = I;
layers = (
{
anchors = (
{
name = bottom;
pos = (256,0);
},
{
name = ogonek;
pos = (280,0);
},
{
name = top;
pos = (372,730);
},
{
name = topleft;
pos = (92,730);
}
);
layerId = "9ADF6715-3D0F-493D-8567-18A6FBCFC567";
shapes = (
{
closed = 1;
nodes = (
(476,0,l),
(497,130,l),
(352,130,l),
(426,600,l),
(571,600,l),
(592,730,l),
(152,730,l),
(131,600,l),
(276,600,l),
(202,130,l),
(57,130,l),
(36,0,l)
);
}
);
width = 600;
},
{
anchors = (
{
name = bottom;
pos = (212,0);
},
{
name = ogonek;
pos = (236,0);
},
{
name = top;
pos = (374,730);
},
{
name = topleft;
pos = (164,730);
}
);
layerId = "CCC0BD40-BA8C-414E-B576-CF0B94E6C996";
shapes = (
{
closed = 1;
nodes = (
(451,0,l),
(464,82,l),
(315,82,l),
(405,648,l),
(554,648,l),
(567,730,l),
(177,730,l),
(164,648,l),
(313,648,l),
(223,82,l),
(74,82,l),
(61,0,l)
);
}
);
width = 600;
},
{
anchors = (
{
name = bottom;
pos = (256,0);
},
{
name = ogonek;
pos = (280,0);
},
{
name = top;
pos = (372,730);
},
{
name = topleft;
pos = (92,730);
}
);
layerId = "EDF5EB54-295C-4C90-9A2F-67CD82979CFF";
shapes = (
{
closed = 1;
nodes = (
(436,0,l),
(443,46,l),
(289,46,l),
(390,684,l),
(544,684,l),
(552,730,l),
(192,730,l),
(184,684,l),
(340,684,l),
(239,46,l),
(83,46,l),
(76,0,l)
);
}
);
width = 600;
}
);
unicode = 73;
},
{
glyphname = IJ;
layers = (
{
layerId = "EDF5EB54-295C-4C90-9A2F-67CD82979CFF";
shapes = (
{
closed = 1;
nodes = (
(279,245,l),
(285,287,l),
(186,287,l),
(250,688,l),
(349,688,l),
(356,730,l),
(106,730,l),
(99,688,l),
(200,688,l),
(136,287,l),
(35,287,l),
(29,245,l)
);
},
{
closed = 1;
nodes = (
(423,-10,o),
(512,67,o),
(532,197,cs),
(617,730,l),
(567,730,l),
(483,201,ls),
(467,99,o),
(396,35,o),
(299,35,cs),
(209,35,o),
(160,88,o),
(169,180,c),
(120,180,l),
(106,64,o),
(174,-10,o),
(297,-10,cs)
);
}
);
width = 600;
},
{
layerId = "CCC0BD40-BA8C-414E-B576-CF0B94E6C996";
shapes = (
{
closed = 1;
nodes = (
(302,245,l),
(314,323,l),
(219,323,l),
(271,652,l),
(366,652,l),
(379,730,l),
(97,730,l),
(84,652,l),
(179,652,l),
(127,323,l),
(32,323,l),
(20,245,l)
);
},
{
closed = 1;
nodes = (
(430,-10,o),
(528,73,o),
(549,207,cs),
(632,730,l),
(542,730,l),
(460,213,ls),
(446,128,o),
(384,70,o),
(301,70,cs),
(231,70,o),
(189,110,o),
(196,180,c),
(107,180,l),
(93,67,o),
(168,-10,o),
(299,-10,cs)
);
}
);
width = 600;
},
{
layerId = "9ADF6715-3D0F-493D-8567-18A6FBCFC567";
shapes = (
{
closed = 1;
nodes = (
(305,245,l),
(321,350,l),
(246,350,l),
(290,625,l),
(365,625,l),
(382,730,l),
(82,730,l),
(65,625,l),
(140,625,l),
(96,350,l),
(21,350,l),
(5,245,l)
);
},
{
closed = 1;
nodes = (
(436,-10,o),
(537,72,o),
(560,214,cs),
(642,730,l),
(492,730,l),
(411,224,ls),
(402,162,o),
(355,120,o),
(291,120,cs),
(244,120,o),
(217,142,o),
(220,190,c),
(72,190,l),
(55,71,o),
(138,-10,o),
(288,-10,cs)
);
}
);
width = 600;
}
);
unicode = 306;
},
{
glyphname = Iogonek;
layers = (
{
layerId = "EDF5EB54-295C-4C90-9A2F-67CD82979CFF";
shapes = (
{
closed = 1;
nodes = (
(299,-195,l),
(305,-153,l),
(241,-153,ls),
(209,-153,o),
(193,-134,o),
(198,-103,cs),
(203,-75,o),
(232,-36,o),
(275,0,cs),
(288,10,l),
(251,10,l),
(194,-27,o),
(156,-74,o),
(149,-115,cs),
(141,-165,o),
(171,-195,o),
(226,-195,c)
);
},
{
ref = I;
}
);
width = 600;
},
{
layerId = "CCC0BD40-BA8C-414E-B576-CF0B94E6C996";
shapes = (
{
closed = 1;
nodes = (
(309,-203,l),
(318,-143,l),
(258,-143,ls),
(224,-143,o),
(207,-122,o),
(211,-93,cs),
(216,-65,o),
(239,-36,o),
(290,1,c),
(303,10,l),
(228,10,l),
(158,-34,o),
(130,-72,o),
(124,-110,cs),
(115,-164,o),
(157,-203,o),
(231,-203,cs)
);
},
{
ref = I;
}
);
width = 600;
},
{
layerId = "9ADF6715-3D0F-493D-8567-18A6FBCFC567";
shapes = (
{
closed = 1;
nodes = (
(324,-225,l),
(341,-120,l),
(272,-120,ls),
(243,-120,o),
(229,-103,o),
(232,-83,cs),
(235,-66,o),
(253,-42,o),
(283,-18,cs),
(320,11,l),
(234,11,l),
(161,-19,o),
(110,-68,o),
(103,-115,cs),
(92,-180,o),
(135,-225,o),
(216,-225,cs)
);
},
{
ref = I;
}
);
width = 600;
}
);
unicode = 302;
},
{
glyphname = J;
layers = (
{
anchors = (
{
name = bottom;
pos = (256,0);
},
{
name = top;
pos = (522,730);
}
);
layerId = "9ADF6715-3D0F-493D-8567-18A6FBCFC567";
shapes = (
{
closed = 1;
nodes = (
(383,-10,o),
(487,73,o),
(511,219,cs),
(592,730,l),
(442,730,l),
(361,219,ls),
(351,160,o),
(304,120,o),
(245,120,cs),
(183,120,o),
(151,159,o),
(161,221,c),
(11,221,l),
(-11,79,o),
(70,-10,o),
(224,-10,cs)
);
}
);
width = 600;
},
{
anchors = (
{
name = bottom;
pos = (256,0);
},
{
name = top;
pos = (522,730);
}
);
layerId = "CCC0BD40-BA8C-414E-B576-CF0B94E6C996";
shapes = (
{
closed = 1;
nodes = (
(367,-10,o),
(462,70,o),
(484,210,cs),
(567,730,l),
(477,730,l),
(394,210,ls),
(380,123,o),
(320,70,o),
(237,70,cs),
(152,70,o),
(110,121,o),
(124,210,c),
(34,210,l),
(13,75,o),
(86,-10,o),
(224,-10,cs)
);
}
);
width = 600;
},
{
anchors = (
{
name = bottom;
pos = (256,0);
},
{
name = top;
pos = (525,730);
}
);
layerId = "EDF5EB54-295C-4C90-9A2F-67CD82979CFF";
shapes = (
{
closed = 1;
nodes = (
(360,-10,o),
(447,66,o),
(468,199,cs),
(552,730,l),
(502,730,l),
(418,199,ls),
(402,98,o),
(333,35,o),
(237,35,cs),
(141,35,o),
(91,97,o),
(108,200,c),
(58,200,l),
(37,69,o),
(101,-10,o),
(229,-10,cs)
);
}
);
width = 600;
}
);
unicode = 74;
},
{
glyphname = K;
layers = (
{
anchors = (
{
name = bottom;
pos = (256,0);
},
{
name = top;
pos = (372,730);
}
);
layerId = "9ADF6715-3D0F-493D-8567-18A6FBCFC567";
shapes = (
{
closed = 1;
nodes = (
(171,0,l),
(220,309,l),
(296,309,l),
(372,0,l),
(531,0,l),
(429,372,l),
(641,730,l),
(478,730,l),
(310,447,l),
(242,447,l),
(287,730,l),
(137,730,l),
(21,0,l)
);
}
);
width = 600;
},
{
anchors = (
{
name = bottom;
pos = (256,0);
},
{
name = top;
pos = (372,730);
}
);
layerId = "CCC0BD40-BA8C-414E-B576-CF0B94E6C996";
shapes = (
{
closed = 1;
nodes = (
(138,0,l),
(192,338,l),
(300,338,l),
(416,0,l),
(516,0,l),
(385,376,l),
(622,730,l),
(522,730,l),
(310,417,l),
(204,417,l),
(254,730,l),
(164,730,l),
(48,0,l)
);
}
);
width = 600;
},
{
anchors = (
{
name = bottom;
pos = (256,0);
},
{
name = top;
pos = (372,730);
}
);
layerId = "EDF5EB54-295C-4C90-9A2F-67CD82979CFF";
shapes = (
{
closed = 1;
nodes = (
(116,0,l),
(172,356,l),
(327,356,l),
(440,0,l),
(496,0,l),
(375,377,l),
(602,730,l),
(544,730,l),
(332,401,l),
(180,401,l),
(232,730,l),
(182,730,l),
(66,0,l)
);
}
);
width = 600;
}
);
unicode = 75;
},
{
glyphname = L;
layers = (
{
anchors = (
{
name = bottom;
pos = (296,0);
},
{
name = center;
pos = (314,365);
},
{
name = top;
pos = (262,730);
}
);
layerId = "9ADF6715-3D0F-493D-8567-18A6FBCFC567";
shapes = (
{
closed = 1;
nodes = (
(516,0,l),
(537,135,l),
(242,135,l),
(337,730,l),
(187,730,l),
(71,0,l)
);
}
);
width = 600;
},
{
anchors = (
{
name = bottom;
pos = (296,0);
},
{
name = center;
pos = (314,365);
},
{
name = top;
pos = (247,730);
}
);
layerId = "CCC0BD40-BA8C-414E-B576-CF0B94E6C996";
shapes = (
{
closed = 1;
nodes = (
(506,0,l),
(519,82,l),
(189,82,l),
(292,730,l),
(202,730,l),
(86,0,l)
);
}
);
width = 600;
},
{
anchors = (
{
name = bottom;
pos = (296,0);
},
{
name = center;
pos = (314,365);
},
{
name = top;
pos = (238,730);
}
);
layerId = "EDF5EB54-295C-4C90-9A2F-67CD82979CFF";
shapes = (
{
closed = 1;
nodes = (
(501,0,l),
(508,46,l),
(153,46,l),
(262,730,l),
(212,730,l),
(96,0,l)
);
}
);
width = 600;
}
);
unicode = 76;
},
{
glyphname = Lslash;
layers = (
{
layerId = "9ADF6715-3D0F-493D-8567-18A6FBCFC567";
shapes = (
{
closed = 1;
nodes = (
(423,420,l),
(445,565,l),
(35,370,l),
(12,225,l)
);
},
{
alignment = -1;
pos = (10,0);
ref = L;
}
);
width = 600;
},
{
layerId = "CCC0BD40-BA8C-414E-B576-CF0B94E6C996";
shapes = (
{
closed = 1;
nodes = (
(422,480,l),
(435,564,l),
(25,310,l),
(12,226,l)
);
},
{
alignment = -1;
ref = L;
}
);
width = 600;
},
{
layerId = "EDF5EB54-295C-4C90-9A2F-67CD82979CFF";
shapes = (
{
closed = 1;
nodes = (
(424,495,l),
(433,552,l),
(23,295,l),
(14,238,l)
);
},
{
alignment = -1;
pos = (10,0);
ref = L;
}
);
width = 600;
}
);
unicode = 321;
},
{
glyphname = M;
layers = (
{
anchors = (
{
name = bottom;
pos = (256,0);
},
{
name = top;
pos = (372,730);
}
);
layerId = "CCC0BD40-BA8C-414E-B576-CF0B94E6C996";
shapes = (
{
closed = 1;
nodes = (
(115,0,l),
(170,345,ls),
(191,477,o),
(206,595,o),
(211,694,c),
(266,326,l),
(344,326,l),
(521,703,l),
(496,598,o),
(468,443,o),
(452,345,cs),
(397,0,l),
(484,0,l),
(600,730,l),
(465,730,l),
(318,414,l),
(275,730,l),
(144,730,l),
(28,0,l)
);
}
);
width = 600;
},
{
anchors = (
{
name = bottom;
pos = (256,0);
},
{
name = top;
pos = (372,730);
}
);
layerId = "9ADF6715-3D0F-493D-8567-18A6FBCFC567";
shapes = (
{
closed = 1;
nodes = (
(135,0,l),
(179,280,ls),
(203,433,o),
(208,574,o),
(209,661,c),
(243,310,l),
(363,310,l),
(512,670,l),
(483,567,o),
(444,426,o),
(421,280,cs),
(377,0,l),
(514,0,l),
(630,730,l),
(441,730,l),
(317,418,l),
(293,730,l),
(114,730,l),
(-2,0,l)
);
}
);
width = 600;
},
{
anchors = (
{
name = bottom;
pos = (256,0);
},
{
name = top;
pos = (372,730);
}
);
layerId = "EDF5EB54-295C-4C90-9A2F-67CD82979CFF";
shapes = (
{
closed = 1;
nodes = (
(97,0,l),
(167,440,ls),
(183,542,o),
(195,651,o),
(199,705,c),
(280,325,l),
(335,325,l),
(535,707,l),
(522,653,o),
(501,542,o),
(485,440,cs),
(415,0,l),
(464,0,l),
(580,730,l),
(506,730,l),
(311,361,l),
(232,730,l),
(164,730,l),
(48,0,l)
);
}
);
width = 600;
}
);
unicode = 77;
},
{
glyphname = N;
layers = (
{
anchors = (
{
name = bottom;
pos = (256,0);
},
{
name = top;
pos = (372,730);
}
);
layerId = "9ADF6715-3D0F-493D-8567-18A6FBCFC567";
shapes = (
{
closed = 1;
nodes = (
(148,0,l),
(199,320,ls),
(210,389,o),
(219,501,o),
(223,565,c),
(323,0,l),
(496,0,l),
(612,730,l),
(480,730,l),
(432,430,ls),
(421,361,o),
(411,238,o),
(406,165,c),
(305,730,l),
(132,730,l),
(16,0,l)
);
}
);
width = 600;
},
{
anchors = (
{
name = bottom;
pos = (256,0);
},
{
name = top;
pos = (372,730);
}
);
layerId = "CCC0BD40-BA8C-414E-B576-CF0B94E6C996";
shapes = (
{
closed = 1;
nodes = (
(133,0,l),
(198,410,ls),
(210,483,o),
(219,576,o),
(223,625,c),
(347,0,l),
(466,0,l),
(582,730,l),
(495,730,l),
(430,320,ls),
(418,247,o),
(409,154,o),
(406,105,c),
(281,730,l),
(162,730,l),
(46,0,l)
);
}
);
width = 600;
},
{
anchors = (
{
name = bottom;
pos = (256,0);
},
{
name = top;
pos = (372,730);
}
);
layerId = "EDF5EB54-295C-4C90-9A2F-67CD82979CFF";
shapes = (
{
closed = 1;
nodes = (
(114,0,l),
(203,560,ls),
(211,611,o),
(217,656,o),
(219,675,c),
(378,0,l),
(446,0,l),
(562,730,l),
(514,730,l),
(425,170,ls),
(423,155,o),
(415,95,o),
(411,55,c),
(249,730,l),
(182,730,l),
(66,0,l)
);
}
);
width = 600;
}
);
unicode = 78;
},
{
glyphname = Eng;
layers = (
{
layerId = "9ADF6715-3D0F-493D-8567-18A6FBCFC567";
shapes = (
{
closed = 1;
nodes = (
(227,-180,ls),
(368,-180,o),
(481,-96,o),
(500,25,cs),
(612,730,l),
(480,730,l),
(447,526,ls),
(436,457,o),
(427,330,o),
(422,257,c),
(302,730,l),
(132,730,l),
(16,0,l),
(148,0,l),
(199,320,ls),
(210,389,o),
(219,501,o),
(223,565,c),
(352,41,l),
(345,-7,o),
(311,-35,o),
(260,-35,cs),
(200,-35,l),
(177,-180,l)
);
}
);
width = 600;
},
{
layerId = "CCC0BD40-BA8C-414E-B576-CF0B94E6C996";
shapes = (
{
closed = 1;
nodes = (
(232,-180,ls),
(356,-180,o),
(449,-103,o),
(468,15,cs),
(582,730,l),
(495,730,l),
(442,397,ls),
(430,324,o),
(422,229,o),
(418,179,c),
(280,730,l),
(162,730,l),
(46,0,l),
(133,0,l),
(198,410,ls),
(210,483,o),
(219,576,o),
(223,625,c),
(378,15,l),
(367,-55,o),
(316,-98,o),
(245,-98,cs),
(180,-98,l),
(167,-180,l)
);
}
);
width = 600;
},
{
layerId = "EDF5EB54-295C-4C90-9A2F-67CD82979CFF";
shapes = (
{
closed = 1;
nodes = (
(234,-180,ls),
(352,-180,o),
(429,-115,o),
(447,0,cs),
(563,730,l),
(515,730,l),
(434,219,ls),
(426,168,o),
(420,118,o),
(418,94,c),
(249,730,l),
(181,730,l),
(65,0,l),
(113,0,l),
(202,560,ls),
(210,611,o),
(216,656,o),
(218,675,c),
(397,0,l),
(383,-88,o),
(330,-135,o),
(242,-135,cs),
(162,-135,l),
(154,-180,l)
);
}
);
width = 600;
}
);
unicode = 330;
},
{
glyphname = O;
layers = (
{
anchors = (
{
name = bottom;
pos = (256,0);
},
{
name = center;
pos = (314,365);
},
{
name = horn;
pos = (387,700);
},
{
name = ogonek;
pos = (305,0);
},
{
name = top;
pos = (372,730);
},
{
name = topleft;
pos = (92,730);
},
{
name = topright;
pos = (652,730);
}
);
layerId = "EDF5EB54-295C-4C90-9A2F-67CD82979CFF";
shapes = (
{
closed = 1;
nodes = (
(379,-10,o),
(461,63,o),
(481,190,cs),
(537,540,ls),
(556,661,o),
(491,740,o),
(373,740,cs),
(249,740,o),
(167,667,o),
(147,540,cs),
(91,190,ls),
(72,68,o),
(136,-10,o),
(254,-10,cs)
);
},
{
closed = 1;
nodes = (
(169,34,o),
(125,91,o),
(141,190,cs),
(197,540,ls),
(212,638,o),
(275,696,o),
(366,696,cs),
(457,696,o),
(502,638,o),
(487,540,cs),
(431,190,ls),
(415,91,o),
(353,34,o),
(261,34,cs)
);
}
);
width = 600;
},
{
anchors = (
{
name = bottom;
pos = (256,0);
},
{
name = center;
pos = (314,365);
},
{
name = horn;
pos = (387,700);
},
{
name = ogonek;
pos = (305,0);
},
{
name = top;
pos = (372,730);
},
{
name = topleft;
pos = (92,730);
},
{
name = topright;
pos = (652,730);
}
);
layerId = "CCC0BD40-BA8C-414E-B576-CF0B94E6C996";
shapes = (
{
closed = 1;
nodes = (
(389,-10,o),
(478,67,o),
(500,200,cs),
(552,531,ls),
(571,655,o),
(498,740,o),
(373,740,cs),
(239,740,o),
(150,663,o),
(128,530,cs),
(76,200,ls),
(56,75,o),
(129,-10,o),
(254,-10,cs)
);
},
{
closed = 1;
nodes = (
(189,71,o),
(153,117,o),
(166,200,cs),
(218,530,ls),
(231,613,o),
(282,659,o),
(360,659,cs),
(438,659,o),
(475,613,o),
(462,530,cs),
(410,200,ls),
(397,117,o),
(345,71,o),
(267,71,cs)
);
}
);
width = 600;
},
{
anchors = (
{
name = bottom;
pos = (256,0);
},
{
name = center;
pos = (314,365);
},
{
name = horn;
pos = (387,700);
},
{
name = ogonek;
pos = (305,0);
},
{
name = top;
pos = (372,730);
},
{
name = topleft;
pos = (92,730);
},
{
name = topright;
pos = (652,730);
}
);
layerId = "9ADF6715-3D0F-493D-8567-18A6FBCFC567";
shapes = (
{
closed = 1;
nodes = (
(407,-10,o),
(507,70,o),
(529,210,cs),
(578,520,ls),
(599,652,o),
(520,740,o),
(373,740,cs),
(220,740,o),
(120,660,o),
(98,520,cs),
(49,210,ls),
(28,78,o),
(107,-10,o),
(254,-10,cs)
);
},
{
closed = 1;
nodes = (
(215,120,o),
(190,152,o),
(199,210,cs),
(248,520,ls),
(257,578,o),
(292,610,o),
(353,610,cs),
(414,610,o),
(437,578,o),
(428,520,cs),
(379,210,ls),
(370,152,o),
(335,120,o),
(275,120,cs)
);
}
);
width = 600;
}
);
unicode = 79;
},
{
glyphname = Ohorn;
layers = (
{
anchors = (
{
name = top;
pos = (362,730);
}
);
layerId = "9ADF6715-3D0F-493D-8567-18A6FBCFC567";
shapes = (
{
closed = 1;
nodes = (
(492,600,ls),
(579,600,o),
(646,654,o),
(658,735,cs),
(670,810,l),
(550,810,l),
(538,735,ls),
(535,713,o),
(520,700,o),
(498,700,cs),
(448,700,l),
(432,600,l)
);
},
{
ref = O;
}
);
width = 600;
},
{
anchors = (
{
name = top;
pos = (362,730);
}
);
layerId = "CCC0BD40-BA8C-414E-B576-CF0B94E6C996";
shapes = (
{
closed = 1;
nodes = (
(482,635,ls),
(546,635,o),
(592,672,o),
(602,730,cs),
(614,810,l),
(539,810,l),
(527,735,ls),
(524,714,o),
(508,700,o),
(487,700,cs),
(467,700,l),
(457,635,l)
);
},
{
ref = O;
}
);
width = 600;
},
{
anchors = (
{
name = top;
pos = (390,730);
}
);
layerId = "EDF5EB54-295C-4C90-9A2F-67CD82979CFF";
shapes = (
{
closed = 1;
nodes = (
(493,665,ls),
(544,665,o),
(583,699,o),
(591,750,cs),
(601,810,l),
(561,810,l),
(551,750,ls),
(546,720,o),
(526,700,o),
(499,700,cs),
(464,700,l),
(458,665,l)
);
},
{
ref = O;
}
);
width = 600;
}
);
unicode = 416;
},
{
glyphname = Oogonek;
layers = (
{
anchors = (
{
name = horn;
pos = (387,700);
},
{
name = top;
pos = (372,730);
}
);
layerId = "9ADF6715-3D0F-493D-8567-18A6FBCFC567";
shapes = (
{
closed = 1;
nodes = (
(383,-225,l),
(400,-120,l),
(331,-120,ls),
(302,-120,o),
(288,-103,o),
(291,-82,cs),
(294,-65,o),
(310,-38,o),
(340,-17,cs),
(394,21,l),
(464,58,o),
(517,127,o),
(530,210,cs),
(579,520,ls),
(600,652,o),
(521,740,o),
(374,740,cs),
(227,740,o),
(120,652,o),
(99,520,cs),
(50,210,ls),
(29,78,o),
(108,-10,o),
(255,-10,cs),
(288,-10,o),
(307,11,o),
(308,21,c),
(236,-9,o),
(169,-68,o),
(162,-115,cs),
(151,-180,o),
(194,-225,o),
(275,-225,cs)
);
},
{
closed = 1;
nodes = (
(216,120,o),
(191,152,o),
(200,210,cs),
(249,520,ls),
(259,578,o),
(293,610,o),
(354,610,cs),
(415,610,o),
(439,578,o),
(429,520,cs),
(380,210,ls),
(371,152,o),
(336,120,o),
(276,120,cs)
);
}
);
width = 600;
},
{
anchors = (
{
name = horn;
pos = (387,700);
},
{
name = top;
pos = (372,730);
}
);
layerId = "EDF5EB54-295C-4C90-9A2F-67CD82979CFF";
shapes = (
{
closed = 1;
nodes = (
(367,-195,l),
(374,-153,l),
(310,-153,ls),
(278,-153,o),
(262,-134,o),
(267,-103,cs),
(271,-75,o),
(300,-33,o),
(344,2,cs),
(355,10,l),
(422,45,o),
(468,105,o),
(481,190,cs),
(537,540,ls),
(556,661,o),
(491,740,o),
(373,740,cs),
(255,740,o),
(166,661,o),
(147,540,cs),
(91,190,ls),
(72,68,o),
(136,-10,o),
(254,-10,cs),
(265,-10,o),
(284,-9,o),
(295,-6,c),
(252,-39,o),
(223,-80,o),
(218,-115,cs),
(210,-165,o),
(239,-195,o),
(294,-195,cs)
);
},
{
closed = 1;
nodes = (
(169,34,o),
(125,91,o),
(141,190,cs),
(197,540,ls),
(212,638,o),
(275,696,o),
(366,696,cs),
(457,696,o),
(502,638,o),
(487,540,cs),
(431,190,ls),
(415,91,o),
(353,34,o),
(261,34,cs)
);
}
);
width = 600;
},
{
anchors = (
{
name = horn;
pos = (387,700);
},
{
name = top;
pos = (372,730);
}
);
layerId = "CCC0BD40-BA8C-414E-B576-CF0B94E6C996";
shapes = (
{
closed = 1;
nodes = (
(381,-203,l),
(390,-143,l),
(330,-143,ls),
(296,-143,o),
(279,-122,o),
(283,-93,cs),
(288,-65,o),
(307,-36,o),
(357,1,cs),
(390,25,l),
(448,60,o),
(487,121,o),
(500,200,cs),
(552,531,ls),
(573,661,o),
(504,740,o),
(373,740,cs),
(242,740,o),
(149,661,o),
(128,530,cs),
(76,200,ls),
(55,69,o),
(123,-10,o),
(254,-10,cs),
(258,-10,o),
(263,-10,o),
(267,-10,c),
(226,-45,o),
(200,-82,o),
(196,-110,cs),
(187,-164,o),
(229,-203,o),
(303,-203,cs)
);
},
{
closed = 1;
nodes = (
(189,71,o),
(153,117,o),
(166,200,cs),
(218,530,ls),
(231,613,o),
(282,659,o),
(360,659,cs),
(438,659,o),
(475,613,o),
(462,530,cs),
(410,200,ls),
(397,117,o),
(345,71,o),
(267,71,cs)
);
}
);
width = 600;
}
);
unicode = 490;
},
{
glyphname = Oslash;
layers = (
{
anchors = (
{
name = bottom;
pos = (256,0);
},
{
name = horn;
pos = (392,730);
},
{
name = top;
pos = (372,730);
}
);
layerId = "9ADF6715-3D0F-493D-8567-18A6FBCFC567";
shapes = (
{
closed = 1;
nodes = (
(83,-40,l),
(660,750,l),
(542,750,l),
(-35,-40,l)
);
},
{
closed = 1;
nodes = (
(401,-10,o),
(508,78,o),
(529,210,cs),
(578,520,ls),
(599,652,o),
(520,740,o),
(373,740,cs),
(226,740,o),
(119,652,o),
(98,520,cs),
(49,210,ls),
(28,78,o),
(107,-10,o),
(254,-10,cs)
);
},
{
closed = 1;
nodes = (
(214,120,o),
(185,152,o),
(194,210,cs),
(243,520,ls),
(253,578,o),
(292,610,o),
(353,610,cs),
(414,610,o),
(443,578,o),
(433,520,cs),
(384,210,ls),
(375,152,o),
(336,120,o),
(275,120,cs)
);
}
);
width = 600;
},
{
anchors = (
{
name = bottom;
pos = (256,0);
},
{
name = horn;
pos = (392,730);
},
{
name = top;
pos = (372,730);
}
);
layerId = "CCC0BD40-BA8C-414E-B576-CF0B94E6C996";
shapes = (
{
closed = 1;
nodes = (
(71,-40,l),
(640,750,l),
(554,750,l),
(-15,-40,l)
);
},
{
closed = 1;
nodes = (
(385,-10,o),
(479,69,o),
(500,200,cs),
(552,531,ls),
(572,661,o),
(504,740,o),
(373,740,cs),
(242,740,o),
(149,661,o),
(128,530,cs),
(76,200,ls),
(55,69,o),
(123,-10,o),
(254,-10,cs)
);
},
{
closed = 1;
nodes = (
(189,71,o),
(153,117,o),
(166,200,cs),
(218,530,ls),
(231,613,o),
(282,659,o),
(360,659,cs),
(438,659,o),
(475,613,o),
(462,530,cs),
(410,200,ls),
(397,117,o),
(345,71,o),
(267,71,cs)
);
}
);
width = 600;
},
{
anchors = (
{
name = bottom;
pos = (256,0);
},
{
name = horn;
pos = (392,730);
},
{
name = top;
pos = (372,730);
}
);
layerId = "EDF5EB54-295C-4C90-9A2F-67CD82979CFF";
shapes = (
{
closed = 1;
nodes = (
(50,-40,l),
(625,750,l),
(575,750,l),
(0,-40,l)
);
},
{
closed = 1;
nodes = (
(373,-10,o),
(461,68,o),
(481,190,cs),
(537,540,ls),
(556,661,o),
(491,740,o),
(373,740,cs),
(255,740,o),
(166,661,o),
(147,540,cs),
(91,190,ls),
(71,68,o),
(136,-10,o),
(254,-10,cs)
);
},
{
closed = 1;
nodes = (
(169,34,o),
(125,91,o),
(141,190,cs),
(197,540,ls),
(213,638,o),
(275,696,o),
(366,696,cs),
(457,696,o),
(503,638,o),
(487,540,cs),
(431,190,ls),
(415,91,o),
(353,34,o),
(261,34,cs)
);
}
);
width = 600;
}
);
unicode = 216;
},
{
glyphname = OE;
layers = (
{
layerId = "9ADF6715-3D0F-493D-8567-18A6FBCFC567";
shapes = (
{
closed = 1;
nodes = (
(202,-4,o),
(243,47,o),
(255,86,c),
(260,86,l),
(246,0,l),
(536,0,l),
(556,126,l),
(395,126,l),
(424,311,l),
(560,311,l),
(580,437,l),
(444,437,l),
(471,605,l),
(632,605,l),
(652,730,l),
(362,730,l),
(349,650,l),
(344,650,l),
(345,689,o),
(320,740,o),
(248,740,cs),
(157,740,o),
(91,666,o),
(72,541,cs),
(17,195,ls),
(-3,70,o),
(39,-4,o),
(130,-4,cs)
);
},
{
closed = 1;
nodes = (
(167,121,o),
(150,149,o),
(157,195,cs),
(212,541,ls),
(219,587,o),
(245,615,o),
(280,615,cs),
(316,615,o),
(333,588,o),
(326,541,cs),
(271,195,ls),
(263,148,o),
(238,121,o),
(202,121,cs)
);
}
);
width = 600;
},
{
layerId = "CCC0BD40-BA8C-414E-B576-CF0B94E6C996";
shapes = (
{
closed = 1;
nodes = (
(218,-10,o),
(261,41,o),
(274,80,c),
(279,80,l),
(266,0,l),
(531,0,l),
(544,82,l),
(367,82,l),
(407,336,l),
(559,336,l),
(572,418,l),
(420,418,l),
(457,648,l),
(634,648,l),
(647,730,l),
(382,730,l),
(369,650,l),
(364,650,l),
(364,689,o),
(337,740,o),
(268,740,cs),
(172,740,o),
(102,667,o),
(83,550,cs),
(25,180,ls),
(6,63,o),
(53,-10,o),
(149,-10,cs)
);
},
{
closed = 1;
nodes = (
(131,70,o),
(104,112,o),
(115,180,cs),
(173,550,ls),
(184,618,o),
(225,660,o),
(281,660,cs),
(337,660,o),
(364,618,o),
(353,550,cs),
(295,180,ls),
(284,112,o),
(243,70,o),
(187,70,cs)
);
}
);
width = 600;
},
{
layerId = "EDF5EB54-295C-4C90-9A2F-67CD82979CFF";
shapes = (
{
closed = 1;
nodes = (
(219,-10,o),
(267,41,o),
(284,80,c),
(289,80,l),
(276,0,l),
(525,0,l),
(533,50,l),
(339,50,l),
(387,352,l),
(545,352,l),
(553,402,l),
(395,402,l),
(439,680,l),
(633,680,l),
(641,730,l),
(392,730,l),
(379,650,l),
(374,650,l),
(370,689,o),
(338,740,o),
(269,740,cs),
(178,740,o),
(101,664,o),
(84,557,cs),
(23,173,ls),
(6,66,o),
(59,-10,o),
(150,-10,cs)
);
},
{
closed = 1;
nodes = (
(102,40,o),
(66,94,o),
(78,173,cs),
(139,557,ls),
(152,636,o),
(205,690,o),
(272,690,cs),
(338,690,o),
(377,638,o),
(364,557,cs),
(303,173,ls),
(291,92,o),
(235,40,o),
(169,40,cs)
);
}
);
width = 600;
}
);
unicode = 338;
},
{
glyphname = P;
layers = (
{
anchors = (
{
name = bottom;
pos = (256,0);
},
{
name = top;
pos = (372,730);
}
);
layerId = "9ADF6715-3D0F-493D-8567-18A6FBCFC567";
shapes = (
{
closed = 1;
nodes = (
(172,0,l),
(214,266,l),
(313,266,ls),
(466,266,o),
(583,359,o),
(605,498,cs),
(627,638,o),
(541,730,o),
(387,730,cs),
(138,730,l),
(22,0,l)
);
},
{
closed = 1;
nodes = (
(266,595,l),
(365,595,ls),
(429,595,o),
(464,557,o),
(455,498,cs),
(446,439,o),
(399,401,o),
(335,401,cs),
(236,401,l)
);
}
);
width = 600;
},
{
anchors = (
{
name = bottom;
pos = (256,0);
},
{
name = top;
pos = (372,730);
}
);
layerId = "CCC0BD40-BA8C-414E-B576-CF0B94E6C996";
shapes = (
{
closed = 1;
nodes = (
(138,0,l),
(186,300,l),
(331,300,ls),
(467,300,o),
(567,384,o),
(588,515,cs),
(608,646,o),
(535,730,o),
(399,730,cs),
(164,730,l),
(48,0,l)
);
},
{
closed = 1;
nodes = (
(241,649,l),
(386,649,ls),
(465,649,o),
(508,597,o),
(495,515,cs),
(482,433,o),
(422,381,o),
(343,381,cs),
(198,381,l)
);
}
);
width = 600;
},
{
anchors = (
{
name = bottom;
pos = (256,0);
},
{
name = top;
pos = (372,730);
}
);
layerId = "EDF5EB54-295C-4C90-9A2F-67CD82979CFF";
shapes = (
{
closed = 1;
nodes = (
(116,0,l),
(167,324,l),
(332,324,ls),
(459,324,o),
(555,404,o),
(574,527,cs),
(594,650,o),
(525,730,o),
(397,730,cs),
(182,730,l),
(66,0,l)
);
},
{
closed = 1;
nodes = (
(224,684,l),
(389,684,ls),
(487,684,o),
(540,624,o),
(524,527,cs),
(509,431,o),
(437,370,o),
(340,370,cs),
(175,370,l)
);
}
);
width = 600;
}
);
unicode = 80;
},
{
glyphname = Thorn;
layers = (
{
layerId = "9ADF6715-3D0F-493D-8567-18A6FBCFC567";
shapes = (
{
closed = 1;
nodes = (
(176,0,l),
(202,165,l),
(322,165,ls),
(465,165,o),
(565,246,o),
(586,380,cs),
(608,515,o),
(534,595,o),
(390,595,cs),
(270,595,l),
(292,730,l),
(142,730,l),
(26,0,l)
);
},
{
closed = 1;
nodes = (
(250,470,l),
(345,470,ls),
(413,470,o),
(445,438,o),
(436,380,cs),
(427,322,o),
(385,290,o),
(317,290,cs),
(222,290,l)
);
}
);
width = 600;
},
{
layerId = "CCC0BD40-BA8C-414E-B576-CF0B94E6C996";
shapes = (
{
closed = 1;
nodes = (
(136,0,l),
(165,180,l),
(318,180,ls),
(450,180,o),
(547,258,o),
(566,380,cs),
(585,500,o),
(512,580,o),
(381,580,cs),
(228,580,l),
(252,730,l),
(162,730,l),
(46,0,l)
);
},
{
closed = 1;
nodes = (
(215,500,l),
(368,500,ls),
(444,500,o),
(485,454,o),
(473,380,cs),
(461,306,o),
(407,260,o),
(330,260,cs),
(177,260,l)
);
}
);
width = 600;
},
{
layerId = "EDF5EB54-295C-4C90-9A2F-67CD82979CFF";
shapes = (
{
closed = 1;
nodes = (
(111,0,l),
(142,195,l),
(320,195,ls),
(441,195,o),
(528,266,o),
(546,380,cs),
(564,494,o),
(499,565,o),
(378,565,cs),
(200,565,l),
(227,730,l),
(177,730,l),
(61,0,l)
);
},
{
closed = 1;
nodes = (
(193,520,l),
(371,520,ls),
(462,520,o),
(510,467,o),
(496,380,cs),
(483,294,o),
(418,241,o),
(327,241,cs),
(149,241,l)
);
}
);
width = 600;
}
);
unicode = 222;
},
{
glyphname = Q;
layers = (
{
anchors = (
{
name = bottom;
pos = (256,0);
},
{
name = top;
pos = (372,730);
}
);
layerId = "9ADF6715-3D0F-493D-8567-18A6FBCFC567";
shapes = (
{
closed = 1;
nodes = (
(479,-180,l),
(362,77,l),
(345,3,l),
(447,29,o),
(513,106,o),
(529,210,cs),
(578,520,ls),
(599,652,o),
(517,740,o),
(373,740,cs),
(228,740,o),
(119,653,o),
(98,520,cs),
(49,210,ls),
(28,79,o),
(110,-10,o),
(254,-10,cs),
(260,-10,o),
(269,-9,o),
(274,-9,c),
(250,4,l),
(332,-180,l)
);
},
{
closed = 1;
nodes = (
(213,121,o),
(190,153,o),
(199,210,cs),
(248,520,ls),
(257,578,o),
(295,610,o),
(353,610,cs),
(411,610,o),
(437,578,o),
(428,520,cs),
(379,210,ls),
(370,153,o),
(337,121,o),
(275,121,cs)
);
}
);
width = 600;
},
{
anchors = (
{
name = bottom;
pos = (256,0);
},
{
name = top;
pos = (372,730);
}
);
layerId = "CCC0BD40-BA8C-414E-B576-CF0B94E6C996";
shapes = (
{
closed = 1;
nodes = (
(450,-180,l),
(348,50,l),
(342,4,l),
(430,31,o),
(492,105,o),
(508,205,cs),
(559,525,ls),
(580,656,o),
(508,740,o),
(373,740,cs),
(238,740,o),
(140,656,o),
(119,525,cs),
(68,205,ls),
(47,74,o),
(119,-10,o),
(254,-10,cs),
(264,-10,o),
(275,-9,o),
(286,-7,c),
(274,-3,l),
(352,-180,l)
);
},
{
closed = 1;
nodes = (
(188,70,o),
(145,123,o),
(158,205,cs),
(209,525,ls),
(222,607,o),
(282,660,o),
(361,660,cs),
(440,660,o),
(482,607,o),
(469,525,cs),
(418,205,ls),
(405,123,o),
(346,70,o),
(267,70,cs)
);
}
);
width = 600;
},
{
anchors = (
{
name = bottom;
pos = (256,0);
},
{
name = top;
pos = (372,730);
}
);
layerId = "EDF5EB54-295C-4C90-9A2F-67CD82979CFF";
shapes = (
{
closed = 1;
nodes = (
(433,-180,l),
(340,31,l),
(339,5,l),
(415,31,o),
(467,101,o),
(481,190,cs),
(537,540,ls),
(556,656,o),
(493,740,o),
(374,740,cs),
(254,740,o),
(167,662,o),
(147,540,cs),
(91,190,ls),
(72,69,o),
(136,-10,o),
(255,-10,cs),
(275,-10,o),
(298,-7,o),
(309,-5,c),
(301,0,l),
(382,-180,l)
);
},
{
closed = 1;
nodes = (
(171,35,o),
(125,92,o),
(141,190,cs),
(197,540,ls),
(213,638,o),
(275,695,o),
(367,695,cs),
(457,695,o),
(503,637,o),
(487,540,cs),
(431,190,ls),
(415,92,o),
(354,35,o),
(263,35,cs)
);
}
);
width = 600;
}
);
unicode = 81;
},
{
glyphname = R;
layers = (
{
anchors = (
{
name = bottom;
pos = (256,0);
},
{
name = top;
pos = (372,730);
}
);
layerId = "9ADF6715-3D0F-493D-8567-18A6FBCFC567";
shapes = (
{
closed = 1;
nodes = (
(169,0,l),
(213,276,l),
(289,276,l),
(363,0,l),
(521,0,l),
(431,300,l),
(517,334,o),
(576,410,o),
(591,508,cs),
(612,640,o),
(523,730,o),
(372,730,cs),
(138,730,l),
(22,0,l)
);
},
{
closed = 1;
nodes = (
(264,600,l),
(351,600,ls),
(417,600,o),
(450,563,o),
(440,501,cs),
(431,441,o),
(386,406,o),
(320,406,cs),
(233,406,l)
);
}
);
width = 600;
},
{
anchors = (
{
name = bottom;
pos = (256,0);
},
{
name = top;
pos = (372,730);
}
);
layerId = "CCC0BD40-BA8C-414E-B576-CF0B94E6C996";
shapes = (
{
closed = 1;
nodes = (
(138,0,l),
(187,310,l),
(311,310,l),
(405,0,l),
(501,0,l),
(403,319,l),
(497,349,o),
(559,422,o),
(573,520,cs),
(593,645,o),
(520,730,o),
(390,730,cs),
(165,730,l),
(49,0,l)
);
},
{
closed = 1;
nodes = (
(241,649,l),
(377,649,ls),
(451,649,o),
(493,598,o),
(480,520,cs),
(468,442,o),
(411,391,o),
(336,391,cs),
(200,391,l)
);
}
);
width = 600;
},
{
anchors = (
{
name = bottom;
pos = (256,0);
},
{
name = top;
pos = (372,730);
}
);
layerId = "EDF5EB54-295C-4C90-9A2F-67CD82979CFF";
shapes = (
{
closed = 1;
nodes = (
(116,0,l),
(168,330,l),
(321,330,l),
(434,0,l),
(486,0,l),
(368,332,l),
(472,347,o),
(548,422,o),
(565,528,cs),
(585,650,o),
(514,730,o),
(387,730,cs),
(182,730,l),
(66,0,l)
);
},
{
closed = 1;
nodes = (
(224,684,l),
(379,684,ls),
(476,684,o),
(530,624,o),
(515,530,cs),
(500,436,o),
(427,375,o),
(330,375,cs),
(175,375,l)
);
}
);
width = 600;
}
);
unicode = 82;
},
{
glyphname = S;
layers = (
{
anchors = (
{
name = bottom;
pos = (256,0);
},
{
name = top;
pos = (372,730);
}
);
layerId = "9ADF6715-3D0F-493D-8567-18A6FBCFC567";
shapes = (
{
closed = 1;
nodes = (
(416,-10,o),
(520,69,o),
(542,206,cs),
(560,324,o),
(503,415,o),
(392,441,cs),
(303,462,ls),
(261,472,o),
(240,496,o),
(246,535,cs),
(253,582,o),
(292,612,o),
(349,612,cs),
(408,612,o),
(438,581,o),
(430,531,c),
(576,531,l),
(595,655,o),
(512,740,o),
(369,740,cs),
(219,740,o),
(121,663,o),
(99,530,cs),
(82,423,o),
(141,342,o),
(252,315,cs),
(338,294,ls),
(383,283,o),
(401,247,o),
(395,206,cs),
(388,156,o),
(340,120,o),
(277,120,cs),
(210,120,o),
(174,155,o),
(182,210,c),
(36,210,l),
(16,79,o),
(106,-10,o),
(256,-10,cs)
);
}
);
width = 600;
},
{
anchors = (
{
name = bottom;
pos = (256,0);
},
{
name = top;
pos = (372,730);
}
);
layerId = "CCC0BD40-BA8C-414E-B576-CF0B94E6C996";
shapes = (
{
closed = 1;
nodes = (
(399,-10,o),
(495,67,o),
(516,200,cs),
(532,301,o),
(487,377,o),
(394,405,cs),
(286,437,ls),
(236,452,o),
(212,493,o),
(221,547,cs),
(231,614,o),
(287,660,o),
(358,660,cs),
(429,660,o),
(471,614,o),
(461,547,c),
(551,547,l),
(569,660,o),
(493,740,o),
(370,740,cs),
(239,740,o),
(152,668,o),
(132,545,cs),
(117,451,o),
(162,380,o),
(250,354,cs),
(356,323,ls),
(411,307,o),
(437,259,o),
(428,200,cs),
(415,122,o),
(354,70,o),
(271,70,cs),
(185,70,o),
(137,119,o),
(150,200,c),
(60,200,l),
(39,69,o),
(117,-10,o),
(258,-10,cs)
);
}
);
width = 600;
},
{
anchors = (
{
name = bottom;
pos = (256,0);
},
{
name = top;
pos = (372,730);
}
);
layerId = "EDF5EB54-295C-4C90-9A2F-67CD82979CFF";
shapes = (
{
closed = 1;
nodes = (
(391,-10,o),
(481,63,o),
(500,183,cs),
(515,279,o),
(469,357,o),
(380,386,cs),
(283,418,ls),
(221,439,o),
(188,495,o),
(199,563,cs),
(212,642,o),
(281,696,o),
(369,696,cs),
(459,696,o),
(511,635,o),
(496,545,c),
(545,545,l),
(564,659,o),
(493,740,o),
(377,740,cs),
(252,740,o),
(168,672,o),
(150,559,cs),
(136,471,o),
(180,399,o),
(264,372,cs),
(361,341,ls),
(429,319,o),
(463,257,o),
(451,180,cs),
(437,94,o),
(362,35,o),
(267,35,cs),
(166,35,o),
(106,102,o),
(122,200,c),
(73,200,l),
(53,75,o),
(129,-10,o),
(259,-10,cs)
);
}
);
width = 600;
}
);
unicode = 83;
},
{
glyphname = Scedilla;
layers = (
{
anchors = (
{
name = _bottom;
pos = (256,0);
}
);
layerId = "9ADF6715-3D0F-493D-8567-18A6FBCFC567";
shapes = (
{
closed = 1;
nodes = (
(225,-225,ls),
(309,-225,o),
(372,-182,o),
(380,-133,cs),
(390,-72,o),
(313,-43,o),
(253,-39,c),
(281,16,l),
(208,16,l),
(159,-69,l),
(232,-69,o),
(272,-88,o),
(267,-119,cs),
(265,-135,o),
(239,-155,o),
(206,-155,cs),
(126,-155,l),
(115,-225,l)
);
},
{
alignment = -1;
ref = S;
}
);
width = 600;
},
{
anchors = (
{
name = _bottom;
pos = (256,0);
}
);
layerId = "CCC0BD40-BA8C-414E-B576-CF0B94E6C996";
shapes = (
{
closed = 1;
nodes = (
(214,-203,ls),
(286,-203,o),
(340,-166,o),
(347,-120,cs),
(355,-68,o),
(292,-41,o),
(240,-35,c),
(271,26,l),
(214,26,l),
(164,-69,l),
(231,-69,o),
(266,-89,o),
(262,-112,cs),
(259,-130,o),
(237,-148,o),
(208,-148,cs),
(138,-148,l),
(129,-203,l)
);
},
{
alignment = -1;
ref = S;
}
);
width = 600;
},
{
anchors = (
{
name = _bottom;
pos = (256,0);
}
);
layerId = "EDF5EB54-295C-4C90-9A2F-67CD82979CFF";
shapes = (
{
closed = 1;
nodes = (
(240,-195,ls),
(300,-195,o),
(346,-161,o),
(352,-118,cs),
(361,-61,o),
(302,-37,o),
(256,-34,c),
(288,26,l),
(246,26,l),
(197,-64,l),
(268,-64,o),
(311,-86,o),
(306,-118,cs),
(303,-140,o),
(278,-160,o),
(246,-160,cs),
(166,-160,l),
(160,-195,l)
);
},
{
alignment = -1;
ref = S;
}
);
width = 600;
}
);
unicode = 350;
},
{
glyphname = Germandbls;
layers = (
{
layerId = "EDF5EB54-295C-4C90-9A2F-67CD82979CFF";
shapes = (
{
closed = 1;
nodes = (
(116,0,l),
(202,543,ls),
(216,629,o),
(281,685,o),
(369,685,cs),
(528,685,l),
(291,411,l),
(284,368,l),
(324,368,ls),
(421,368,o),
(474,305,o),
(459,208,cs),
(443,109,o),
(370,45,o),
(273,45,cs),
(211,45,l),
(204,0,l),
(266,0,ls),
(394,0,o),
(489,82,o),
(509,210,cs),
(528,330,o),
(458,407,o),
(330,407,c),
(331,396,l),
(581,684,l),
(589,730,l),
(377,730,ls),
(259,730,o),
(170,657,o),
(152,543,cs),
(66,0,l)
);
}
);
width = 600;
},
{
layerId = "9ADF6715-3D0F-493D-8567-18A6FBCFC567";
shapes = (
{
closed = 1;
nodes = (
(151,0,l),
(232,511,ls),
(241,568,o),
(286,605,o),
(347,605,cs),
(460,605,l),
(284,438,l),
(267,328,l),
(314,328,ls),
(377,328,o),
(409,287,o),
(400,227,cs),
(390,167,o),
(346,125,o),
(282,125,cs),
(235,125,l),
(215,0,l),
(267,0,ls),
(418,0,o),
(528,84,o),
(549,215,cs),
(569,344,o),
(495,427,o),
(359,425,c),
(364,370,l),
(595,589,l),
(618,730,l),
(368,730,ls),
(225,730,o),
(118,644,o),
(97,511,cs),
(16,0,l)
);
}
);
width = 600;
},
{
layerId = "CCC0BD40-BA8C-414E-B576-CF0B94E6C996";
shapes = (
{
closed = 1;
nodes = (
(138,0,l),
(221,524,ls),
(233,601,o),
(287,648,o),
(361,648,cs),
(489,648,l),
(293,423,l),
(281,345,l),
(326,345,ls),
(406,345,o),
(448,295,o),
(435,215,cs),
(422,133,o),
(364,82,o),
(284,82,cs),
(227,82,l),
(214,0,l),
(281,0,ls),
(410,0,o),
(510,86,o),
(530,215,cs),
(550,342,o),
(487,425,o),
(373,423,c),
(369,396,l),
(587,642,l),
(601,730,l),
(374,730,ls),
(248,730,o),
(151,648,o),
(131,524,cs),
(48,0,l)
);
}
);
width = 600;
}
);
unicode = 7838;
},
{
glyphname = T;
layers = (
{
anchors = (
{
name = bottom;
pos = (256,0);
},
{
name = center;
pos = (314,365);
},
{
name = top;
pos = (372,730);
}
);
layerId = "9ADF6715-3D0F-493D-8567-18A6FBCFC567";
shapes = (
{
closed = 1;
nodes = (
(331,0,l),
(424,590,l),
(609,590,l),
(632,730,l),
(112,730,l),
(89,590,l),
(274,590,l),
(181,0,l)
);
}
);
width = 600;
},
{
anchors = (
{
name = bottom;
pos = (256,0);
},
{
name = center;
pos = (314,365);
},
{
name = top;
pos = (372,730);
}
);
layerId = "CCC0BD40-BA8C-414E-B576-CF0B94E6C996";
shapes = (
{
closed = 1;
nodes = (
(301,0,l),
(404,648,l),
(604,648,l),
(617,730,l),
(127,730,l),
(114,648,l),
(314,648,l),
(211,0,l)
);
}
);
width = 600;
},
{
anchors = (
{
name = bottom;
pos = (256,0);
},
{
name = center;
pos = (314,365);
},
{
name = top;
pos = (372,730);
}
);
layerId = "EDF5EB54-295C-4C90-9A2F-67CD82979CFF";
shapes = (
{
closed = 1;
nodes = (
(282,0,l),
(390,684,l),
(604,684,l),
(612,730,l),
(132,730,l),
(124,684,l),
(340,684,l),
(232,0,l)
);
}
);
width = 600;
}
);
unicode = 84;
},
{
glyphname = Tbar;
layers = (
{
layerId = "9ADF6715-3D0F-493D-8567-18A6FBCFC567";
shapes = (
{
closed = 1;
nodes = (
(500,275,l),
(518,390,l),
(118,390,l),
(100,275,l)
);
},
{
alignment = -1;
ref = T;
}
);
width = 600;
},
{
layerId = "CCC0BD40-BA8C-414E-B576-CF0B94E6C996";
shapes = (
{
closed = 1;
nodes = (
(493,295,l),
(505,370,l),
(125,370,l),
(113,295,l)
);
},
{
alignment = -1;
ref = T;
}
);
width = 600;
},
{
layerId = "EDF5EB54-295C-4C90-9A2F-67CD82979CFF";
shapes = (
{
closed = 1;
nodes = (
(486,310,l),
(493,355,l),
(133,355,l),
(126,310,l)
);
},
{
ref = T;
}
);
width = 600;
}
);
unicode = 358;
},
{
glyphname = Tcedilla;
layers = (
{
layerId = "9ADF6715-3D0F-493D-8567-18A6FBCFC567";
shapes = (
{
closed = 1;
nodes = (
(284,-225,ls),
(368,-225,o),
(431,-182,o),
(439,-133,cs),
(449,-72,o),
(372,-43,o),
(312,-39,c),
(331,0,l),
(267,16,l),
(218,-69,l),
(291,-69,o),
(331,-88,o),
(326,-119,cs),
(324,-135,o),
(298,-155,o),
(265,-155,cs),
(185,-155,l),
(174,-225,l)
);
},
{
alignment = -1;
ref = T;
}
);
width = 600;
},
{
layerId = "CCC0BD40-BA8C-414E-B576-CF0B94E6C996";
shapes = (
{
closed = 1;
nodes = (
(257,-203,ls),
(329,-203,o),
(383,-166,o),
(390,-120,cs),
(398,-68,o),
(335,-41,o),
(283,-35,c),
(301,0,l),
(257,26,l),
(207,-69,l),
(274,-69,o),
(309,-89,o),
(305,-112,cs),
(302,-130,o),
(280,-148,o),
(251,-148,cs),
(181,-148,l),
(172,-203,l)
);
},
{
alignment = -1;
ref = T;
}
);
width = 600;
},
{
layerId = "EDF5EB54-295C-4C90-9A2F-67CD82979CFF";
shapes = (
{
closed = 1;
nodes = (
(248,-195,ls),
(308,-195,o),
(353,-161,o),
(360,-118,cs),
(369,-61,o),
(310,-37,o),
(263,-34,c),
(282,0,l),
(254,26,l),
(205,-64,l),
(276,-64,o),
(319,-86,o),
(314,-118,cs),
(311,-140,o),
(286,-160,o),
(254,-160,cs),
(174,-160,l),
(168,-195,l)
);
},
{
alignment = -1;
ref = T;
}
);
width = 600;
}
);
unicode = 354;
},
{
glyphname = U;
layers = (
{
anchors = (
{
name = bottom;
pos = (256,0);
},
{
name = horn;
pos = (457,730);
},
{
name = ogonek;
pos = (305,0);
},
{
name = top;
pos = (372,730);
},
{
name = topright;
pos = (652,730);
}
);
layerId = "9ADF6715-3D0F-493D-8567-18A6FBCFC567";
shapes = (
{
closed = 1;
nodes = (
(402,-10,o),
(508,76,o),
(530,214,cs),
(612,730,l),
(462,730,l),
(380,215,ls),
(370,154,o),
(331,120,o),
(275,120,cs),
(218,120,o),
(190,154,o),
(200,215,cs),
(282,730,l),
(132,730,l),
(50,214,ls),
(28,75,o),
(106,-10,o),
(254,-10,cs)
);
}
);
width = 600;
},
{
anchors = (
{
name = bottom;
pos = (256,0);
},
{
name = horn;
pos = (457,730);
},
{
name = ogonek;
pos = (305,0);
},
{
name = top;
pos = (372,730);
},
{
name = topright;
pos = (652,730);
}
);
layerId = "CCC0BD40-BA8C-414E-B576-CF0B94E6C996";
shapes = (
{
closed = 1;
nodes = (
(391,-10,o),
(477,69,o),
(498,200,cs),
(582,730,l),
(492,730,l),
(408,200,ls),
(395,120,o),
(347,70,o),
(267,70,cs),
(186,70,o),
(155,120,o),
(168,200,cs),
(252,730,l),
(162,730,l),
(78,200,ls),
(57,70,o),
(118,-10,o),
(254,-10,cs)
);
}
);
width = 600;
},
{
anchors = (
{
name = bottom;
pos = (256,0);
},
{
name = horn;
pos = (464,730);
},
{
name = ogonek;
pos = (305,0);
},
{
name = top;
pos = (372,730);
},
{
name = topright;
pos = (652,730);
}
);
layerId = "EDF5EB54-295C-4C90-9A2F-67CD82979CFF";
shapes = (
{
closed = 1;
nodes = (
(371,-10,o),
(459,69,o),
(478,190,cs),
(564,730,l),
(514,730,l),
(428,190,ls),
(413,93,o),
(352,35,o),
(263,35,cs),
(173,35,o),
(129,92,o),
(144,190,cs),
(230,730,l),
(180,730,l),
(94,190,ls),
(75,69,o),
(138,-10,o),
(255,-10,cs)
);
}
);
width = 600;
}
);
unicode = 85;
},
{
glyphname = Uhorn;
layers = (
{
anchors = (
{
name = top;
pos = (372,730);
}
);
layerId = "9ADF6715-3D0F-493D-8567-18A6FBCFC567";
shapes = (
{
closed = 1;
nodes = (
(562,630,ls),
(649,630,o),
(715,684,o),
(728,765,cs),
(740,840,l),
(620,840,l),
(608,765,ls),
(605,743,o),
(590,730,o),
(568,730,cs),
(518,730,l),
(502,630,l)
);
},
{
alignment = -1;
ref = U;
}
);
width = 600;
},
{
anchors = (
{
name = top;
pos = (372,730);
}
);
layerId = "CCC0BD40-BA8C-414E-B576-CF0B94E6C996";
shapes = (
{
closed = 1;
nodes = (
(551,665,ls),
(615,665,o),
(662,702,o),
(671,760,cs),
(684,840,l),
(609,840,l),
(597,765,ls),
(594,744,o),
(578,730,o),
(557,730,cs),
(507,730,l),
(496,665,l)
);
},
{
ref = U;
}
);
width = 600;
},
{
anchors = (
{
name = top;
pos = (360,730);
}
);
layerId = "EDF5EB54-295C-4C90-9A2F-67CD82979CFF";
shapes = (
{
closed = 1;
nodes = (
(565,695,ls),
(616,695,o),
(655,729,o),
(663,780,cs),
(673,840,l),
(633,840,l),
(623,780,ls),
(618,750,o),
(598,730,o),
(571,730,cs),
(516,730,l),
(510,695,l)
);
},
{
alignment = -1;
ref = U;
}
);
width = 600;
}
);
unicode = 431;
},
{
glyphname = Uogonek;
layers = (
{
anchors = (
{
name = horn;
pos = (457,730);
},
{
name = top;
pos = (372,730);
}
);
layerId = "9ADF6715-3D0F-493D-8567-18A6FBCFC567";
shapes = (
{
closed = 1;
nodes = (
(382,-225,l),
(399,-120,l),
(330,-120,ls),
(301,-120,o),
(287,-103,o),
(290,-82,cs),
(293,-65,o),
(309,-38,o),
(339,-17,cs),
(393,21,l),
(463,58,o),
(516,127,o),
(529,210,cs),
(612,730,l),
(462,730,l),
(379,210,ls),
(370,152,o),
(335,120,o),
(275,120,cs),
(215,120,o),
(190,152,o),
(199,210,cs),
(282,730,l),
(132,730,l),
(49,210,ls),
(28,78,o),
(107,-10,o),
(254,-10,cs),
(287,-10,o),
(306,11,o),
(307,21,c),
(235,-9,o),
(168,-68,o),
(161,-115,cs),
(150,-180,o),
(193,-225,o),
(274,-225,cs)
);
}
);
width = 600;
},
{
anchors = (
{
name = horn;
pos = (457,730);
},
{
name = top;
pos = (372,730);
}
);
layerId = "CCC0BD40-BA8C-414E-B576-CF0B94E6C996";
shapes = (
{
closed = 1;
nodes = (
(381,-203,l),
(390,-143,l),
(330,-143,ls),
(296,-143,o),
(279,-122,o),
(283,-93,cs),
(288,-65,o),
(307,-36,o),
(357,1,cs),
(390,25,l),
(448,60,o),
(485,121,o),
(498,200,cs),
(582,730,l),
(492,730,l),
(408,200,ls),
(395,117,o),
(345,71,o),
(267,71,cs),
(189,71,o),
(155,117,o),
(168,200,cs),
(252,730,l),
(162,730,l),
(78,200,ls),
(57,69,o),
(123,-10,o),
(254,-10,cs),
(258,-10,o),
(263,-10,o),
(267,-10,c),
(226,-45,o),
(200,-82,o),
(196,-110,cs),
(187,-164,o),
(229,-203,o),
(303,-203,cs)
);
}
);
width = 600;
},
{
anchors = (
{
name = horn;
pos = (464,730);
},
{
name = top;
pos = (372,730);
}
);
layerId = "EDF5EB54-295C-4C90-9A2F-67CD82979CFF";
shapes = (
{
closed = 1;
nodes = (
(367,-195,l),
(374,-153,l),
(310,-153,ls),
(278,-153,o),
(262,-134,o),
(267,-103,cs),
(271,-75,o),
(300,-33,o),
(344,2,cs),
(355,10,l),
(422,45,o),
(465,105,o),
(478,190,cs),
(564,730,l),
(514,730,l),
(428,190,ls),
(412,91,o),
(353,34,o),
(261,34,cs),
(169,34,o),
(128,91,o),
(144,190,cs),
(230,730,l),
(180,730,l),
(94,190,ls),
(75,68,o),
(136,-10,o),
(254,-10,cs),
(265,-10,o),
(284,-9,o),
(295,-6,c),
(252,-39,o),
(223,-80,o),
(218,-115,cs),
(210,-165,o),
(239,-195,o),
(294,-195,cs)
);
}
);
width = 600;
}
);
unicode = 370;
},
{
glyphname = V;
layers = (
{
anchors = (
{
name = bottom;
pos = (256,0);
},
{
name = top;
pos = (372,730);
}
);
layerId = "9ADF6715-3D0F-493D-8567-18A6FBCFC567";
shapes = (
{
closed = 1;
nodes = (
(352,0,l),
(647,730,l),
(493,730,l),
(322,270,ls),
(310,237,o),
(292,178,o),
(282,144,c),
(281,178,o),
(279,237,o),
(277,269,cs),
(249,730,l),
(97,730,l),
(162,0,l)
);
}
);
width = 600;
},
{
anchors = (
{
name = bottom;
pos = (256,0);
},
{
name = top;
pos = (372,730);
}
);
layerId = "CCC0BD40-BA8C-414E-B576-CF0B94E6C996";
shapes = (
{
closed = 1;
nodes = (
(317,0,l),
(622,730,l),
(529,730,l),
(327,234,ls),
(299,165,o),
(277,100,o),
(268,70,c),
(268,100,o),
(264,165,o),
(258,234,cs),
(213,730,l),
(122,730,l),
(194,0,l)
);
}
);
width = 600;
},
{
anchors = (
{
name = bottom;
pos = (256,0);
},
{
name = top;
pos = (372,730);
}
);
layerId = "EDF5EB54-295C-4C90-9A2F-67CD82979CFF";
shapes = (
{
closed = 1;
nodes = (
(288,0,l),
(604,730,l),
(552,730,l),
(316,180,ls),
(291,122,o),
(271,66,o),
(262,40,c),
(261,66,o),
(259,122,o),
(252,180,cs),
(190,730,l),
(140,730,l),
(224,0,l)
);
}
);
width = 600;
}
);
unicode = 86;
},
{
glyphname = W;
layers = (
{
anchors = (
{
name = bottom;
pos = (256,0);
},
{
name = top;
pos = (372,730);
}
);
layerId = "9ADF6715-3D0F-493D-8567-18A6FBCFC567";
shapes = (
{
closed = 1;
nodes = (
(191,0,l),
(322,485,ls),
(331,519,o),
(347,594,o),
(357,640,c),
(353,594,o),
(347,519,o),
(345,485,cs),
(317,0,l),
(473,0,l),
(662,730,l),
(539,730,l),
(427,242,ls),
(421,213,o),
(406,144,o),
(398,100,c),
(400,144,o),
(404,213,o),
(405,242,cs),
(427,730,l),
(313,730,l),
(177,242,ls),
(170,213,o),
(153,144,o),
(142,100,c),
(148,144,o),
(155,213,o),
(157,242,cs),
(198,730,l),
(82,730,l),
(34,0,l)
);
}
);
width = 600;
},
{
anchors = (
{
name = bottom;
pos = (256,0);
},
{
name = top;
pos = (372,730);
}
);
layerId = "CCC0BD40-BA8C-414E-B576-CF0B94E6C996";
shapes = (
{
closed = 1;
nodes = (
(176,0,l),
(334,550,ls),
(347,595,o),
(357,643,o),
(364,667,c),
(362,643,o),
(357,595,o),
(355,550,cs),
(334,0,l),
(447,0,l),
(652,730,l),
(570,730,l),
(425,190,ls),
(413,146,o),
(401,93,o),
(394,65,c),
(396,93,o),
(398,146,o),
(400,190,cs),
(420,730,l),
(323,730,l),
(165,190,ls),
(152,146,o),
(140,93,o),
(132,65,c),
(136,93,o),
(141,146,o),
(143,190,cs),
(172,730,l),
(92,730,l),
(63,0,l)
);
}
);
width = 600;
},
{
anchors = (
{
name = bottom;
pos = (256,0);
},
{
name = top;
pos = (372,730);
}
);
layerId = "EDF5EB54-295C-4C90-9A2F-67CD82979CFF";
shapes = (
{
closed = 1;
nodes = (
(156,0,l),
(322,530,ls),
(338,582,o),
(356,652,o),
(368,690,c),
(367,651,o),
(363,581,o),
(362,530,cs),
(353,0,l),
(425,0,l),
(632,730,l),
(583,730,l),
(435,190,ls),
(425,154,o),
(404,80,o),
(391,35,c),
(392,79,o),
(395,153,o),
(396,190,cs),
(405,730,l),
(341,730,l),
(175,190,ls),
(164,154,o),
(144,80,o),
(131,35,c),
(133,80,o),
(137,154,o),
(138,190,cs),
(156,730,l),
(112,730,l),
(86,0,l)
);
}
);
width = 600;
}
);
unicode = 87;
},
{
glyphname = X;
layers = (
{
anchors = (
{
name = bottom;
pos = (256,0);
},
{
name = top;
pos = (372,730);
}
);
layerId = "9ADF6715-3D0F-493D-8567-18A6FBCFC567";
shapes = (
{
closed = 1;
nodes = (
(142,0,l),
(259,180,ls),
(278,209,o),
(291,237,o),
(297,250,c),
(300,237,o),
(307,209,o),
(317,180,cs),
(376,0,l),
(536,0,l),
(400,373,l),
(639,730,l),
(473,730,l),
(369,570,ls),
(350,541,o),
(339,515,o),
(334,504,c),
(333,515,o),
(324,540,o),
(315,570,cs),
(265,730,l),
(105,730,l),
(232,381,l),
(-24,0,l)
);
}
);
width = 600;
},
{
anchors = (
{
name = bottom;
pos = (256,0);
},
{
name = top;
pos = (372,730);
}
);
layerId = "CCC0BD40-BA8C-414E-B576-CF0B94E6C996";
shapes = (
{
closed = 1;
nodes = (
(100,0,l),
(262,233,ls),
(277,255,o),
(295,284,o),
(305,300,c),
(309,284,o),
(319,255,o),
(328,232,cs),
(417,0,l),
(516,0,l),
(367,374,l),
(621,730,l),
(518,730,l),
(369,514,ls),
(353,491,o),
(336,462,o),
(327,447,c),
(321,462,o),
(310,491,o),
(302,514,cs),
(223,730,l),
(123,730,l),
(264,372,l),
(-4,0,l)
);
}
);
width = 600;
},
{
anchors = (
{
name = bottom;
pos = (256,0);
},
{
name = top;
pos = (372,730);
}
);
layerId = "EDF5EB54-295C-4C90-9A2F-67CD82979CFF";
shapes = (
{
closed = 1;
nodes = (
(66,0,l),
(246,252,ls),
(261,273,o),
(292,316,o),
(313,344,c),
(324,316,o),
(345,273,o),
(353,252,cs),
(449,0,l),
(503,0,l),
(346,381,l),
(604,730,l),
(548,730,l),
(388,508,ls),
(372,485,o),
(340,442,o),
(321,416,c),
(309,443,o),
(289,485,o),
(280,508,cs),
(194,730,l),
(140,730,l),
(287,381,l),
(9,0,l)
);
}
);
width = 600;
}
);
unicode = 88;
},
{
glyphname = Y;
layers = (
{
anchors = (
{
name = bottom;
pos = (256,0);
},
{
name = top;
pos = (372,730);
},
{
name = topleft;
pos = (92,730);
}
);
layerId = "9ADF6715-3D0F-493D-8567-18A6FBCFC567";
shapes = (
{
closed = 1;
nodes = (
(331,0,l),
(372,260,l),
(657,730,l),
(496,730,l),
(372,510,ls),
(347,466,o),
(325,410,o),
(314,380,c),
(313,410,o),
(307,466,o),
(296,510,cs),
(239,730,l),
(87,730,l),
(222,260,l),
(181,0,l)
);
}
);
width = 600;
},
{
anchors = (
{
name = bottom;
pos = (256,0);
},
{
name = top;
pos = (372,730);
},
{
name = topleft;
pos = (92,730);
}
);
layerId = "CCC0BD40-BA8C-414E-B576-CF0B94E6C996";
shapes = (
{
closed = 1;
nodes = (
(301,0,l),
(344,273,l),
(637,730,l),
(540,730,l),
(350,430,ls),
(329,397,o),
(315,372,o),
(310,362,c),
(309,372,o),
(304,397,o),
(293,430,cs),
(199,730,l),
(107,730,l),
(254,273,l),
(211,0,l)
);
}
);
width = 600;
},
{
anchors = (
{
name = bottom;
pos = (256,0);
},
{
name = top;
pos = (372,730);
},
{
name = topleft;
pos = (92,730);
}
);
layerId = "EDF5EB54-295C-4C90-9A2F-67CD82979CFF";
shapes = (
{
closed = 1;
nodes = (
(281,0,l),
(325,280,l),
(622,730,l),
(568,730,l),
(350,400,ls),
(331,370,o),
(315,342,o),
(307,330,c),
(303,343,o),
(295,371,o),
(285,400,cs),
(173,730,l),
(122,730,l),
(275,280,l),
(231,0,l)
);
}
);
width = 600;
}
);
unicode = 89;
},
{
glyphname = Z;
layers = (
{
anchors = (
{
name = bottom;
pos = (256,0);
},
{
name = center;
pos = (314,365);
},
{
name = top;
pos = (372,730);
}
);
layerId = "9ADF6715-3D0F-493D-8567-18A6FBCFC567";
shapes = (
{
closed = 1;
nodes = (
(481,0,l),
(503,140,l),
(228,140,l),
(563,590,l),
(586,730,l),
(155,730,l),
(132,590,l),
(388,590,l),
(54,140,l),
(32,0,l)
);
}
);
width = 600;
},
{
anchors = (
{
name = bottom;
pos = (256,0);
},
{
name = center;
pos = (314,365);
},
{
name = top;
pos = (372,730);
}
);
layerId = "CCC0BD40-BA8C-414E-B576-CF0B94E6C996";
shapes = (
{
closed = 1;
nodes = (
(471,0,l),
(484,82,l),
(148,82,l),
(562,640,l),
(577,730,l),
(162,730,l),
(149,648,l),
(470,648,l),
(55,90,l),
(41,0,l)
);
}
);
width = 600;
},
{
anchors = (
{
name = bottom;
pos = (256,0);
},
{
name = center;
pos = (314,365);
},
{
name = top;
pos = (372,730);
}
);
layerId = "EDF5EB54-295C-4C90-9A2F-67CD82979CFF";
shapes = (
{
closed = 1;
nodes = (
(464,0,l),
(471,46,l),
(108,46,l),
(558,673,l),
(567,730,l),
(167,730,l),
(159,684,l),
(508,684,l),
(55,50,l),
(47,0,l)
);
}
);
width = 600;
}
);
unicode = 90;
},
{
glyphname = W.cv07;
layers = (
{
anchors = (
{
name = bottom;
pos = (256,0);
},
{
name = top;
pos = (372,730);
}
);
layerId = "9ADF6715-3D0F-493D-8567-18A6FBCFC567";
shapes = (
{
closed = 1;
nodes = (
(185,0,l),
(333,485,l),
(323,0,l),
(483,0,l),
(662,730,l),
(538,730,l),
(434,242,ls),
(428,215,o),
(413,134,o),
(404,90,c),
(408,134,o),
(412,213,o),
(412,242,cs),
(413,605,l),
(289,605,l),
(168,242,ls),
(159,215,o),
(143,144,o),
(132,100,c),
(138,144,o),
(145,215,o),
(148,242,cs),
(197,730,l),
(82,730,l),
(24,0,l)
);
}
);
width = 600;
},
{
anchors = (
{
name = bottom;
pos = (256,0);
},
{
name = top;
pos = (372,730);
}
);
layerId = "CCC0BD40-BA8C-414E-B576-CF0B94E6C996";
shapes = (
{
closed = 1;
nodes = (
(169,0,l),
(337,500,l),
(341,0,l),
(456,0,l),
(647,730,l),
(565,730,l),
(429,190,ls),
(418,146,o),
(407,103,o),
(402,75,c),
(404,103,o),
(406,144,o),
(406,190,cs),
(402,590,l),
(300,590,l),
(159,190,ls),
(143,145,o),
(134,103,o),
(128,75,c),
(131,103,o),
(136,146,o),
(139,190,cs),
(177,730,l),
(97,730,l),
(54,0,l)
);
}
);
width = 600;
},
{
anchors = (
{
name = bottom;
pos = (256,0);
},
{
name = top;
pos = (372,730);
}
);
layerId = "EDF5EB54-295C-4C90-9A2F-67CD82979CFF";
shapes = (
{
closed = 1;
nodes = (
(146,0,l),
(343,530,l),
(363,0,l),
(435,0,l),
(632,730,l),
(579,730,l),
(441,190,ls),
(432,154,o),
(411,83,o),
(401,38,c),
(404,82,o),
(402,152,o),
(400,190,cs),
(379,575,l),
(317,575,l),
(171,190,ls),
(158,155,o),
(137,82,o),
(125,38,c),
(129,83,o),
(130,154,o),
(132,190,cs),
(160,730,l),
(112,730,l),
(78,0,l)
);
}
);
width = 600;
}
);
},
{
glyphname = K.cv08;
layers = (
{
anchors = (
{
name = bottom;
pos = (256,0);
},
{
name = top;
pos = (372,730);
}
);
layerId = "9ADF6715-3D0F-493D-8567-18A6FBCFC567";
shapes = (
{
closed = 1;
nodes = (
(531,0,l),
(399,376,l),
(637,730,l),
(469,730,l),
(242,380,l),
(368,0,l)
);
},
{
closed = 1;
nodes = (
(172,0,l),
(288,730,l),
(138,730,l),
(22,0,l)
);
}
);
width = 600;
},
{
anchors = (
{
name = bottom;
pos = (256,0);
},
{
name = top;
pos = (372,730);
}
);
layerId = "CCC0BD40-BA8C-414E-B576-CF0B94E6C996";
shapes = (
{
closed = 1;
nodes = (
(516,0,l),
(321,376,l),
(622,730,l),
(512,730,l),
(214,380,l),
(410,0,l)
);
},
{
closed = 1;
nodes = (
(139,0,l),
(255,730,l),
(165,730,l),
(49,0,l)
);
}
);
width = 600;
},
{
anchors = (
{
name = bottom;
pos = (256,0);
},
{
name = top;
pos = (372,730);
}
);
layerId = "EDF5EB54-295C-4C90-9A2F-67CD82979CFF";
shapes = (
{
closed = 1;
nodes = (
(496,0,l),
(249,377,l),
(596,730,l),
(532,730,l),
(188,381,l),
(437,0,l)
);
},
{
closed = 1;
nodes = (
(116,0,l),
(232,730,l),
(182,730,l),
(66,0,l)
);
}
);
width = 600;
}
);
},
{
glyphname = Q.cv16;
layers = (
{
anchors = (
{
name = bottom;
pos = (256,0);
},
{
name = top;
pos = (372,730);
}
);
layerId = "9ADF6715-3D0F-493D-8567-18A6FBCFC567";
shapes = (
{
closed = 1;
nodes = (
(457,-180,l),
(476,-65,l),
(346,-65,ls),
(318,-65,o),
(303,-50,o),
(308,-22,cs),
(322,71,l),
(192,71,l),
(176,-34,ls),
(161,-127,o),
(210,-180,o),
(312,-180,cs)
);
},
{
ref = O;
}
);
width = 600;
},
{
anchors = (
{
name = bottom;
pos = (256,0);
},
{
name = top;
pos = (372,730);
}
);
layerId = "CCC0BD40-BA8C-414E-B576-CF0B94E6C996";
shapes = (
{
closed = 1;
nodes = (
(432,-180,l),
(445,-98,l),
(335,-98,ls),
(299,-98,o),
(279,-73,o),
(285,-35,cs),
(299,48,l),
(209,48,l),
(195,-35,ls),
(182,-123,o),
(231,-180,o),
(322,-180,cs)
);
},
{
ref = O;
}
);
width = 600;
},
{
anchors = (
{
name = bottom;
pos = (256,0);
},
{
name = top;
pos = (372,730);
}
);
layerId = "EDF5EB54-295C-4C90-9A2F-67CD82979CFF";
shapes = (
{
closed = 1;
nodes = (
(417,-180,l),
(425,-135,l),
(335,-135,ls),
(283,-135,o),
(259,-107,o),
(267,-55,cs),
(280,25,l),
(230,25,l),
(217,-55,ls),
(204,-136,o),
(243,-180,o),
(327,-180,cs)
);
},
{
ref = O;
}
);
width = 600;
}
);
},
{
export = 0;
glyphname = A.half;
layers = (
{
layerId = "EDF5EB54-295C-4C90-9A2F-67CD82979CFF";
shapes = (
{
closed = 1;
nodes = (
(285,0,l),
(330,0,l),
(230,335,l),
(188,335,l),
(-18,0,l),
(32,0,l),
(156,206,ls),
(183,252,o),
(195,276,o),
(203,297,c),
(205,276,o),
(212,251,o),
(225,206,cs)
);
},
{
closed = 1;
nodes = (
(63,75,l),
(271,75,l),
(277,114,l),
(69,114,l)
);
}
);
width = 400;
},
{
layerId = "9ADF6715-3D0F-493D-8567-18A6FBCFC567";
shapes = (
{
closed = 1;
nodes = (
(265,0,l),
(351,0,l),
(256,335,l),
(162,335,l),
(-39,0,l),
(54,0,l),
(173,206,ls),
(187,231,o),
(195,252,o),
(201,270,c),
(201,252,o),
(202,232,o),
(209,206,cs)
);
},
{
closed = 1;
nodes = (
(71,60,l),
(259,60,l),
(270,134,l),
(82,134,l)
);
}
);
width = 400;
},
{
layerId = "CCC0BD40-BA8C-414E-B576-CF0B94E6C996";
shapes = (
{
closed = 1;
nodes = (
(274,0,l),
(341,0,l),
(246,335,l),
(172,335,l),
(-29,0,l),
(43,0,l),
(162,206,ls),
(176,231,o),
(195,262,o),
(201,280,c),
(201,262,o),
(211,231,o),
(218,206,cs)
);
},
{
closed = 1;
nodes = (
(71,65,l),
(259,65,l),
(269,124,l),
(81,124,l)
);
}
);
width = 400;
}
);
},
{
export = 0;
glyphname = B.half;
layers = (
{
layerId = "9ADF6715-3D0F-493D-8567-18A6FBCFC567";
shapes = (
{
closed = 1;
nodes = (
(210,0,ls),
(279,0,o),
(342,38,o),
(351,93,cs),
(359,146,o),
(318,181,o),
(245,179,c),
(244,168,l),
(305,166,o),
(351,200,o),
(359,251,cs),
(367,301,o),
(316,335,o),
(248,335,cs),
(44,335,l),
(-9,0,l)
);
},
{
closed = 1;
nodes = (
(99,137,l),
(219,137,ls),
(250,137,o),
(269,125,o),
(265,100,cs),
(261,75,o),
(238,66,o),
(207,66,cs),
(87,66,l)
);
},
{
closed = 1;
nodes = (
(120,269,l),
(230,269,ls),
(257,269,o),
(273,260,o),
(269,235,cs),
(265,210,o),
(245,199,o),
(218,199,cs),
(109,199,l)
);
}
);
width = 400;
},
{
layerId = "CCC0BD40-BA8C-414E-B576-CF0B94E6C996";
shapes = (
{
closed = 1;
nodes = (
(210,0,ls),
(279,0,o),
(332,38,o),
(341,93,cs),
(349,146,o),
(308,181,o),
(235,179,c),
(234,168,l),
(295,166,o),
(341,200,o),
(349,251,cs),
(357,301,o),
(316,335,o),
(248,335,cs),
(54,335,l),
(1,0,l)
);
},
{
closed = 1;
nodes = (
(90,144,l),
(230,144,ls),
(261,144,o),
(279,127,o),
(275,102,cs),
(271,77,o),
(247,58,o),
(216,58,cs),
(76,58,l)
);
},
{
closed = 1;
nodes = (
(111,277,l),
(241,277,ls),
(268,277,o),
(283,258,o),
(279,233,cs),
(275,208,o),
(253,191,o),
(226,191,cs),
(97,191,l)
);
}
);
width = 400;
},
{
layerId = "EDF5EB54-295C-4C90-9A2F-67CD82979CFF";
shapes = (
{
closed = 1;
nodes = (
(211,0,ls),
(271,0,o),
(318,38,o),
(327,93,cs),
(335,146,o),
(299,181,o),
(238,179,c),
(237,168,l),
(286,166,o),
(327,199,o),
(334,249,cs),
(343,300,o),
(308,335,o),
(249,335,cs),
(67,335,l),
(14,0,l)
);
},
{
closed = 1;
nodes = (
(83,148,l),
(231,148,ls),
(266,148,o),
(287,126,o),
(282,94,cs),
(277,61,o),
(249,39,o),
(214,39,cs),
(66,39,l)
);
},
{
closed = 1;
nodes = (
(107,296,l),
(245,296,ls),
(276,296,o),
(293,274,o),
(288,242,cs),
(283,209,o),
(258,187,o),
(227,187,cs),
(90,187,l)
);
}
);
width = 400;
}
);
},
{
export = 0;
glyphname = C.half;
layers = (
{
layerId = "9ADF6715-3D0F-493D-8567-18A6FBCFC567";
shapes = (
{
closed = 1;
nodes = (
(254,-5,o),
(322,45,o),
(353,118,c),
(265,118,l),
(249,91,o),
(214,73,o),
(175,73,cs),
(123,73,o),
(91,104,o),
(91,151,cs),
(91,210,o),
(139,262,o),
(204,262,cs),
(243,262,o),
(274,244,o),
(280,217,c),
(368,217,l),
(361,290,o),
(309,340,o),
(217,340,cs),
(96,340,o),
(2,252,o),
(2,137,cs),
(2,51,o),
(63,-5,o),
(162,-5,cs)
);
}
);
width = 400;
},
{
layerId = "EDF5EB54-295C-4C90-9A2F-67CD82979CFF";
shapes = (
{
closed = 1;
nodes = (
(246,-5,o),
(311,36,o),
(335,102,c),
(289,102,l),
(271,62,o),
(228,33,o),
(173,33,cs),
(112,33,o),
(72,76,o),
(72,141,cs),
(72,225,o),
(134,302,o),
(216,302,cs),
(271,302,o),
(304,273,o),
(310,233,c),
(356,233,l),
(352,299,o),
(297,340,o),
(222,340,cs),
(92,340,o),
(24,235,o),
(24,134,cs),
(24,50,o),
(80,-5,o),
(167,-5,cs)
);
}
);
width = 400;
},
{
layerId = "CCC0BD40-BA8C-414E-B576-CF0B94E6C996";
shapes = (
{
closed = 1;
nodes = (
(238,-5,o),
(311,41,o),
(343,107,c),
(275,107,l),
(255,75,o),
(212,53,o),
(171,53,cs),
(117,53,o),
(80,91,o),
(80,146,cs),
(80,222,o),
(141,282,o),
(208,282,cs),
(249,282,o),
(284,260,o),
(294,228,c),
(362,228,l),
(352,294,o),
(293,340,o),
(217,340,cs),
(106,340,o),
(12,248,o),
(12,139,cs),
(12,55,o),
(72,-5,o),
(162,-5,cs)
);
}
);
width = 400;
}
);
},
{
export = 0;
glyphname = D.half;
layers = (
{
layerId = "9ADF6715-3D0F-493D-8567-18A6FBCFC567";
shapes = (
{
closed = 1;
nodes = (
(151,0,ls),
(261,0,o),
(347,68,o),
(362,167,cs),
(378,267,o),
(314,335,o),
(204,335,cs),
(44,335,l),
(-9,0,l)
);
},
{
closed = 1;
nodes = (
(118,257,l),
(192,257,ls),
(250,257,o),
(283,220,o),
(274,167,cs),
(266,114,o),
(221,77,o),
(163,77,cs),
(89,77,l)
);
}
);
width = 400;
},
{
layerId = "CCC0BD40-BA8C-414E-B576-CF0B94E6C996";
shapes = (
{
closed = 1;
nodes = (
(151,0,ls),
(251,0,o),
(337,69,o),
(352,167,cs),
(368,266,o),
(304,335,o),
(204,335,cs),
(54,335,l),
(1,0,l)
);
},
{
closed = 1;
nodes = (
(111,277,l),
(195,277,ls),
(255,277,o),
(295,232,o),
(284,167,cs),
(274,102,o),
(220,57,o),
(160,57,cs),
(76,57,l)
);
}
);
width = 400;
},
{
layerId = "EDF5EB54-295C-4C90-9A2F-67CD82979CFF";
shapes = (
{
closed = 1;
nodes = (
(145,0,ls),
(272,0,o),
(340,99,o),
(340,199,cs),
(340,281,o),
(285,335,o),
(198,335,cs),
(73,335,l),
(20,0,l)
);
},
{
closed = 1;
nodes = (
(113,297,l),
(192,297,ls),
(253,297,o),
(292,256,o),
(292,194,cs),
(292,102,o),
(228,38,o),
(151,38,cs),
(72,38,l)
);
}
);
width = 400;
}
);
},
{
export = 0;
glyphname = E.half;
layers = (
{
layerId = "9ADF6715-3D0F-493D-8567-18A6FBCFC567";
shapes = (
{
closed = 1;
nodes = (
(101,70,l),
(112,138,l),
(304,138,l),
(313,197,l),
(121,197,l),
(132,265,l),
(354,265,l),
(365,335,l),
(57,335,l),
(4,0,l),
(312,0,l),
(323,70,l)
);
}
);
width = 400;
},
{
layerId = "CCC0BD40-BA8C-414E-B576-CF0B94E6C996";
shapes = (
{
closed = 1;
nodes = (
(83,58,l),
(97,144,l),
(299,144,l),
(306,191,l),
(104,191,l),
(118,277,l),
(350,277,l),
(359,335,l),
(61,335,l),
(8,0,l),
(306,0,l),
(315,58,l)
);
}
);
width = 400;
},
{
layerId = "EDF5EB54-295C-4C90-9A2F-67CD82979CFF";
shapes = (
{
closed = 1;
nodes = (
(77,38,l),
(95,149,l),
(292,149,l),
(297,186,l),
(100,186,l),
(118,297,l),
(345,297,l),
(351,335,l),
(79,335,l),
(26,0,l),
(298,0,l),
(304,38,l)
);
}
);
width = 400;
}
);
},
{
export = 0;
glyphname = F.half;
layers = (
{
layerId = "9ADF6715-3D0F-493D-8567-18A6FBCFC567";
shapes = (
{
closed = 1;
nodes = (
(90,0,l),
(108,112,l),
(300,112,l),
(312,192,l),
(120,192,l),
(130,255,l),
(352,255,l),
(365,335,l),
(57,335,l),
(4,0,l)
);
}
);
width = 400;
},
{
layerId = "CCC0BD40-BA8C-414E-B576-CF0B94E6C996";
shapes = (
{
closed = 1;
nodes = (
(84,0,l),
(105,133,l),
(307,133,l),
(316,191,l),
(114,191,l),
(128,277,l),
(360,277,l),
(369,335,l),
(71,335,l),
(18,0,l)
);
}
);
width = 400;
},
{
layerId = "EDF5EB54-295C-4C90-9A2F-67CD82979CFF";
shapes = (
{
closed = 1;
nodes = (
(81,0,l),
(104,143,l),
(301,143,l),
(307,181,l),
(110,181,l),
(128,297,l),
(355,297,l),
(361,335,l),
(89,335,l),
(36,0,l)
);
}
);
width = 400;
}
);
},
{
export = 0;
glyphname = G.half;
layers = (
{
layerId = "9ADF6715-3D0F-493D-8567-18A6FBCFC567";
shapes = (
{
closed = 1;
nodes = (
(263,-5,o),
(351,69,o),
(366,167,cs),
(369,181,l),
(192,181,l),
(181,114,l),
(263,114,l),
(244,87,o),
(209,73,o),
(175,73,cs),
(120,73,o),
(84,113,o),
(92,167,cs),
(101,221,o),
(149,262,o),
(204,262,cs),
(239,262,o),
(272,251,o),
(284,234,c),
(372,234,l),
(361,295,o),
(294,340,o),
(217,340,cs),
(111,340,o),
(20,266,o),
(4,167,cs),
(-11,69,o),
(56,-5,o),
(162,-5,cs)
);
}
);
width = 400;
},
{
layerId = "CCC0BD40-BA8C-414E-B576-CF0B94E6C996";
shapes = (
{
closed = 1;
nodes = (
(257,-5,o),
(340,65,o),
(356,167,cs),
(359,181,l),
(192,181,l),
(183,124,l),
(282,124,l),
(256,72,o),
(214,53,o),
(171,53,cs),
(117,53,o),
(80,91,o),
(80,146,cs),
(80,222,o),
(141,282,o),
(208,282,cs),
(249,282,o),
(283,260,o),
(294,234,c),
(362,234,l),
(351,294,o),
(293,340,o),
(217,340,cs),
(106,340,o),
(12,248,o),
(12,139,cs),
(12,55,o),
(72,-5,o),
(162,-5,cs)
);
}
);
width = 400;
},
{
layerId = "EDF5EB54-295C-4C90-9A2F-67CD82979CFF";
shapes = (
{
closed = 1;
nodes = (
(261,-5,o),
(336,61,o),
(351,167,cs),
(353,181,l),
(191,181,l),
(185,143,l),
(299,143,l),
(282,76,o),
(229,33,o),
(167,33,cs),
(105,33,o),
(66,76,o),
(66,140,cs),
(66,222,o),
(125,302,o),
(210,302,cs),
(265,302,o),
(298,273,o),
(305,241,c),
(351,241,l),
(346,299,o),
(291,340,o),
(216,340,cs),
(86,340,o),
(18,235,o),
(18,134,cs),
(18,50,o),
(74,-5,o),
(161,-5,cs)
);
}
);
width = 400;
}
);
},
{
export = 0;
glyphname = H.half;
layers = (
{
layerId = "9ADF6715-3D0F-493D-8567-18A6FBCFC567";
shapes = (
{
closed = 1;
nodes = (
(77,0,l),
(98,133,l),
(256,133,l),
(235,0,l),
(321,0,l),
(374,335,l),
(288,335,l),
(269,213,l),
(111,213,l),
(130,335,l),
(44,335,l),
(-9,0,l)
);
}
);
width = 400;
},
{
layerId = "CCC0BD40-BA8C-414E-B576-CF0B94E6C996";
shapes = (
{
closed = 1;
nodes = (
(67,0,l),
(90,143,l),
(268,143,l),
(245,0,l),
(311,0,l),
(364,335,l),
(298,335,l),
(277,203,l),
(99,203,l),
(120,335,l),
(54,335,l),
(1,0,l)
);
}
);
width = 400;
},
{
layerId = "EDF5EB54-295C-4C90-9A2F-67CD82979CFF";
shapes = (
{
closed = 1;
nodes = (
(57,0,l),
(81,154,l),
(279,154,l),
(255,0,l),
(301,0,l),
(354,335,l),
(308,335,l),
(285,192,l),
(87,192,l),
(110,335,l),
(64,335,l),
(11,0,l)
);
}
);
width = 400;
}
);
},
{
export = 0;
glyphname = I.half;
layers = (
{
layerId = "9ADF6715-3D0F-493D-8567-18A6FBCFC567";
shapes = (
{
closed = 1;
nodes = (
(314,0,l),
(326,78,l),
(211,78,l),
(240,257,l),
(355,257,l),
(367,335,l),
(51,335,l),
(39,257,l),
(154,257,l),
(125,78,l),
(10,78,l),
(-2,0,l)
);
}
);
width = 400;
},
{
layerId = "CCC0BD40-BA8C-414E-B576-CF0B94E6C996";
shapes = (
{
closed = 1;
nodes = (
(314,0,l),
(324,60,l),
(199,60,l),
(233,275,l),
(358,275,l),
(367,335,l),
(51,335,l),
(42,275,l),
(167,275,l),
(133,60,l),
(8,60,l),
(-2,0,l)
);
}
);
width = 400;
},
{
layerId = "EDF5EB54-295C-4C90-9A2F-67CD82979CFF";
shapes = (
{
closed = 1;
nodes = (
(304,0,l),
(310,38,l),
(185,38,l),
(226,297,l),
(351,297,l),
(357,335,l),
(61,335,l),
(55,297,l),
(180,297,l),
(139,38,l),
(14,38,l),
(8,0,l)
);
}
);
width = 400;
}
);
},
{
export = 0;
glyphname = K.half;
layers = (
{
layerId = "9ADF6715-3D0F-493D-8567-18A6FBCFC567";
shapes = (
{
closed = 1;
nodes = (
(77,0,l),
(98,133,l),
(166,133,l),
(242,0,l),
(336,0,l),
(238,172,l),
(379,335,l),
(279,335,l),
(171,211,l),
(110,211,l),
(130,335,l),
(44,335,l),
(-9,0,l)
);
}
);
width = 400;
},
{
layerId = "CCC0BD40-BA8C-414E-B576-CF0B94E6C996";
shapes = (
{
closed = 1;
nodes = (
(67,0,l),
(90,143,l),
(172,143,l),
(251,0,l),
(326,0,l),
(232,170,l),
(369,335,l),
(292,335,l),
(175,201,l),
(99,201,l),
(120,335,l),
(54,335,l),
(1,0,l)
);
}
);
width = 400;
},
{
layerId = "EDF5EB54-295C-4C90-9A2F-67CD82979CFF";
shapes = (
{
closed = 1;
nodes = (
(57,0,l),
(81,153,l),
(171,153,l),
(262,0,l),
(316,0,l),
(214,172,l),
(359,335,l),
(305,335,l),
(174,191,l),
(87,191,l),
(110,335,l),
(64,335,l),
(11,0,l)
);
}
);
width = 400;
}
);
},
{
export = 0;
glyphname = L.half;
layers = (
{
anchors = (
{
name = topright;
pos = (652,730);
}
);
layerId = "9ADF6715-3D0F-493D-8567-18A6FBCFC567";
shapes = (
{
closed = 1;
nodes = (
(326,0,l),
(339,80,l),
(127,80,l),
(167,335,l),
(81,335,l),
(28,0,l)
);
}
);
width = 400;
},
{
anchors = (
{
name = topright;
pos = (652,730);
}
);
layerId = "CCC0BD40-BA8C-414E-B576-CF0B94E6C996";
shapes = (
{
closed = 1;
nodes = (
(326,0,l),
(336,60,l),
(114,60,l),
(157,335,l),
(91,335,l),
(38,0,l)
);
}
);
width = 400;
},
{
anchors = (
{
name = topright;
pos = (652,730);
}
);
layerId = "EDF5EB54-295C-4C90-9A2F-67CD82979CFF";
shapes = (
{
closed = 1;
nodes = (
(316,0,l),
(322,40,l),
(100,40,l),
(147,335,l),
(101,335,l),
(48,0,l)
);
}
);
width = 400;
}
);
},
{
export = 0;
glyphname = M.half;
layers = (
{
layerId = "CCC0BD40-BA8C-414E-B576-CF0B94E6C996";
shapes = (
{
closed = 1;
nodes = (
(51,0,l),
(66,95,ls),
(82,198,o),
(84,244,o),
(82,295,c),
(138,96,l),
(205,96,l),
(323,298,l),
(301,247,o),
(291,185,o),
(277,95,cs),
(262,0,l),
(326,0,l),
(379,335,l),
(286,335,l),
(214,213,ls),
(195,180,o),
(185,168,o),
(178,145,c),
(176,168,o),
(172,181,o),
(163,212,cs),
(127,335,l),
(39,335,l),
(-14,0,l)
);
}
);
width = 400;
},
{
layerId = "EDF5EB54-295C-4C90-9A2F-67CD82979CFF";
shapes = (
{
closed = 1;
nodes = (
(41,0,l),
(56,95,ls),
(72,198,o),
(81,252,o),
(78,303,c),
(151,96,l),
(190,96,l),
(330,306,l),
(312,255,o),
(301,185,o),
(287,95,cs),
(272,0,l),
(316,0,l),
(369,335,l),
(307,335,l),
(205,183,ls),
(184,153,o),
(182,144,o),
(176,131,c),
(174,144,o),
(171,153,o),
(161,182,cs),
(108,335,l),
(49,335,l),
(-4,0,l)
);
}
);
width = 400;
},
{
layerId = "9ADF6715-3D0F-493D-8567-18A6FBCFC567";
shapes = (
{
closed = 1;
nodes = (
(56,0,l),
(71,95,ls),
(87,198,o),
(93,235,o),
(91,286,c),
(129,96,l),
(215,96,l),
(311,289,l),
(294,238,o),
(285,185,o),
(271,95,cs),
(256,0,l),
(336,0,l),
(389,335,l),
(263,335,l),
(203,213,ls),
(187,180,o),
(184,169,o),
(180,153,c),
(180,169,o),
(180,180,o),
(174,212,cs),
(150,335,l),
(29,335,l),
(-24,0,l)
);
}
);
width = 400;
}
);
},
{
export = 0;
glyphname = N.half;
layers = (
{
layerId = "9ADF6715-3D0F-493D-8567-18A6FBCFC567";
shapes = (
{
closed = 1;
nodes = (
(76,0,l),
(94,115,ls),
(105,188,o),
(103,207,o),
(101,258,c),
(213,0,l),
(321,0,l),
(374,335,l),
(289,335,l),
(272,230,ls),
(260,157,o),
(262,127,o),
(264,77,c),
(153,335,l),
(44,335,l),
(-9,0,l)
);
}
);
width = 400;
},
{
layerId = "CCC0BD40-BA8C-414E-B576-CF0B94E6C996";
shapes = (
{
closed = 1;
nodes = (
(66,0,l),
(83,105,ls),
(98,195,o),
(98,212,o),
(96,268,c),
(233,0,l),
(311,0,l),
(364,335,l),
(299,335,l),
(282,230,ls),
(268,141,o),
(267,126,o),
(269,67,c),
(132,335,l),
(54,335,l),
(1,0,l)
);
}
);
width = 400;
},
{
layerId = "EDF5EB54-295C-4C90-9A2F-67CD82979CFF";
shapes = (
{
closed = 1;
nodes = (
(56,0,l),
(74,115,ls),
(90,218,o),
(95,247,o),
(92,298,c),
(248,0,l),
(301,0,l),
(354,335,l),
(309,335,l),
(292,230,ls),
(275,127,o),
(270,87,o),
(273,37,c),
(117,335,l),
(64,335,l),
(11,0,l)
);
}
);
width = 400;
}
);
},
{
export = 0;
glyphname = O.half;
layers = (
{
layerId = "EDF5EB54-295C-4C90-9A2F-67CD82979CFF";
shapes = (
{
closed = 1;
nodes = (
(269,-5,o),
(353,89,o),
(353,198,cs),
(353,281,o),
(296,340,o),
(211,340,cs),
(102,340,o),
(14,251,o),
(14,138,cs),
(14,55,o),
(71,-5,o),
(156,-5,cs)
);
},
{
closed = 1;
nodes = (
(101,33,o),
(61,78,o),
(61,141,cs),
(61,224,o),
(125,302,o),
(205,302,cs),
(266,302,o),
(305,257,o),
(305,194,cs),
(305,104,o),
(239,33,o),
(162,33,cs)
);
}
);
width = 400;
},
{
layerId = "CCC0BD40-BA8C-414E-B576-CF0B94E6C996";
shapes = (
{
closed = 1;
nodes = (
(267,-5,o),
(359,87,o),
(359,197,cs),
(359,281,o),
(300,340,o),
(210,340,cs),
(99,340,o),
(5,248,o),
(5,139,cs),
(5,55,o),
(65,-5,o),
(155,-5,cs)
);
},
{
closed = 1;
nodes = (
(110,53,o),
(73,92,o),
(73,147,cs),
(73,217,o),
(132,282,o),
(201,282,cs),
(254,282,o),
(291,243,o),
(291,189,cs),
(291,113,o),
(230,53,o),
(164,53,cs)
);
}
);
width = 400;
},
{
layerId = "9ADF6715-3D0F-493D-8567-18A6FBCFC567";
shapes = (
{
closed = 1;
nodes = (
(270,-5,o),
(367,84,o),
(367,196,cs),
(367,280,o),
(304,340,o),
(210,340,cs),
(96,340,o),
(-4,251,o),
(-4,140,cs),
(-4,56,o),
(60,-5,o),
(155,-5,cs)
);
},
{
closed = 1;
nodes = (
(118,73,o),
(85,106,o),
(85,152,cs),
(85,213,o),
(137,262,o),
(197,262,cs),
(245,262,o),
(278,229,o),
(278,184,cs),
(278,122,o),
(228,73,o),
(168,73,cs)
);
}
);
width = 400;
}
);
},
{
export = 0;
glyphname = P.half;
layers = (
{
layerId = "9ADF6715-3D0F-493D-8567-18A6FBCFC567";
shapes = (
{
closed = 1;
nodes = (
(87,0,l),
(104,107,l),
(209,107,ls),
(294,107,o),
(360,153,o),
(371,220,cs),
(382,288,o),
(330,335,o),
(245,335,cs),
(54,335,l),
(1,0,l)
);
},
{
closed = 1;
nodes = (
(129,267,l),
(236,267,ls),
(269,267,o),
(288,248,o),
(284,220,cs),
(280,193,o),
(254,175,o),
(221,175,cs),
(115,175,l)
);
}
);
width = 400;
},
{
layerId = "CCC0BD40-BA8C-414E-B576-CF0B94E6C996";
shapes = (
{
closed = 1;
nodes = (
(77,0,l),
(96,117,l),
(221,117,ls),
(295,117,o),
(352,163,o),
(362,225,cs),
(372,288,o),
(329,335,o),
(255,335,cs),
(64,335,l),
(11,0,l)
);
},
{
closed = 1;
nodes = (
(121,277,l),
(248,277,ls),
(281,277,o),
(299,254,o),
(295,225,cs),
(290,197,o),
(264,175,o),
(231,175,cs),
(105,175,l)
);
}
);
width = 400;
},
{
layerId = "EDF5EB54-295C-4C90-9A2F-67CD82979CFF";
shapes = (
{
closed = 1;
nodes = (
(67,0,l),
(87,127,l),
(222,127,ls),
(290,127,o),
(343,169,o),
(352,230,cs),
(362,292,o),
(323,335,o),
(255,335,cs),
(74,335,l),
(21,0,l)
);
},
{
closed = 1;
nodes = (
(114,297,l),
(251,297,ls),
(290,297,o),
(312,270,o),
(305,230,cs),
(299,191,o),
(268,165,o),
(229,165,cs),
(93,165,l)
);
}
);
width = 400;
}
);
},
{
export = 0;
glyphname = Q.half;
layers = (
{
layerId = "9ADF6715-3D0F-493D-8567-18A6FBCFC567";
shapes = (
{
closed = 1;
nodes = (
(184,-5,o),
(224,5,o),
(249,18,c),
(226,89,l),
(210,80,o),
(185,73,o),
(168,73,cs),
(118,73,o),
(85,106,o),
(85,152,cs),
(85,213,o),
(137,261,o),
(197,261,cs),
(246,261,o),
(279,229,o),
(279,184,cs),
(279,171,o),
(276,150,o),
(266,134,c),
(314,63,l),
(343,95,o),
(368,147,o),
(368,196,cs),
(368,280,o),
(305,340,o),
(210,340,cs),
(96,340,o),
(-4,251,o),
(-4,140,cs),
(-4,56,o),
(60,-5,o),
(155,-5,cs)
);
},
{
closed = 1;
nodes = (
(339,-58,l),
(226,125,l),
(138,125,l),
(251,-58,l)
);
}
);
width = 400;
},
{
layerId = "CCC0BD40-BA8C-414E-B576-CF0B94E6C996";
shapes = (
{
closed = 1;
nodes = (
(188,-5,o),
(220,3,o),
(249,18,c),
(223,69,l),
(205,59,o),
(185,53,o),
(164,53,cs),
(110,53,o),
(73,92,o),
(73,147,cs),
(73,217,o),
(132,281,o),
(201,281,cs),
(254,281,o),
(291,243,o),
(291,189,cs),
(291,165,o),
(283,138,o),
(272,117,c),
(308,63,l),
(340,100,o),
(359,149,o),
(359,197,cs),
(359,281,o),
(300,340,o),
(210,340,cs),
(97,340,o),
(5,249,o),
(5,139,cs),
(5,55,o),
(65,-5,o),
(155,-5,cs)
);
},
{
closed = 1;
nodes = (
(329,-58,l),
(216,125,l),
(147,125,l),
(260,-58,l)
);
}
);
width = 400;
},
{
layerId = "EDF5EB54-295C-4C90-9A2F-67CD82979CFF";
shapes = (
{
closed = 1;
nodes = (
(187,-5,o),
(217,2,o),
(244,16,c),
(222,48,l),
(203,38,o),
(182,33,o),
(161,33,cs),
(100,33,o),
(60,76,o),
(60,141,cs),
(60,225,o),
(123,302,o),
(204,302,cs),
(265,302,o),
(304,259,o),
(304,195,cs),
(304,168,o),
(295,120,o),
(275,97,c),
(302,62,l),
(333,98,o),
(352,153,o),
(352,202,cs),
(352,285,o),
(297,340,o),
(210,340,cs),
(97,340,o),
(13,248,o),
(13,134,cs),
(13,50,o),
(68,-5,o),
(155,-5,cs)
);
},
{
closed = 1;
nodes = (
(326,-58,l),
(204,125,l),
(156,125,l),
(278,-58,l)
);
}
);
width = 400;
}
);
},
{
export = 0;
glyphname = R.half;
layers = (
{
layerId = "9ADF6715-3D0F-493D-8567-18A6FBCFC567";
shapes = (
{
closed = 1;
nodes = (
(87,0,l),
(104,107,l),
(209,107,ls),
(301,107,o),
(372,161,o),
(372,238,cs),
(372,296,o),
(322,335,o),
(245,335,cs),
(54,335,l),
(1,0,l)
);
},
{
closed = 1;
nodes = (
(341,0,l),
(246,141,l),
(154,141,l),
(247,0,l)
);
},
{
closed = 1;
nodes = (
(129,267,l),
(236,267,ls),
(266,267,o),
(285,251,o),
(285,227,cs),
(285,196,o),
(257,175,o),
(221,175,cs),
(115,175,l)
);
}
);
width = 400;
},
{
layerId = "CCC0BD40-BA8C-414E-B576-CF0B94E6C996";
shapes = (
{
closed = 1;
nodes = (
(67,0,l),
(87,129,l),
(219,129,ls),
(300,129,o),
(360,172,o),
(360,245,cs),
(360,298,o),
(319,335,o),
(252,335,cs),
(54,335,l),
(1,0,l)
);
},
{
closed = 1;
nodes = (
(331,0,l),
(238,141,l),
(164,141,l),
(255,0,l)
);
},
{
closed = 1;
nodes = (
(111,277,l),
(245,277,ls),
(274,277,o),
(293,260,o),
(293,236,cs),
(293,203,o),
(264,179,o),
(228,179,cs),
(95,179,l)
);
}
);
width = 400;
},
{
layerId = "EDF5EB54-295C-4C90-9A2F-67CD82979CFF";
shapes = (
{
closed = 1;
nodes = (
(57,0,l),
(77,127,l),
(212,127,ls),
(289,127,o),
(343,178,o),
(343,246,cs),
(343,299,o),
(305,335,o),
(245,335,cs),
(64,335,l),
(11,0,l)
);
},
{
closed = 1;
nodes = (
(318,0,l),
(226,141,l),
(173,141,l),
(264,0,l)
);
},
{
closed = 1;
nodes = (
(104,297,l),
(241,297,ls),
(275,297,o),
(296,276,o),
(296,244,cs),
(296,197,o),
(263,165,o),
(219,165,cs),
(83,165,l)
);
}
);
width = 400;
}
);
},
{
export = 0;
glyphname = S.half;
layers = (
{
layerId = "9ADF6715-3D0F-493D-8567-18A6FBCFC567";
shapes = (
{
closed = 1;
nodes = (
(190,-3,ls),
(274,-3,o),
(342,42,o),
(342,118,cs),
(342,166,o),
(304,201,o),
(238,208,cs),
(149,218,ls),
(128,220,o),
(116,228,o),
(116,239,cs),
(116,255,o),
(134,268,o),
(158,268,cs),
(228,268,ls),
(255,268,o),
(273,257,o),
(273,244,c),
(359,244,l),
(359,302,o),
(313,338,o),
(240,338,cs),
(170,338,ls),
(93,338,o),
(29,296,o),
(29,227,cs),
(29,180,o),
(66,146,o),
(130,139,cs),
(216,129,ls),
(240,126,o),
(255,115,o),
(255,101,cs),
(255,83,o),
(233,67,o),
(201,67,cs),
(133,67,ls),
(102,67,o),
(84,83,o),
(85,103,c),
(-1,103,l),
(-4,37,o),
(44,-3,o),
(122,-3,cs)
);
}
);
width = 400;
},
{
layerId = "CCC0BD40-BA8C-414E-B576-CF0B94E6C996";
shapes = (
{
closed = 1;
nodes = (
(168,-4,ls),
(256,-4,o),
(332,39,o),
(332,116,cs),
(332,160,o),
(297,191,o),
(236,198,cs),
(150,208,ls),
(122,211,o),
(107,223,o),
(107,240,cs),
(107,265,o),
(137,281,o),
(184,281,cs),
(209,281,ls),
(253,281,o),
(281,267,o),
(283,244,c),
(349,244,l),
(349,302,o),
(299,339,o),
(218,339,cs),
(193,339,ls),
(111,339,o),
(39,299,o),
(39,228,cs),
(39,185,o),
(74,155,o),
(132,149,cs),
(218,139,ls),
(250,135,o),
(268,119,o),
(265,98,cs),
(260,71,o),
(227,54,o),
(178,54,cs),
(153,54,ls),
(105,54,o),
(75,73,o),
(75,103,c),
(9,103,l),
(6,37,o),
(57,-4,o),
(143,-4,cs)
);
}
);
width = 400;
},
{
layerId = "EDF5EB54-295C-4C90-9A2F-67CD82979CFF";
shapes = (
{
closed = 1;
nodes = (
(158,-4,ls),
(262,-4,o),
(321,50,o),
(321,110,cs),
(321,148,o),
(295,181,o),
(235,188,cs),
(148,198,ls),
(116,202,o),
(96,217,o),
(96,239,cs),
(96,276,o),
(138,301,o),
(197,301,cs),
(207,301,ls),
(259,301,o),
(293,278,o),
(293,244,c),
(339,244,l),
(341,302,o),
(293,339,o),
(213,339,cs),
(203,339,ls),
(112,339,o),
(50,296,o),
(50,230,cs),
(50,197,o),
(76,166,o),
(133,159,cs),
(220,149,ls),
(254,145,o),
(275,129,o),
(275,104,cs),
(275,64,o),
(229,34,o),
(164,34,cs),
(155,34,ls),
(98,34,o),
(64,61,o),
(65,103,c),
(19,103,l),
(14,37,o),
(64,-4,o),
(149,-4,cs)
);
}
);
width = 400;
}
);
},
{
export = 0;
glyphname = T.half;
layers = (
{
layerId = "9ADF6715-3D0F-493D-8567-18A6FBCFC567";
shapes = (
{
closed = 1;
nodes = (
(199,0,l),
(239,255,l),
(381,255,l),
(394,335,l),
(24,335,l),
(11,255,l),
(153,255,l),
(113,0,l)
);
}
);
width = 400;
},
{
layerId = "CCC0BD40-BA8C-414E-B576-CF0B94E6C996";
shapes = (
{
closed = 1;
nodes = (
(189,0,l),
(233,275,l),
(385,275,l),
(394,335,l),
(24,335,l),
(15,275,l),
(167,275,l),
(123,0,l)
);
}
);
width = 400;
},
{
layerId = "EDF5EB54-295C-4C90-9A2F-67CD82979CFF";
shapes = (
{
closed = 1;
nodes = (
(179,0,l),
(226,297,l),
(378,297,l),
(384,335,l),
(34,335,l),
(28,297,l),
(180,297,l),
(133,0,l)
);
}
);
width = 400;
}
);
},
{
export = 0;
glyphname = U.half;
layers = (
{
layerId = "9ADF6715-3D0F-493D-8567-18A6FBCFC567";
shapes = (
{
closed = 1;
nodes = (
(252,-10,o),
(329,53,o),
(344,144,cs),
(374,335,l),
(288,335,l),
(258,144,ls),
(251,100,o),
(214,70,o),
(167,70,cs),
(120,70,o),
(93,100,o),
(100,144,cs),
(130,335,l),
(44,335,l),
(14,144,ls),
(-1,53,o),
(56,-10,o),
(154,-10,cs)
);
}
);
width = 400;
},
{
layerId = "CCC0BD40-BA8C-414E-B576-CF0B94E6C996";
shapes = (
{
closed = 1;
nodes = (
(246,-10,o),
(319,49,o),
(334,144,cs),
(364,335,l),
(298,335,l),
(268,144,ls),
(258,85,o),
(217,50,o),
(164,50,cs),
(111,50,o),
(80,85,o),
(90,144,cs),
(120,335,l),
(54,335,l),
(24,144,ls),
(9,49,o),
(62,-10,o),
(154,-10,cs)
);
}
);
width = 400;
},
{
layerId = "EDF5EB54-295C-4C90-9A2F-67CD82979CFF";
shapes = (
{
closed = 1;
nodes = (
(240,-10,o),
(309,49,o),
(322,134,cs),
(354,335,l),
(308,335,l),
(276,134,ls),
(266,72,o),
(220,30,o),
(161,30,cs),
(102,30,o),
(68,72,o),
(78,134,cs),
(110,335,l),
(64,335,l),
(32,134,ls),
(19,49,o),
(68,-10,o),
(154,-10,cs)
);
}
);
width = 400;
}
);
},
{
export = 0;
glyphname = V.half;
layers = (
{
layerId = "9ADF6715-3D0F-493D-8567-18A6FBCFC567";
shapes = (
{
closed = 1;
nodes = (
(100,335,l),
(14,335,l),
(109,0,l),
(203,0,l),
(404,335,l),
(311,335,l),
(192,129,ls),
(178,104,o),
(170,83,o),
(164,65,c),
(164,83,o),
(163,103,o),
(156,129,cs)
);
}
);
width = 400;
},
{
layerId = "CCC0BD40-BA8C-414E-B576-CF0B94E6C996";
shapes = (
{
closed = 1;
nodes = (
(91,335,l),
(24,335,l),
(119,0,l),
(193,0,l),
(394,335,l),
(320,335,l),
(200,129,ls),
(186,104,o),
(170,73,o),
(164,55,c),
(164,73,o),
(154,104,o),
(147,129,cs)
);
}
);
width = 400;
},
{
layerId = "EDF5EB54-295C-4C90-9A2F-67CD82979CFF";
shapes = (
{
closed = 1;
nodes = (
(82,335,l),
(35,335,l),
(135,0,l),
(177,0,l),
(383,335,l),
(334,335,l),
(210,129,ls),
(182,83,o),
(171,60,o),
(163,39,c),
(161,60,o),
(155,84,o),
(142,129,cs)
);
}
);
width = 400;
}
);
},
{
export = 0;
glyphname = X.half;
layers = (
{
layerId = "9ADF6715-3D0F-493D-8567-18A6FBCFC567";
shapes = (
{
closed = 1;
nodes = (
(79,0,l),
(159,86,ls),
(168,95,o),
(172,109,o),
(174,122,c),
(175,109,o),
(178,96,o),
(185,85,cs),
(237,0,l),
(336,0,l),
(228,167,l),
(389,335,l),
(286,335,l),
(208,249,ls),
(199,239,o),
(195,226,o),
(193,214,c),
(191,226,o),
(186,240,o),
(180,249,cs),
(128,335,l),
(30,335,l),
(138,169,l),
(-24,0,l)
);
}
);
width = 400;
},
{
layerId = "CCC0BD40-BA8C-414E-B576-CF0B94E6C996";
shapes = (
{
closed = 1;
nodes = (
(67,0,l),
(147,86,ls),
(167,108,o),
(174,123,o),
(178,141,c),
(181,123,o),
(186,107,o),
(199,85,cs),
(251,0,l),
(326,0,l),
(227,167,l),
(379,335,l),
(298,335,l),
(220,249,ls),
(200,227,o),
(193,213,o),
(188,195,c),
(184,213,o),
(179,227,o),
(166,249,cs),
(114,335,l),
(40,335,l),
(139,169,l),
(-14,0,l)
);
}
);
width = 400;
},
{
layerId = "EDF5EB54-295C-4C90-9A2F-67CD82979CFF";
shapes = (
{
closed = 1;
nodes = (
(57,0,l),
(135,88,ls),
(154,110,o),
(168,126,o),
(181,143,c),
(189,126,o),
(196,110,o),
(211,85,cs),
(262,0,l),
(316,0,l),
(216,168,l),
(369,335,l),
(309,335,l),
(230,247,ls),
(211,225,o),
(194,207,o),
(186,195,c),
(182,205,o),
(168,227,o),
(155,249,cs),
(104,335,l),
(50,335,l),
(151,169,l),
(-4,0,l)
);
}
);
width = 400;
}
);
},
{
glyphname = a;
layers = (
{
anchors = (
{
name = bottom;
pos = (261,0);
},
{
name = ogonek;
pos = (390,0);
},
{
name = top;
pos = (348,550);
}
);
layerId = "9ADF6715-3D0F-493D-8567-18A6FBCFC567";
shapes = (
{
closed = 1;
nodes = (
(271,-10,o),
(349,55,o),
(364,150,c),
(335,125,l),
(360,125,l),
(359,117,ls),
(348,48,o),
(399,0,o),
(485,0,cs),
(540,0,l),
(561,130,l),
(515,130,ls),
(492,130,o),
(478,145,o),
(482,168,cs),
(542,550,l),
(393,550,l),
(380,445,l),
(345,445,l),
(375,410,l),
(389,499,o),
(344,560,o),
(265,560,cs),
(166,560,o),
(83,472,o),
(62,345,cs),
(39,205,ls),
(18,78,o),
(72,-10,o),
(174,-10,cs)
);
},
{
closed = 1;
nodes = (
(204,120,o),
(182,155,o),
(190,210,cs),
(211,340,ls),
(220,395,o),
(253,430,o),
(298,430,cs),
(344,430,o),
(368,395,o),
(359,340,cs),
(338,210,ls),
(330,155,o),
(295,120,o),
(249,120,cs)
);
}
);
width = 600;
},
{
anchors = (
{
name = bottom;
pos = (261,0);
},
{
name = ogonek;
pos = (410,0);
},
{
name = top;
pos = (348,550);
}
);
layerId = "EDF5EB54-295C-4C90-9A2F-67CD82979CFF";
shapes = (
{
closed = 1;
nodes = (
(318,-10,o),
(391,51,o),
(405,140,c),
(385,119,l),
(398,119,l),
(396,105,ls),
(386,43,o),
(419,0,o),
(478,0,cs),
(523,0,l),
(530,45,l),
(485,45,ls),
(450,45,o),
(429,69,o),
(435,105,cs),
(505,550,l),
(455,550,l),
(442,465,l),
(424,465,l),
(443,410,l),
(456,499,o),
(404,560,o),
(316,560,cs),
(215,560,o),
(133,479,o),
(114,360,cs),
(87,189,ls),
(68,71,o),
(124,-10,o),
(225,-10,cs)
);
},
{
closed = 1;
nodes = (
(163,33,o),
(122,93,o),
(137,189,cs),
(164,360,ls),
(179,456,o),
(239,517,o),
(319,517,cs),
(400,517,o),
(440,456,o),
(425,360,cs),
(398,189,ls),
(383,93,o),
(323,33,o),
(242,33,cs)
);
}
);
width = 600;
},
{
anchors = (
{
name = bottom;
pos = (261,0);
},
{
name = ogonek;
pos = (420,0);
},
{
name = top;
pos = (348,550);
}
);
layerId = "CCC0BD40-BA8C-414E-B576-CF0B94E6C996";
shapes = (
{
closed = 1;
nodes = (
(301,-10,o),
(376,54,o),
(390,147,c),
(369,147,l),
(385,136,l),
(382,117,ls),
(371,48,o),
(409,0,o),
(475,0,cs),
(525,0,l),
(538,82,l),
(493,82,ls),
(467,82,o),
(451,100,o),
(455,127,cs),
(522,550,l),
(432,550,l),
(417,445,l),
(397,445,l),
(412,424,l),
(425,505,o),
(378,560,o),
(296,560,cs),
(197,560,o),
(115,477,o),
(95,355,cs),
(70,194,ls),
(51,73,o),
(106,-10,o),
(205,-10,cs)
);
},
{
closed = 1;
nodes = (
(182,68,o),
(149,119,o),
(161,200,cs),
(184,350,ls),
(196,431,o),
(246,482,o),
(313,482,cs),
(378,482,o),
(412,431,o),
(400,350,cs),
(377,200,ls),
(364,119,o),
(314,68,o),
(248,68,cs)
);
}
);
width = 600;
}
);
unicode = 97;
},
{
glyphname = aogonek;
layers = (
{
layerId = "EDF5EB54-295C-4C90-9A2F-67CD82979CFF";
shapes = (
{
closed = 1;
nodes = (
(491,-195,l),
(498,-153,l),
(434,-153,ls),
(402,-153,o),
(386,-134,o),
(391,-103,cs),
(394,-77,o),
(431,-39,o),
(492,0,c),
(463,10,l),
(392,-29,o),
(347,-75,o),
(342,-115,cs),
(334,-165,o),
(363,-195,o),
(418,-195,c)
);
},
{
ref = a;
}
);
width = 600;
},
{
layerId = "CCC0BD40-BA8C-414E-B576-CF0B94E6C996";
shapes = (
{
closed = 1;
nodes = (
(493,-203,l),
(502,-143,l),
(442,-143,ls),
(408,-143,o),
(391,-122,o),
(395,-93,cs),
(400,-65,o),
(439,-31,o),
(504,0,c),
(437,10,l),
(362,-24,o),
(315,-68,o),
(308,-110,cs),
(299,-164,o),
(341,-203,o),
(415,-203,cs)
);
},
{
ref = a;
}
);
width = 600;
},
{
layerId = "9ADF6715-3D0F-493D-8567-18A6FBCFC567";
shapes = (
{
closed = 1;
nodes = (
(504,-225,l),
(521,-120,l),
(452,-120,ls),
(423,-120,o),
(409,-103,o),
(412,-83,cs),
(416,-58,o),
(451,-28,o),
(506,0,c),
(434,11,l),
(346,-13,o),
(291,-58,o),
(283,-115,cs),
(272,-180,o),
(315,-225,o),
(396,-225,cs)
);
},
{
ref = a;
}
);
width = 600;
}
);
unicode = 261;
},
{
glyphname = ae;
layers = (
{
anchors = (
{
name = top;
pos = (346,550);
}
);
layerId = "9ADF6715-3D0F-493D-8567-18A6FBCFC567";
shapes = (
{
closed = 1;
nodes = (
(198,-10,o),
(254,25,o),
(270,81,c),
(268,25,o),
(315,-10,o),
(378,-10,cs),
(465,-10,o),
(535,55,o),
(550,150,c),
(431,150,l),
(425,111,o),
(404,87,o),
(376,87,cs),
(348,87,o),
(335,111,o),
(341,150,cs),
(357,250,l),
(566,250,l),
(589,400,ls),
(604,495,o),
(553,560,o),
(466,560,cs),
(403,560,o),
(347,525,o),
(331,468,c),
(333,525,o),
(290,560,o),
(226,560,cs),
(139,560,o),
(68,495,o),
(53,400,c),
(172,400,l),
(179,439,o),
(199,463,o),
(227,463,cs),
(255,463,o),
(268,439,o),
(262,400,cs),
(251,330,l),
(206,330,ls),
(105,330,o),
(25,260,o),
(9,159,cs),
(-7,59,o),
(43,-10,o),
(132,-10,cs)
);
},
{
closed = 1;
nodes = (
(135,87,o),
(122,120,o),
(130,168,cs),
(137,217,o),
(161,250,o),
(194,250,cs),
(239,250,l),
(223,150,ls),
(217,111,o),
(195,87,o),
(167,87,cs)
);
},
{
closed = 1;
nodes = (
(380,400,ls),
(386,439,o),
(408,463,o),
(435,463,cs),
(463,463,o),
(476,439,o),
(470,400,cs),
(459,330,l),
(369,330,l)
);
}
);
width = 600;
},
{
anchors = (
{
name = top;
pos = (346,550);
}
);
layerId = "CCC0BD40-BA8C-414E-B576-CF0B94E6C996";
shapes = (
{
closed = 1;
nodes = (
(196,-10,o),
(253,27,o),
(273,80,c),
(275,27,o),
(316,-10,o),
(374,-10,cs),
(460,-10,o),
(529,50,o),
(543,137,c),
(459,137,l),
(452,94,o),
(420,65,o),
(378,65,cs),
(335,65,o),
(314,96,o),
(323,150,cs),
(340,256,l),
(562,256,l),
(584,400,ls),
(599,495,o),
(551,560,o),
(465,560,cs),
(403,560,o),
(350,524,o),
(335,471,c),
(336,524,o),
(292,560,o),
(227,560,cs),
(147,560,o),
(82,501,o),
(69,414,c),
(148,414,l),
(154,456,o),
(187,485,o),
(228,485,cs),
(271,485,o),
(291,454,o),
(282,399,cs),
(270,324,l),
(189,324,ls),
(99,324,o),
(28,257,o),
(12,159,cs),
(-4,59,o),
(45,-10,o),
(132,-10,cs)
);
},
{
closed = 1;
nodes = (
(110,65,o),
(87,102,o),
(96,160,cs),
(106,219,o),
(139,256,o),
(181,256,cs),
(260,256,l),
(243,150,ls),
(235,98,o),
(201,65,o),
(157,65,cs)
);
},
{
closed = 1;
nodes = (
(362,400,ls),
(370,452,o),
(403,485,o),
(445,485,cs),
(487,485,o),
(508,452,o),
(500,400,cs),
(488,324,l),
(350,324,l)
);
}
);
width = 600;
},
{
anchors = (
{
name = top;
pos = (346,550);
}
);
layerId = "EDF5EB54-295C-4C90-9A2F-67CD82979CFF";
shapes = (
{
closed = 1;
nodes = (
(194,-10,o),
(253,25,o),
(271,75,c),
(274,25,o),
(318,-10,o),
(380,-10,cs),
(460,-10,o),
(525,50,o),
(539,137,c),
(491,137,l),
(481,76,o),
(437,34,o),
(384,34,cs),
(327,34,o),
(295,77,o),
(305,140,cs),
(326,269,l),
(559,269,l),
(581,410,ls),
(595,499,o),
(549,560,o),
(467,560,cs),
(407,560,o),
(353,525,o),
(334,474,c),
(334,525,o),
(293,560,o),
(232,560,cs),
(156,560,o),
(93,501,o),
(80,414,c),
(128,414,l),
(137,475,o),
(180,517,o),
(232,517,cs),
(282,517,o),
(310,473,o),
(300,410,cs),
(284,312,l),
(175,312,ls),
(98,312,o),
(35,248,o),
(21,155,cs),
(5,57,o),
(49,-10,o),
(128,-10,cs)
);
},
{
closed = 1;
nodes = (
(88,31,o),
(57,81,o),
(69,155,cs),
(79,223,o),
(120,269,o),
(169,269,cs),
(278,269,l),
(257,140,ls),
(246,75,o),
(201,31,o),
(144,31,cs)
);
},
{
closed = 1;
nodes = (
(348,410,ls),
(358,473,o),
(402,517,o),
(457,517,cs),
(512,517,o),
(543,473,o),
(533,410,cs),
(517,312,l),
(332,312,l)
);
}
);
width = 600;
}
);
unicode = 230;
},
{
glyphname = b;
layers = (
{
anchors = (
{
name = bottom;
pos = (256,0);
},
{
name = top;
pos = (372,730);
}
);
layerId = "CCC0BD40-BA8C-414E-B576-CF0B94E6C996";
shapes = (
{
closed = 1;
nodes = (
(401,-10,o),
(479,64,o),
(500,194,cs),
(525,355,ls),
(545,482,o),
(488,560,o),
(377,560,cs),
(280,560,o),
(216,510,o),
(203,424,c),
(226,445,l),
(206,445,l),
(228,570,l),
(254,730,l),
(164,730,l),
(48,0,l),
(138,0,l),
(155,105,l),
(173,105,l),
(158,126,l),
(145,42,o),
(195,-10,o),
(286,-10,cs)
);
},
{
closed = 1;
nodes = (
(195,68,o),
(157,117,o),
(170,200,cs),
(193,350,ls),
(207,433,o),
(260,482,o),
(334,482,cs),
(410,482,o),
(449,445,o),
(435,355,cs),
(410,195,ls),
(396,105,o),
(345,68,o),
(269,68,cs)
);
}
);
width = 600;
},
{
anchors = (
{
name = bottom;
pos = (256,0);
},
{
name = top;
pos = (372,730);
}
);
layerId = "EDF5EB54-295C-4C90-9A2F-67CD82979CFF";
shapes = (
{
closed = 1;
nodes = (
(379,-10,o),
(461,67,o),
(481,189,cs),
(508,360,ls),
(527,480,o),
(468,560,o),
(358,560,cs),
(258,560,o),
(185,502,o),
(171,410,c),
(206,455,l),
(188,455,l),
(208,580,l),
(232,730,l),
(182,730,l),
(66,0,l),
(116,0,l),
(131,95,l),
(146,95,l),
(128,140,l),
(114,49,o),
(171,-10,o),
(267,-10,cs)
);
},
{
closed = 1;
nodes = (
(174,33,o),
(130,91,o),
(146,189,cs),
(173,360,ls),
(189,458,o),
(250,517,o),
(341,517,cs),
(430,517,o),
(474,458,o),
(458,360,cs),
(431,189,ls),
(415,91,o),
(353,33,o),
(264,33,cs)
);
}
);
width = 600;
},
{
anchors = (
{
name = bottom;
pos = (256,0);
},
{
name = top;
pos = (372,730);
}
);
layerId = "9ADF6715-3D0F-493D-8567-18A6FBCFC567";
shapes = (
{
closed = 1;
nodes = (
(426,-10,o),
(508,73,o),
(528,205,cs),
(551,345,ls),
(571,476,o),
(513,560,o),
(407,560,cs),
(302,560,o),
(231,487,o),
(210,360,c),
(271,435,l),
(236,435,l),
(264,580,l),
(288,730,l),
(138,730,l),
(22,0,l),
(167,0,l),
(185,115,l),
(220,115,l),
(183,190,l),
(163,66,o),
(214,-10,o),
(316,-10,cs)
);
},
{
closed = 1;
nodes = (
(222,120,o),
(196,154,o),
(206,215,cs),
(225,335,ls),
(235,396,o),
(271,430,o),
(328,430,cs),
(383,430,o),
(409,398,o),
(400,340,cs),
(379,210,ls),
(370,152,o),
(334,120,o),
(279,120,cs)
);
}
);
width = 600;
}
);
unicode = 98;
},
{
glyphname = c;
layers = (
{
anchors = (
{
name = bottom;
pos = (265,0);
},
{
name = top;
pos = (352,550);
}
);
layerId = "9ADF6715-3D0F-493D-8567-18A6FBCFC567";
shapes = (
{
closed = 1;
nodes = (
(413,-10,o),
(513,65,o),
(539,195,c),
(393,195,l),
(381,147,o),
(339,120,o),
(284,120,cs),
(224,120,o),
(196,152,o),
(205,210,cs),
(226,340,ls),
(235,398,o),
(273,430,o),
(333,430,cs),
(387,430,o),
(422,402,o),
(418,355,c),
(564,355,l),
(579,480,o),
(497,560,o),
(354,560,cs),
(199,560,o),
(99,480,o),
(76,340,cs),
(55,210,ls),
(34,79,o),
(118,-10,o),
(263,-10,cs)
);
}
);
width = 600;
},
{
anchors = (
{
name = bottom;
pos = (264,0);
},
{
name = top;
pos = (351,550);
}
);
layerId = "CCC0BD40-BA8C-414E-B576-CF0B94E6C996";
shapes = (
{
closed = 1;
nodes = (
(394,-10,o),
(484,59,o),
(508,180,c),
(418,180,l),
(402,110,o),
(349,70,o),
(275,70,cs),
(196,70,o),
(153,117,o),
(166,200,cs),
(190,351,ls),
(203,433,o),
(261,480,o),
(340,480,cs),
(414,480,o),
(455,440,o),
(448,370,c),
(538,370,l),
(552,485,o),
(479,560,o),
(353,560,cs),
(214,560,o),
(119,483,o),
(99,350,cs),
(76,200,ls),
(56,71,o),
(131,-10,o),
(262,-10,cs)
);
}
);
width = 600;
},
{
anchors = (
{
name = bottom;
pos = (265,0);
},
{
name = top;
pos = (352,550);
}
);
layerId = "EDF5EB54-295C-4C90-9A2F-67CD82979CFF";
shapes = (
{
closed = 1;
nodes = (
(389,-10,o),
(473,59,o),
(492,180,c),
(442,180,l),
(427,90,o),
(363,36,o),
(271,36,cs),
(180,36,o),
(133,94,o),
(148,190,cs),
(175,360,ls),
(190,457,o),
(255,514,o),
(346,514,cs),
(438,514,o),
(486,460,o),
(472,370,c),
(522,370,l),
(540,482,o),
(471,560,o),
(354,560,cs),
(229,560,o),
(145,487,o),
(125,360,cs),
(98,190,ls),
(79,70,o),
(144,-10,o),
(263,-10,cs)
);
}
);
width = 600;
}
);
unicode = 99;
},
{
glyphname = ccedilla;
layers = (
{
anchors = (
{
name = _bottom;
pos = (258,0);
}
);
layerId = "EDF5EB54-295C-4C90-9A2F-67CD82979CFF";
shapes = (
{
closed = 1;
nodes = (
(217,-195,ls),
(277,-195,o),
(323,-161,o),
(329,-118,cs),
(338,-61,o),
(279,-37,o),
(233,-34,c),
(265,26,l),
(223,26,l),
(174,-64,l),
(245,-64,o),
(288,-86,o),
(283,-118,cs),
(280,-140,o),
(255,-160,o),
(223,-160,cs),
(143,-160,l),
(137,-195,l)
);
},
{
ref = c;
}
);
width = 600;
},
{
anchors = (
{
name = _bottom;
pos = (260,0);
}
);
layerId = "CCC0BD40-BA8C-414E-B576-CF0B94E6C996";
shapes = (
{
closed = 1;
nodes = (
(218,-203,ls),
(290,-203,o),
(344,-166,o),
(351,-120,cs),
(359,-68,o),
(296,-41,o),
(244,-35,c),
(275,26,l),
(218,26,l),
(168,-69,l),
(235,-69,o),
(270,-89,o),
(266,-112,cs),
(263,-130,o),
(241,-148,o),
(212,-148,cs),
(142,-148,l),
(133,-203,l)
);
},
{
ref = c;
}
);
width = 600;
},
{
anchors = (
{
name = _bottom;
pos = (259,0);
}
);
layerId = "9ADF6715-3D0F-493D-8567-18A6FBCFC567";
shapes = (
{
closed = 1;
nodes = (
(223,-225,ls),
(307,-225,o),
(370,-182,o),
(378,-133,cs),
(388,-72,o),
(311,-43,o),
(251,-39,c),
(279,16,l),
(206,16,l),
(157,-69,l),
(230,-69,o),
(270,-88,o),
(265,-119,cs),
(263,-135,o),
(237,-155,o),
(204,-155,cs),
(124,-155,l),
(113,-225,l)
);
},
{
ref = c;
}
);
width = 600;
}
);
unicode = 231;
},
{
glyphname = d;
layers = (
{
anchors = (
{
name = bottom;
pos = (256,0);
},
{
name = center;
pos = (300,275);
},
{
name = top;
pos = (372,730);
},
{
name = topright;
pos = (623,550);
}
);
layerId = "EDF5EB54-295C-4C90-9A2F-67CD82979CFF";
shapes = (
{
closed = 1;
nodes = (
(345,-10,o),
(413,45,o),
(428,140,c),
(393,95,l),
(411,95,l),
(396,0,l),
(446,0,l),
(562,730,l),
(512,730,l),
(488,580,l),
(468,455,l),
(450,455,l),
(471,410,l),
(485,501,o),
(428,560,o),
(332,560,cs),
(216,560,o),
(138,487,o),
(118,360,cs),
(91,189,ls),
(72,71,o),
(133,-10,o),
(241,-10,cs)
);
},
{
closed = 1;
nodes = (
(169,33,o),
(126,91,o),
(141,189,cs),
(168,360,ls),
(183,458,o),
(246,517,o),
(335,517,cs),
(426,517,o),
(468,458,o),
(453,360,cs),
(426,189,ls),
(411,91,o),
(348,33,o),
(258,33,cs)
);
}
);
width = 600;
},
{
anchors = (
{
name = bottom;
pos = (256,0);
},
{
name = center;
pos = (300,275);
},
{
name = top;
pos = (372,730);
},
{
name = topright;
pos = (623,550);
}
);
layerId = "9ADF6715-3D0F-493D-8567-18A6FBCFC567";
shapes = (
{
closed = 1;
nodes = (
(296,-10,o),
(367,63,o),
(388,190,c),
(328,115,l),
(363,115,l),
(345,0,l),
(490,0,l),
(606,730,l),
(456,730,l),
(432,580,l),
(414,435,l),
(379,435,l),
(416,360,l),
(436,485,o),
(385,560,o),
(283,560,cs),
(171,560,o),
(94,482,o),
(71,345,cs),
(48,205,ls),
(27,76,o),
(88,-10,o),
(192,-10,cs)
);
},
{
closed = 1;
nodes = (
(216,120,o),
(190,152,o),
(199,210,cs),
(220,340,ls),
(229,398,o),
(265,430,o),
(320,430,cs),
(377,430,o),
(403,396,o),
(393,335,cs),
(374,215,ls),
(364,154,o),
(328,120,o),
(271,120,cs)
);
}
);
width = 600;
},
{
anchors = (
{
name = bottom;
pos = (256,0);
},
{
name = center;
pos = (300,275);
},
{
name = top;
pos = (372,730);
},
{
name = topright;
pos = (623,550);
}
);
layerId = "CCC0BD40-BA8C-414E-B576-CF0B94E6C996";
shapes = (
{
closed = 1;
nodes = (
(318,-10,o),
(381,40,o),
(394,126,c),
(373,105,l),
(391,105,l),
(374,0,l),
(464,0,l),
(580,730,l),
(490,730,l),
(464,570,l),
(446,445,l),
(426,445,l),
(443,424,l),
(456,507,o),
(403,560,o),
(313,560,cs),
(197,560,o),
(119,485,o),
(99,355,cs),
(74,194,ls),
(55,71,o),
(116,-10,o),
(222,-10,cs)
);
},
{
closed = 1;
nodes = (
(189,68,o),
(150,105,o),
(164,195,cs),
(189,355,ls),
(203,445,o),
(254,482,o),
(330,482,cs),
(404,482,o),
(442,433,o),
(429,350,cs),
(406,200,ls),
(393,117,o),
(339,68,o),
(265,68,cs)
);
}
);
width = 600;
}
);
unicode = 100;
},
{
glyphname = eth;
layers = (
{
layerId = "9ADF6715-3D0F-493D-8567-18A6FBCFC567";
shapes = (
{
closed = 1;
nodes = (
(415,0,o),
(531,96,o),
(556,251,cs),
(569,337,o),
(546,429,o),
(480,537,cs),
(439,604,l),
(552,641,l),
(567,747,l),
(386,687,l),
(361,730,l),
(208,730,l),
(261,642,l),
(158,608,l),
(143,501,l),
(313,558,l),
(354,489,ls),
(400,412,o),
(408,380,o),
(406,375,c),
(400,375,l),
(386,410,o),
(340,456,o),
(271,456,cs),
(150,456,o),
(54,368,o),
(33,236,cs),
(11,94,o),
(99,0,o),
(256,0,cs)
);
},
{
closed = 1;
nodes = (
(209,125,o),
(173,168,o),
(183,235,cs),
(194,302,o),
(244,345,o),
(311,345,cs),
(377,345,o),
(414,301,o),
(403,235,cs),
(393,168,o),
(343,125,o),
(276,125,cs)
);
}
);
width = 600;
},
{
layerId = "CCC0BD40-BA8C-414E-B576-CF0B94E6C996";
shapes = (
{
closed = 1;
nodes = (
(392,-10,o),
(499,83,o),
(521,223,cs),
(535,308,o),
(515,410,o),
(466,493,cs),
(401,604,l),
(521,653,l),
(533,735,l),
(366,668,l),
(332,730,l),
(237,730,l),
(292,633,l),
(164,577,l),
(151,496,l),
(327,569,l),
(377,480,ls),
(405,430,o),
(421,393,o),
(425,380,c),
(411,380,l),
(400,404,o),
(364,436,o),
(306,436,cs),
(179,436,o),
(81,348,o),
(60,215,cs),
(39,80,o),
(116,-10,o),
(253,-10,cs)
);
},
{
closed = 1;
nodes = (
(183,70,o),
(136,128,o),
(150,215,cs),
(164,302,o),
(229,360,o),
(312,360,cs),
(397,360,o),
(444,302,o),
(430,215,cs),
(416,128,o),
(351,70,o),
(266,70,cs)
);
}
);
width = 600;
},
{
layerId = "EDF5EB54-295C-4C90-9A2F-67CD82979CFF";
shapes = (
{
closed = 1;
nodes = (
(388,-10,o),
(488,78,o),
(510,213,cs),
(524,302,o),
(499,403,o),
(433,517,cs),
(379,610,l),
(524,673,l),
(530,717,l),
(360,644,l),
(314,730,l),
(264,730,l),
(323,628,l),
(161,557,l),
(155,513,l),
(342,594,l),
(398,491,ls),
(437,419,o),
(453,366,o),
(456,347,c),
(453,347,l),
(437,385,o),
(388,436,o),
(315,436,cs),
(186,436,o),
(91,350,o),
(70,215,cs),
(49,79,o),
(121,-10,o),
(254,-10,cs)
);
},
{
closed = 1;
nodes = (
(161,40,o),
(108,108,o),
(125,215,cs),
(142,322,o),
(217,390,o),
(318,390,cs),
(413,390,o),
(471,318,o),
(455,216,cs),
(438,109,o),
(362,40,o),
(262,40,cs)
);
}
);
width = 600;
}
);
unicode = 240;
},
{
glyphname = dcaron;
layers = (
{
layerId = "9ADF6715-3D0F-493D-8567-18A6FBCFC567";
shapes = (
{
closed = 1;
nodes = (
(240,-10,o),
(294,45,o),
(309,140,c),
(267,105,l),
(302,105,l),
(285,0,l),
(420,0,l),
(536,730,l),
(396,730,l),
(372,580,l),
(355,445,l),
(320,445,l),
(352,410,l),
(367,502,o),
(325,560,o),
(248,560,cs),
(144,560,o),
(73,484,o),
(52,351,cs),
(28,200,ls),
(7,71,o),
(59,-10,o),
(159,-10,cs)
);
},
{
closed = 1;
nodes = (
(182,110,o),
(158,145,o),
(168,205,cs),
(191,346,ls),
(201,405,o),
(235,440,o),
(283,440,cs),
(325,440,o),
(345,405,o),
(335,346,cs),
(312,205,ls),
(302,145,o),
(272,110,o),
(230,110,cs)
);
},
{
pos = (665,0);
ref = caroncomb.alt;
}
);
width = 600;
},
{
layerId = "CCC0BD40-BA8C-414E-B576-CF0B94E6C996";
shapes = (
{
closed = 1;
nodes = (
(270,-10,o),
(328,40,o),
(341,126,c),
(318,105,l),
(336,105,l),
(319,0,l),
(409,0,l),
(525,730,l),
(435,730,l),
(409,570,l),
(391,445,l),
(371,445,l),
(388,424,l),
(401,507,o),
(356,560,o),
(273,560,cs),
(167,560,o),
(96,487,o),
(76,360,cs),
(49,189,ls),
(30,67,o),
(81,-10,o),
(182,-10,cs)
);
},
{
closed = 1;
nodes = (
(159,68,o),
(127,115,o),
(140,195,cs),
(165,355,ls),
(178,435,o),
(224,482,o),
(290,482,cs),
(356,482,o),
(388,435,o),
(375,355,cs),
(350,195,ls),
(337,115,o),
(291,68,o),
(225,68,cs)
);
},
{
pos = (665,0);
ref = caroncomb.alt;
}
);
width = 600;
},
{
layerId = "EDF5EB54-295C-4C90-9A2F-67CD82979CFF";
shapes = (
{
closed = 1;
nodes = (
(314,-10,o),
(378,45,o),
(393,140,c),
(361,95,l),
(376,95,l),
(361,0,l),
(411,0,l),
(527,730,l),
(477,730,l),
(453,580,l),
(433,455,l),
(419,455,l),
(436,410,l),
(451,502,o),
(401,560,o),
(307,560,cs),
(197,560,o),
(123,487,o),
(103,360,cs),
(76,189,ls),
(57,67,o),
(111,-10,o),
(216,-10,cs)
);
},
{
closed = 1;
nodes = (
(152,33,o),
(111,93,o),
(126,189,cs),
(153,360,ls),
(168,456,o),
(229,517,o),
(310,517,cs),
(392,517,o),
(433,456,o),
(418,360,cs),
(391,189,ls),
(376,93,o),
(315,33,o),
(233,33,cs)
);
},
{
pos = (670,0);
ref = caroncomb.alt;
}
);
width = 600;
}
);
unicode = 271;
},
{
glyphname = dcroat;
layers = (
{
layerId = "9ADF6715-3D0F-493D-8567-18A6FBCFC567";
shapes = (
{
closed = 1;
nodes = (
(28,73,o),
(86,-10,o),
(197,-10,cs),
(276,-10,o),
(335,32,o),
(359,105,c),
(362,105,l),
(345,0,l),
(490,0,l),
(578,555,l),
(644,555,l),
(658,645,l),
(592,645,l),
(606,730,l),
(456,730,l),
(442,645,l),
(298,645,l),
(284,555,l),
(428,555,l),
(422,520,l),
(406,385,l),
(403,385,l),
(403,458,o),
(357,500,o),
(278,500,cs),
(167,500,o),
(82,416,o),
(61,285,cs),
(48,205,ls)
);
},
{
closed = 1;
nodes = (
(210,280,ls),
(219,337,o),
(256,370,o),
(312,370,cs),
(367,370,o),
(393,337,o),
(384,280,cs),
(373,210,ls),
(364,152,o),
(327,120,o),
(272,120,cs),
(216,120,o),
(190,152,o),
(199,210,cs)
);
}
);
width = 600;
},
{
layerId = "CCC0BD40-BA8C-414E-B576-CF0B94E6C996";
shapes = (
{
closed = 1;
nodes = (
(57,68,o),
(112,-10,o),
(222,-10,cs),
(306,-10,o),
(367,33,o),
(387,105,c),
(389,105,l),
(372,0,l),
(462,0,l),
(552,570,l),
(646,570,l),
(658,645,l),
(564,645,l),
(578,730,l),
(488,730,l),
(474,645,l),
(308,645,l),
(296,570,l),
(462,570,l),
(453,510,l),
(435,385,l),
(432,385,l),
(434,456,o),
(385,500,o),
(303,500,cs),
(192,500,o),
(113,422,o),
(93,295,cs),
(77,194,ls)
);
},
{
closed = 1;
nodes = (
(182,290,ls),
(195,375,o),
(245,422,o),
(321,422,cs),
(395,422,o),
(431,373,o),
(418,290,cs),
(404,200,ls),
(391,117,o),
(339,68,o),
(265,68,cs),
(189,68,o),
(154,115,o),
(168,200,cs)
);
}
);
width = 600;
},
{
layerId = "EDF5EB54-295C-4C90-9A2F-67CD82979CFF";
shapes = (
{
closed = 1;
nodes = (
(72,69,o),
(131,-10,o),
(241,-10,cs),
(312,-10,o),
(372,22,o),
(404,75,c),
(408,75,l),
(396,0,l),
(446,0,l),
(539,586,l),
(639,586,l),
(646,631,l),
(546,631,l),
(562,730,l),
(512,730,l),
(496,631,l),
(316,631,l),
(309,586,l),
(489,586,l),
(478,520,l),
(462,415,l),
(458,415,l),
(443,468,o),
(393,500,o),
(322,500,cs),
(212,500,o),
(128,420,o),
(109,300,cs),
(91,189,ls)
);
},
{
closed = 1;
nodes = (
(159,300,ls),
(174,398,o),
(236,457,o),
(325,457,cs),
(416,457,o),
(459,398,o),
(444,300,cs),
(426,189,ls),
(410,91,o),
(348,33,o),
(258,33,cs),
(169,33,o),
(125,91,o),
(141,189,cs)
);
}
);
width = 600;
}
);
unicode = 273;
},
{
glyphname = e;
layers = (
{
anchors = (
{
name = bottom;
pos = (256,0);
},
{
name = ogonek;
pos = (311,0);
},
{
name = top;
pos = (343,550);
}
);
layerId = "EDF5EB54-295C-4C90-9A2F-67CD82979CFF";
shapes = (
{
closed = 1;
nodes = (
(359,-10,o),
(437,43,o),
(468,135,c),
(418,135,l),
(397,72,o),
(336,34,o),
(262,34,cs),
(167,34,o),
(125,92,o),
(141,190,cs),
(153,265,l),
(367,265,ls),
(449,265,o),
(500,306,o),
(512,384,cs),
(527,479,o),
(465,560,o),
(346,560,cs),
(220,560,o),
(138,487,o),
(118,360,cs),
(91,190,ls),
(72,72,o),
(132,-10,o),
(255,-10,cs)
);
},
{
closed = 1;
nodes = (
(168,360,ls),
(183,457,o),
(245,516,o),
(339,516,cs),
(431,516,o),
(474,456,o),
(462,384,cs),
(454,334,o),
(425,308,o),
(375,308,cs),
(160,308,l)
);
}
);
width = 600;
},
{
anchors = (
{
name = bottom;
pos = (256,0);
},
{
name = ogonek;
pos = (306,0);
},
{
name = top;
pos = (343,550);
}
);
layerId = "CCC0BD40-BA8C-414E-B576-CF0B94E6C996";
shapes = (
{
closed = 1;
nodes = (
(377,-10,o),
(463,45,o),
(490,140,c),
(400,140,l),
(384,96,o),
(334,68,o),
(267,68,cs),
(189,68,o),
(147,119,o),
(160,200,cs),
(168,250,l),
(370,250,ls),
(460,250,o),
(519,295,o),
(533,382,cs),
(549,486,o),
(470,560,o),
(345,560,cs),
(208,560,o),
(116,480,o),
(94,340,cs),
(73,210,ls),
(51,73,o),
(124,-10,o),
(254,-10,cs)
);
},
{
closed = 1;
nodes = (
(183,350,ls),
(196,437,o),
(252,486,o),
(333,486,cs),
(407,486,o),
(452,444,o),
(442,382,cs),
(435,339,o),
(412,322,o),
(380,322,cs),
(179,322,l)
);
}
);
width = 600;
},
{
anchors = (
{
name = bottom;
pos = (256,0);
},
{
name = ogonek;
pos = (301,0);
},
{
name = top;
pos = (343,550);
}
);
layerId = "9ADF6715-3D0F-493D-8567-18A6FBCFC567";
shapes = (
{
closed = 1;
nodes = (
(380,-10,o),
(474,48,o),
(512,150,c),
(365,150,l),
(354,123,o),
(316,110,o),
(274,110,cs),
(209,110,o),
(178,141,o),
(192,210,cs),
(197,234,l),
(385,234,ls),
(480,234,o),
(544,285,o),
(557,373,cs),
(574,485,o),
(488,560,o),
(346,560,cs),
(194,560,o),
(94,480,o),
(70,340,cs),
(49,210,ls),
(27,81,o),
(111,-10,o),
(255,-10,cs)
);
},
{
closed = 1;
nodes = (
(213,340,ls),
(224,408,o),
(262,449,o),
(328,449,cs),
(382,449,o),
(415,417,o),
(407,371,cs),
(402,339,o),
(386,329,o),
(364,329,cs),
(211,327,l)
);
}
);
width = 600;
}
);
unicode = 101;
},
{
glyphname = eogonek;
layers = (
{
anchors = (
{
name = top;
pos = (343,550);
}
);
layerId = "9ADF6715-3D0F-493D-8567-18A6FBCFC567";
shapes = (
{
closed = 1;
nodes = (
(388,-225,l),
(405,-120,l),
(336,-120,ls),
(307,-120,o),
(293,-103,o),
(296,-83,cs),
(299,-66,o),
(317,-42,o),
(347,-18,cs),
(406,29,l),
(454,58,o),
(494,99,o),
(515,150,c),
(368,150,l),
(354,122,o),
(323,105,o),
(276,105,cs),
(209,105,o),
(181,141,o),
(192,210,cs),
(197,240,l),
(534,240,l),
(550,340,ls),
(571,472,o),
(492,560,o),
(346,560,cs),
(199,560,o),
(91,472,o),
(70,340,cs),
(49,210,ls),
(28,78,o),
(108,-10,o),
(255,-10,cs),
(290,-10,o),
(316,9,o),
(320,29,c),
(225,-19,o),
(174,-68,o),
(167,-115,cs),
(156,-180,o),
(199,-225,o),
(280,-225,cs)
);
},
{
closed = 1;
nodes = (
(415,327,l),
(210,325,l),
(213,340,ls),
(224,408,o),
(262,447,o),
(328,447,cs),
(393,447,o),
(418,410,o),
(407,342,cs),
(403,317,l)
);
}
);
width = 600;
},
{
anchors = (
{
name = top;
pos = (343,550);
}
);
layerId = "CCC0BD40-BA8C-414E-B576-CF0B94E6C996";
shapes = (
{
closed = 1;
nodes = (
(375,-203,l),
(384,-143,l),
(324,-143,ls),
(290,-143,o),
(273,-122,o),
(277,-93,cs),
(282,-65,o),
(305,-36,o),
(356,1,cs),
(374,14,l),
(430,39,o),
(472,83,o),
(488,140,c),
(398,140,l),
(380,91,o),
(335,66,o),
(266,66,cs),
(184,66,o),
(150,113,o),
(164,200,cs),
(172,253,l),
(508,253,l),
(523,350,ls),
(544,477,o),
(475,560,o),
(345,560,cs),
(215,560,o),
(120,477,o),
(99,350,cs),
(76,200,ls),
(56,73,o),
(124,-10,o),
(254,-10,cs),
(257,-10,o),
(261,-10,o),
(264,-10,c),
(220,-45,o),
(194,-80,o),
(190,-110,cs),
(181,-164,o),
(223,-203,o),
(297,-203,cs)
);
},
{
closed = 1;
nodes = (
(471,321,l),
(183,321,l),
(187,350,ls),
(201,437,o),
(251,485,o),
(333,485,cs),
(415,485,o),
(449,437,o),
(435,350,cs),
(425,281,l)
);
}
);
width = 600;
},
{
anchors = (
{
name = top;
pos = (343,550);
}
);
layerId = "EDF5EB54-295C-4C90-9A2F-67CD82979CFF";
shapes = (
{
closed = 1;
nodes = (
(374,-195,l),
(381,-153,l),
(317,-153,ls),
(285,-153,o),
(269,-134,o),
(274,-103,cs),
(278,-75,o),
(307,-36,o),
(351,0,cs),
(382,24,l),
(423,50,o),
(453,88,o),
(471,135,c),
(421,135,l),
(392,72,o),
(336,34,o),
(262,34,cs),
(169,34,o),
(126,94,o),
(141,190,cs),
(153,265,l),
(493,265,l),
(508,360,ls),
(527,481,o),
(467,560,o),
(346,560,cs),
(224,560,o),
(137,481,o),
(118,360,cs),
(91,190,ls),
(72,68,o),
(132,-10,o),
(255,-10,cs),
(272,-10,o),
(290,-8,o),
(305,-5,c),
(253,-48,o),
(230,-84,o),
(225,-115,cs),
(217,-165,o),
(246,-195,o),
(301,-195,cs)
);
},
{
closed = 1;
nodes = (
(472,308,l),
(160,308,l),
(168,360,ls),
(183,457,o),
(245,516,o),
(339,516,cs),
(431,516,o),
(473,456,o),
(458,360,cs),
(446,286,l)
);
}
);
width = 600;
}
);
unicode = 281;
},
{
glyphname = schwa;
layers = (
{
layerId = "9ADF6715-3D0F-493D-8567-18A6FBCFC567";
shapes = (
{
closed = 1;
nodes = (
(400,-10,o),
(508,78,o),
(529,210,cs),
(550,340,ls),
(571,472,o),
(491,560,o),
(344,560,cs),
(225,560,o),
(124,496,o),
(84,400,c),
(231,400,l),
(245,428,o),
(276,445,o),
(323,445,cs),
(390,445,o),
(418,409,o),
(407,340,cs),
(402,310,l),
(65,310,l),
(49,210,ls),
(28,78,o),
(107,-10,o),
(253,-10,cs)
);
},
{
closed = 1;
nodes = (
(207,105,o),
(181,142,o),
(192,210,cs),
(196,235,l),
(185,225,l),
(389,225,l),
(386,210,ls),
(375,142,o),
(338,105,o),
(272,105,cs)
);
}
);
width = 600;
},
{
layerId = "CCC0BD40-BA8C-414E-B576-CF0B94E6C996";
shapes = (
{
closed = 1;
nodes = (
(384,-10,o),
(478,73,o),
(498,200,cs),
(521,350,ls),
(542,477,o),
(475,560,o),
(345,560,cs),
(229,560,o),
(140,502,o),
(113,410,c),
(203,410,l),
(221,459,o),
(264,484,o),
(333,484,cs),
(415,484,o),
(447,437,o),
(433,350,cs),
(425,297,l),
(93,297,l),
(78,200,ls),
(58,73,o),
(124,-10,o),
(254,-10,cs)
);
},
{
closed = 1;
nodes = (
(184,65,o),
(152,113,o),
(166,200,cs),
(172,237,l),
(163,229,l),
(414,229,l),
(410,200,ls),
(396,113,o),
(348,65,o),
(266,65,cs)
);
}
);
width = 600;
},
{
layerId = "EDF5EB54-295C-4C90-9A2F-67CD82979CFF";
shapes = (
{
closed = 1;
nodes = (
(375,-10,o),
(462,69,o),
(481,190,cs),
(508,360,ls),
(527,482,o),
(467,560,o),
(344,560,cs),
(241,560,o),
(162,504,o),
(128,415,c),
(178,415,l),
(207,478,o),
(263,516,o),
(337,516,cs),
(430,516,o),
(473,456,o),
(458,360,cs),
(446,285,l),
(106,285,l),
(91,190,ls),
(72,69,o),
(132,-10,o),
(253,-10,cs)
);
},
{
closed = 1;
nodes = (
(168,34,o),
(126,94,o),
(141,190,cs),
(151,251,l),
(138,242,l),
(439,242,l),
(431,190,ls),
(416,93,o),
(354,34,o),
(260,34,cs)
);
}
);
width = 600;
}
);
unicode = 601;
},
{
glyphname = f;
layers = (
{
anchors = (
{
name = bottom;
pos = (256,0);
},
{
name = top;
pos = (372,730);
}
);
layerId = "CCC0BD40-BA8C-414E-B576-CF0B94E6C996";
shapes = (
{
closed = 1;
nodes = (
(73,-180,ls),
(181,-180,o),
(255,-119,o),
(271,-20,cs),
(332,353,l),
(546,353,l),
(559,435,l),
(345,435,l),
(367,570,ls),
(376,623,o),
(405,648,o),
(461,648,cs),
(587,648,l),
(600,730,l),
(475,730,ls),
(367,730,o),
(293,669,o),
(277,570,cs),
(255,435,l),
(84,435,l),
(71,353,l),
(242,353,l),
(181,-20,ls),
(172,-73,o),
(143,-98,o),
(87,-98,cs),
(13,-98,l),
(0,-180,l)
);
}
);
width = 600;
},
{
anchors = (
{
name = bottom;
pos = (256,0);
},
{
name = top;
pos = (372,730);
}
);
layerId = "EDF5EB54-295C-4C90-9A2F-67CD82979CFF";
shapes = (
{
closed = 1;
nodes = (
(98,-180,ls),
(179,-180,o),
(235,-133,o),
(248,-55,cs),
(321,389,l),
(540,389,l),
(547,434,l),
(328,434,l),
(356,605,ls),
(365,656,o),
(397,685,o),
(448,685,cs),
(587,685,l),
(595,730,l),
(456,730,ls),
(375,730,o),
(319,683,o),
(306,605,cs),
(278,434,l),
(94,434,l),
(87,389,l),
(271,389,l),
(198,-55,ls),
(189,-106,o),
(157,-135,o),
(106,-135,cs),
(8,-135,l),
(0,-180,l)
);
}
);
width = 600;
},
{
anchors = (
{
name = bottom;
pos = (256,0);
},
{
name = top;
pos = (372,730);
}
);
layerId = "9ADF6715-3D0F-493D-8567-18A6FBCFC567";
shapes = (
{
closed = 1;
nodes = (
(48,-180,ls),
(189,-180,o),
(288,-106,o),
(308,14,cs),
(354,300,l),
(549,300,l),
(571,435,l),
(376,435,l),
(395,555,ls),
(400,582,o),
(420,600,o),
(447,600,cs),
(579,600,l),
(600,730,l),
(463,730,ls),
(349,730,o),
(262,662,o),
(246,560,cs),
(226,435,l),
(74,435,l),
(52,300,l),
(204,300,l),
(159,19,ls),
(152,-31,o),
(115,-60,o),
(62,-60,cs),
(19,-60,l),
(0,-180,l)
);
}
);
width = 600;
}
);
unicode = 102;
},
{
glyphname = g;
layers = (
{
anchors = (
{
name = bottom;
pos = (213,-270);
},
{
name = top;
pos = (340,550);
}
);
layerId = "EDF5EB54-295C-4C90-9A2F-67CD82979CFF";
shapes = (
{
closed = 1;
nodes = (
(246,-180,ls),
(358,-180,o),
(426,-124,o),
(444,-15,cs),
(533,550,l),
(483,550,l),
(468,455,l),
(455,455,l),
(468,410,l),
(482,501,o),
(428,560,o),
(332,560,cs),
(219,560,o),
(137,483,o),
(118,360,cs),
(99,239,ls),
(80,119,o),
(139,40,o),
(249,40,cs),
(345,40,o),
(419,99,o),
(433,190,c),
(401,145,l),
(419,145,l),
(401,30,l),
(394,-15,ls),
(381,-94,o),
(333,-135,o),
(254,-135,cs),
(109,-135,l),
(101,-180,l)
);
},
{
closed = 1;
nodes = (
(177,83,o),
(133,141,o),
(149,239,cs),
(168,360,ls),
(184,458,o),
(246,517,o),
(335,517,cs),
(426,517,o),
(469,458,o),
(453,360,cs),
(434,239,ls),
(418,141,o),
(356,83,o),
(266,83,cs)
);
}
);
width = 600;
},
{
anchors = (
{
name = bottom;
pos = (213,-270);
},
{
name = top;
pos = (340,550);
}
);
layerId = "9ADF6715-3D0F-493D-8567-18A6FBCFC567";
shapes = (
{
closed = 1;
nodes = (
(232,-180,ls),
(373,-180,o),
(473,-106,o),
(492,14,cs),
(577,550,l),
(432,550,l),
(417,455,l),
(382,455,l),
(422,360,l),
(442,484,o),
(391,560,o),
(288,560,cs),
(177,560,o),
(92,476,o),
(71,345,cs),
(55,245,ls),
(34,113,o),
(93,30,o),
(204,30,cs),
(310,30,o),
(382,103,o),
(401,230,c),
(336,165,l),
(371,165,l),
(349,40,l),
(346,19,ls),
(339,-31,o),
(302,-60,o),
(246,-60,cs),
(91,-60,l),
(72,-180,l)
);
},
{
closed = 1;
nodes = (
(222,160,o),
(197,192,o),
(206,250,cs),
(220,340,ls),
(229,397,o),
(265,430,o),
(321,430,cs),
(376,430,o),
(403,397,o),
(394,340,cs),
(380,250,ls),
(371,192,o),
(333,160,o),
(278,160,cs)
);
}
);
width = 600;
},
{
anchors = (
{
name = bottom;
pos = (213,-270);
},
{
name = top;
pos = (340,550);
}
);
layerId = "CCC0BD40-BA8C-414E-B576-CF0B94E6C996";
shapes = (
{
closed = 1;
nodes = (
(242,-180,ls),
(360,-180,o),
(445,-111,o),
(463,0,cs),
(550,550,l),
(461,550,l),
(446,455,l),
(429,455,l),
(442,430,l),
(455,510,o),
(405,560,o),
(316,560,cs),
(203,560,o),
(119,481,o),
(100,356,cs),
(82,240,ls),
(62,114,o),
(120,38,o),
(233,38,cs),
(322,38,o),
(387,85,o),
(400,165,c),
(379,140,l),
(397,140,l),
(381,50,l),
(373,0,ls),
(363,-60,o),
(318,-98,o),
(256,-98,cs),
(101,-98,l),
(88,-180,l)
);
},
{
closed = 1;
nodes = (
(196,113,o),
(159,160,o),
(171,235,cs),
(191,360,ls),
(203,435,o),
(254,482,o),
(330,482,cs),
(404,482,o),
(442,433,o),
(429,350,cs),
(413,245,ls),
(400,162,o),
(346,113,o),
(272,113,cs)
);
}
);
width = 600;
}
);
unicode = 103;
},
{
glyphname = h;
layers = (
{
anchors = (
{
name = bottom;
pos = (256,0);
},
{
name = center;
pos = (314,365);
},
{
name = top;
pos = (207,730);
}
);
layerId = "EDF5EB54-295C-4C90-9A2F-67CD82979CFF";
shapes = (
{
closed = 1;
nodes = (
(116,0,l),
(173,360,ls),
(188,457,o),
(253,517,o),
(341,517,cs),
(427,517,o),
(471,459,o),
(455,360,cs),
(398,0,l),
(448,0,l),
(506,367,ls),
(525,485,o),
(466,560,o),
(358,560,cs),
(262,560,o),
(188,501,o),
(174,410,c),
(206,460,l),
(189,460,l),
(208,580,l),
(232,730,l),
(182,730,l),
(66,0,l)
);
}
);
width = 600;
},
{
anchors = (
{
name = bottom;
pos = (256,0);
},
{
name = center;
pos = (314,365);
},
{
name = top;
pos = (206,730);
}
);
layerId = "9ADF6715-3D0F-493D-8567-18A6FBCFC567";
shapes = (
{
closed = 1;
nodes = (
(172,0,l),
(226,340,ls),
(235,397,o),
(272,430,o),
(325,430,cs),
(378,430,o),
(405,397,o),
(396,340,cs),
(342,0,l),
(492,0,l),
(548,355,ls),
(568,479,o),
(511,560,o),
(404,560,cs),
(314,560,o),
(242,499,o),
(227,410,c),
(281,445,l),
(237,445,l),
(259,550,l),
(288,730,l),
(138,730,l),
(22,0,l)
);
}
);
width = 600;
},
{
anchors = (
{
name = bottom;
pos = (256,0);
},
{
name = center;
pos = (314,365);
},
{
name = top;
pos = (207,730);
}
);
layerId = "CCC0BD40-BA8C-414E-B576-CF0B94E6C996";
shapes = (
{
closed = 1;
nodes = (
(138,0,l),
(193,350,ls),
(206,435,o),
(261,484,o),
(336,484,cs),
(408,484,o),
(445,438,o),
(432,355,cs),
(376,0,l),
(466,0,l),
(525,370,ls),
(544,487,o),
(484,560,o),
(374,560,cs),
(282,560,o),
(219,510,o),
(205,424,c),
(227,445,l),
(208,445,l),
(225,550,l),
(254,730,l),
(164,730,l),
(48,0,l)
);
}
);
width = 600;
}
);
unicode = 104;
},
{
glyphname = idotless;
layers = (
{
anchors = (
{
name = bottom;
pos = (276,0);
},
{
name = ogonek;
pos = (290,0);
},
{
name = top;
pos = (363,550);
}
);
layerId = "9ADF6715-3D0F-493D-8567-18A6FBCFC567";
shapes = (
{
closed = 1;
nodes = (
(516,0,l),
(538,136,l),
(378,136,l),
(443,550,l),
(138,550,l),
(117,415,l),
(282,415,l),
(238,136,l),
(48,136,l),
(26,0,l)
);
}
);
width = 600;
},
{
anchors = (
{
name = bottom;
pos = (271,0);
},
{
name = ogonek;
pos = (290,0);
},
{
name = top;
pos = (358,550);
}
);
layerId = "CCC0BD40-BA8C-414E-B576-CF0B94E6C996";
shapes = (
{
closed = 1;
nodes = (
(506,0,l),
(519,82,l),
(334,82,l),
(408,550,l),
(148,550,l),
(135,468,l),
(305,468,l),
(244,82,l),
(49,82,l),
(36,0,l)
);
}
);
width = 600;
},
{
anchors = (
{
name = bottom;
pos = (271,0);
},
{
name = ogonek;
pos = (290,0);
},
{
name = top;
pos = (358,550);
}
);
layerId = "EDF5EB54-295C-4C90-9A2F-67CD82979CFF";
shapes = (
{
closed = 1;
nodes = (
(491,0,l),
(498,45,l),
(309,45,l),
(389,550,l),
(163,550,l),
(156,505,l),
(332,505,l),
(259,45,l),
(58,45,l),
(51,0,l)
);
}
);
width = 600;
}
);
unicode = 305;
},
{
glyphname = ij;
layers = (
{
layerId = "EDF5EB54-295C-4C90-9A2F-67CD82979CFF";
shapes = (
{
closed = 1;
nodes = (
(210,-180,ls),
(332,-180,o),
(413,-111,o),
(432,8,cs),
(518,550,l),
(468,550,l),
(383,12,ls),
(368,-82,o),
(308,-135,o),
(214,-135,cs),
(62,-135,l),
(54,-180,l)
);
},
{
closed = 1;
nodes = (
(133,0,l),
(220,550,l),
(170,550,l),
(83,0,l)
);
},
{
pos = (452,0);
ref = dotaccentcomb;
},
{
pos = (748,0);
ref = dotaccentcomb;
}
);
width = 600;
},
{
layerId = "CCC0BD40-BA8C-414E-B576-CF0B94E6C996";
shapes = (
{
closed = 1;
nodes = (
(204,-180,l),
(339,-180,o),
(435,-101,o),
(455,28,cs),
(538,550,l),
(448,550,l),
(366,34,ls),
(353,-48,o),
(295,-98,o),
(212,-98,c),
(48,-98,l),
(35,-180,l)
);
},
{
closed = 1;
nodes = (
(154,0,l),
(241,550,l),
(151,550,l),
(64,0,l)
);
},
{
pos = (451,0);
ref = dotaccentcomb;
},
{
pos = (749,0);
ref = dotaccentcomb;
}
);
width = 600;
},
{
layerId = "9ADF6715-3D0F-493D-8567-18A6FBCFC567";
shapes = (
{
closed = 1;
nodes = (
(223,-180,ls),
(361,-180,o),
(455,-101,o),
(477,35,cs),
(558,550,l),
(408,550,l),
(329,50,ls),
(320,-4,o),
(275,-45,o),
(224,-45,cs),
(34,-45,l),
(12,-180,l)
);
},
{
closed = 1;
nodes = (
(201,65,l),
(278,550,l),
(128,550,l),
(51,65,l)
);
},
{
pos = (460,0);
ref = dotaccentcomb;
},
{
pos = (740,0);
ref = dotaccentcomb;
}
);
width = 600;
}
);
unicode = 307;
},
{
glyphname = ij_acute;
layers = (
{
layerId = "EDF5EB54-295C-4C90-9A2F-67CD82979CFF";
shapes = (
{
alignment = -1;
pos = (766,0);
ref = acutecomb;
},
{
alignment = -1;
pos = (471,0);
ref = acutecomb;
},
{
closed = 1;
nodes = (
(210,-180,ls),
(332,-180,o),
(413,-111,o),
(432,8,cs),
(518,550,l),
(468,550,l),
(383,12,ls),
(368,-82,o),
(308,-135,o),
(214,-135,cs),
(62,-135,l),
(54,-180,l)
);
},
{
closed = 1;
nodes = (
(133,0,l),
(220,550,l),
(170,550,l),
(83,0,l)
);
}
);
width = 600;
},
{
layerId = "CCC0BD40-BA8C-414E-B576-CF0B94E6C996";
shapes = (
{
alignment = -1;
pos = (765,0);
ref = acutecomb;
},
{
alignment = -1;
pos = (476,0);
ref = acutecomb;
},
{
closed = 1;
nodes = (
(204,-180,l),
(339,-180,o),
(435,-101,o),
(455,28,cs),
(538,550,l),
(448,550,l),
(366,34,ls),
(353,-48,o),
(295,-98,o),
(212,-98,c),
(48,-98,l),
(35,-180,l)
);
},
{
closed = 1;
nodes = (
(154,0,l),
(241,550,l),
(151,550,l),
(64,0,l)
);
}
);
width = 600;
},
{
layerId = "9ADF6715-3D0F-493D-8567-18A6FBCFC567";
shapes = (
{
alignment = -1;
pos = (760,0);
ref = acutecomb;
},
{
alignment = -1;
pos = (476,0);
ref = acutecomb;
},
{
closed = 1;
nodes = (
(223,-180,ls),
(361,-180,o),
(455,-101,o),
(477,35,cs),
(558,550,l),
(408,550,l),
(329,50,ls),
(320,-4,o),
(275,-45,o),
(224,-45,cs),
(34,-45,l),
(12,-180,l)
);
},
{
closed = 1;
nodes = (
(201,65,l),
(278,550,l),
(128,550,l),
(51,65,l)
);
}
);
width = 600;
}
);
},
{
glyphname = iogonek;
layers = (
{
layerId = "EDF5EB54-295C-4C90-9A2F-67CD82979CFF";
shapes = (
{
closed = 1;
nodes = (
(315,-195,l),
(322,-153,l),
(258,-153,ls),
(226,-153,o),
(210,-134,o),
(215,-103,cs),
(219,-75,o),
(248,-36,o),
(292,0,cs),
(305,10,l),
(268,10,l),
(211,-27,o),
(172,-74,o),
(166,-115,cs),
(158,-165,o),
(187,-195,o),
(242,-195,c)
);
},
{
ref = idotless;
},
{
pos = (614,0);
ref = dotaccentcomb;
}
);
width = 600;
},
{
layerId = "CCC0BD40-BA8C-414E-B576-CF0B94E6C996";
shapes = (
{
closed = 1;
nodes = (
(324,-203,l),
(333,-143,l),
(273,-143,ls),
(239,-143,o),
(222,-122,o),
(226,-93,cs),
(231,-65,o),
(254,-36,o),
(305,1,c),
(318,10,l),
(243,10,l),
(173,-34,o),
(145,-72,o),
(139,-110,cs),
(130,-164,o),
(172,-203,o),
(246,-203,cs)
);
},
{
ref = idotless;
},
{
pos = (615,0);
ref = dotaccentcomb;
}
);
width = 600;
},
{
layerId = "9ADF6715-3D0F-493D-8567-18A6FBCFC567";
shapes = (
{
closed = 1;
nodes = (
(344,-225,l),
(361,-120,l),
(292,-120,ls),
(263,-120,o),
(249,-103,o),
(252,-83,cs),
(255,-66,o),
(273,-42,o),
(303,-18,cs),
(340,11,l),
(254,11,l),
(181,-19,o),
(130,-68,o),
(123,-115,cs),
(112,-180,o),
(155,-225,o),
(236,-225,cs)
);
},
{
ref = idotless;
},
{
pos = (620,0);
ref = dotaccentcomb;
}
);
width = 600;
}
);
unicode = 303;
},
{
glyphname = jdotless;
layers = (
{
anchors = (
{
name = bottom;
pos = (213,-270);
},
{
name = top;
pos = (433,550);
}
);
layerId = "9ADF6715-3D0F-493D-8567-18A6FBCFC567";
shapes = (
{
closed = 1;
nodes = (
(173,-180,ls),
(316,-180,o),
(410,-100,o),
(432,40,cs),
(513,550,l),
(113,550,l),
(92,415,l),
(342,415,l),
(283,45,ls),
(275,-9,o),
(235,-45,o),
(184,-45,cs),
(24,-45,l),
(2,-180,l)
);
}
);
width = 600;
},
{
anchors = (
{
name = bottom;
pos = (208,-270);
},
{
name = top;
pos = (423,550);
}
);
layerId = "CCC0BD40-BA8C-414E-B576-CF0B94E6C996";
shapes = (
{
closed = 1;
nodes = (
(141,-180,ls),
(281,-180,o),
(374,-103,o),
(396,31,cs),
(478,550,l),
(128,550,l),
(115,468,l),
(375,468,l),
(306,31,ls),
(293,-51,o),
(237,-98,o),
(154,-98,cs),
(30,-98,l),
(17,-180,l)
);
}
);
width = 600;
},
{
anchors = (
{
name = bottom;
pos = (209,-270);
},
{
name = top;
pos = (423,550);
}
);
layerId = "EDF5EB54-295C-4C90-9A2F-67CD82979CFF";
shapes = (
{
closed = 1;
nodes = (
(153,-180,ls),
(277,-180,o),
(359,-111,o),
(378,10,cs),
(463,550,l),
(148,550,l),
(141,505,l),
(406,505,l),
(328,10,ls),
(313,-82,o),
(253,-135,o),
(161,-135,cs),
(45,-135,l),
(37,-180,l)
);
}
);
width = 600;
}
);
unicode = 567;
},
{
glyphname = k;
layers = (
{
anchors = (
{
name = bottom;
pos = (256,0);
},
{
name = top;
pos = (372,730);
}
);
layerId = "EDF5EB54-295C-4C90-9A2F-67CD82979CFF";
shapes = (
{
closed = 1;
nodes = (
(121,0,l),
(163,264,l),
(296,264,l),
(433,0,l),
(489,0,l),
(340,289,l),
(566,550,l),
(505,550,l),
(296,309,l),
(170,309,l),
(237,730,l),
(187,730,l),
(71,0,l)
);
}
);
width = 600;
},
{
anchors = (
{
name = bottom;
pos = (256,0);
},
{
name = top;
pos = (372,730);
}
);
layerId = "CCC0BD40-BA8C-414E-B576-CF0B94E6C996";
shapes = (
{
closed = 1;
nodes = (
(143,0,l),
(182,245,l),
(293,245,l),
(414,0,l),
(515,0,l),
(372,288,l),
(592,550,l),
(485,550,l),
(295,323,l),
(194,323,l),
(259,730,l),
(169,730,l),
(53,0,l)
);
}
);
width = 600;
},
{
anchors = (
{
name = bottom;
pos = (256,0);
},
{
name = top;
pos = (372,730);
}
);
layerId = "9ADF6715-3D0F-493D-8567-18A6FBCFC567";
shapes = (
{
closed = 1;
nodes = (
(177,0,l),
(211,216,l),
(291,216,l),
(372,0,l),
(536,0,l),
(425,281,l),
(620,550,l),
(451,550,l),
(303,342,l),
(231,342,l),
(293,730,l),
(143,730,l),
(27,0,l)
);
}
);
width = 600;
}
);
unicode = 107;
},
{
glyphname = l;
layers = (
{
anchors = (
{
name = bottom;
pos = (276,0);
},
{
name = center;
pos = (314,365);
},
{
name = top;
pos = (302,730);
}
);
layerId = "EDF5EB54-295C-4C90-9A2F-67CD82979CFF";
shapes = (
{
closed = 1;
nodes = (
(496,0,l),
(503,45,l),
(333,45,ls),
(274,45,o),
(248,76,o),
(257,135,cs),
(352,730,l),
(122,730,l),
(114,685,l),
(294,685,l),
(207,135,ls),
(194,48,o),
(236,0,o),
(326,0,cs)
);
}
);
width = 600;
},
{
anchors = (
{
name = bottom;
pos = (276,0);
},
{
name = center;
pos = (314,365);
},
{
name = top;
pos = (342,730);
}
);
layerId = "9ADF6715-3D0F-493D-8567-18A6FBCFC567";
shapes = (
{
closed = 1;
nodes = (
(521,0,l),
(542,135,l),
(387,135,ls),
(351,135,o),
(331,161,o),
(338,200,cs),
(422,730,l),
(97,730,l),
(75,595,l),
(250,595,l),
(187,195,ls),
(168,78,o),
(234,0,o),
(351,0,cs)
);
}
);
width = 600;
},
{
anchors = (
{
name = bottom;
pos = (276,0);
},
{
name = center;
pos = (314,365);
},
{
name = top;
pos = (312,730);
}
);
layerId = "CCC0BD40-BA8C-414E-B576-CF0B94E6C996";
shapes = (
{
closed = 1;
nodes = (
(506,0,l),
(519,82,l),
(349,82,ls),
(306,82,o),
(283,110,o),
(291,155,cs),
(382,730,l),
(102,730,l),
(89,648,l),
(279,648,l),
(201,155,ls),
(186,61,o),
(239,0,o),
(336,0,cs)
);
}
);
width = 600;
}
);
unicode = 108;
},
{
glyphname = lambdastroke;
layers = (
{
layerId = "EDF5EB54-295C-4C90-9A2F-67CD82979CFF";
shapes = (
{
closed = 1;
nodes = (
(534,692,l),
(542,740,l),
(132,550,l),
(124,502,l)
);
},
{
ref = lambda;
}
);
width = 600;
},
{
layerId = "CCC0BD40-BA8C-414E-B576-CF0B94E6C996";
shapes = (
{
closed = 1;
nodes = (
(529,660,l),
(542,740,l),
(132,550,l),
(119,470,l)
);
},
{
ref = lambda;
}
);
width = 600;
},
{
layerId = "9ADF6715-3D0F-493D-8567-18A6FBCFC567";
shapes = (
{
closed = 1;
nodes = (
(525,635,l),
(542,740,l),
(132,550,l),
(115,445,l)
);
},
{
ref = lambda;
}
);
width = 600;
}
);
unicode = 411;
},
{
glyphname = lslash;
layers = (
{
layerId = "9ADF6715-3D0F-493D-8567-18A6FBCFC567";
shapes = (
{
closed = 1;
nodes = (
(480,420,l),
(480,560,l),
(100,370,l),
(100,230,l)
);
},
{
alignment = -1;
ref = l;
}
);
width = 600;
},
{
layerId = "CCC0BD40-BA8C-414E-B576-CF0B94E6C996";
shapes = (
{
closed = 1;
nodes = (
(470,480,l),
(470,560,l),
(100,310,l),
(100,230,l)
);
},
{
alignment = -1;
ref = l;
}
);
width = 600;
},
{
layerId = "EDF5EB54-295C-4C90-9A2F-67CD82979CFF";
shapes = (
{
closed = 1;
nodes = (
(470,495,l),
(470,550,l),
(100,295,l),
(100,240,l)
);
},
{
alignment = -1;
ref = l;
}
);
width = 600;
}
);
unicode = 322;
},
{
glyphname = m;
layers = (
{
anchors = (
{
name = bottom;
pos = (256,0);
},
{
name = top;
pos = (343,550);
}
);
layerId = "EDF5EB54-295C-4C90-9A2F-67CD82979CFF";
shapes = (
{
closed = 1;
nodes = (
(80,0,l),
(147,425,ls),
(156,482,o),
(192,518,o),
(239,518,cs),
(285,518,o),
(308,482,o),
(299,425,cs),
(232,0,l),
(280,0,l),
(347,425,ls),
(356,482,o),
(392,518,o),
(439,518,cs),
(485,518,o),
(508,482,o),
(499,425,cs),
(432,0,l),
(481,0,l),
(549,431,ls),
(562,510,o),
(528,560,o),
(461,560,cs),
(400,560,o),
(356,522,o),
(346,461,c),
(357,475,l),
(344,475,l),
(351,461,l),
(353,522,o),
(318,560,o),
(261,560,cs),
(203,560,o),
(160,522,o),
(150,461,c),
(156,475,l),
(150,475,l),
(162,550,l),
(118,550,l),
(31,0,l)
);
}
);
width = 600;
},
{
anchors = (
{
name = bottom;
pos = (256,0);
},
{
name = top;
pos = (343,550);
}
);
layerId = "9ADF6715-3D0F-493D-8567-18A6FBCFC567";
shapes = (
{
closed = 1;
nodes = (
(123,0,l),
(187,403,ls),
(192,434,o),
(207,451,o),
(232,451,cs),
(257,451,o),
(266,434,o),
(261,403,cs),
(197,0,l),
(315,0,l),
(379,403,ls),
(384,434,o),
(397,451,o),
(422,451,cs),
(447,451,o),
(458,434,o),
(453,403,cs),
(389,0,l),
(518,0,l),
(585,420,ls),
(598,502,o),
(556,560,o),
(491,560,cs),
(435,560,o),
(389,518,o),
(379,454,c),
(391,465,l),
(363,465,l),
(380,440,l),
(391,510,o),
(356,560,o),
(300,560,cs),
(244,560,o),
(201,516,o),
(191,454,c),
(212,465,l),
(191,465,l),
(204,550,l),
(81,550,l),
(-6,0,l)
);
}
);
width = 600;
},
{
anchors = (
{
name = bottom;
pos = (256,0);
},
{
name = top;
pos = (343,550);
}
);
layerId = "CCC0BD40-BA8C-414E-B576-CF0B94E6C996";
shapes = (
{
closed = 1;
nodes = (
(100,0,l),
(167,420,ls),
(173,464,o),
(201,491,o),
(238,491,cs),
(274,491,o),
(292,463,o),
(285,419,cs),
(219,0,l),
(293,0,l),
(360,420,ls),
(366,464,o),
(394,491,o),
(430,491,cs),
(467,491,o),
(485,463,o),
(478,419,cs),
(412,0,l),
(496,0,l),
(562,418,ls),
(576,502,o),
(539,560,o),
(469,560,cs),
(411,560,o),
(365,519,o),
(356,460,c),
(383,477,l),
(341,477,l),
(360,430,l),
(372,507,o),
(341,560,o),
(277,560,cs),
(221,560,o),
(177,519,o),
(168,460,c),
(190,477,l),
(170,477,l),
(181,550,l),
(103,550,l),
(16,0,l)
);
}
);
width = 600;
}
);
unicode = 109;
},
{
glyphname = n;
layers = (
{
anchors = (
{
name = bottom;
pos = (256,0);
},
{
name = top;
pos = (348,550);
}
);
layerId = "EDF5EB54-295C-4C90-9A2F-67CD82979CFF";
shapes = (
{
closed = 1;
nodes = (
(116,0,l),
(173,360,ls),
(188,457,o),
(253,517,o),
(341,517,cs),
(427,517,o),
(471,459,o),
(455,360,cs),
(398,0,l),
(448,0,l),
(506,367,ls),
(525,485,o),
(466,560,o),
(358,560,cs),
(259,560,o),
(187,500,o),
(172,404,c),
(201,455,l),
(188,455,l),
(203,550,l),
(153,550,l),
(66,0,l)
);
}
);
width = 600;
},
{
anchors = (
{
name = bottom;
pos = (256,0);
},
{
name = top;
pos = (348,550);
}
);
layerId = "9ADF6715-3D0F-493D-8567-18A6FBCFC567";
shapes = (
{
closed = 1;
nodes = (
(172,0,l),
(226,340,ls),
(235,397,o),
(272,430,o),
(325,430,cs),
(378,430,o),
(405,397,o),
(396,340,cs),
(342,0,l),
(492,0,l),
(548,355,ls),
(568,479,o),
(511,560,o),
(404,560,cs),
(314,560,o),
(242,499,o),
(227,410,c),
(281,445,l),
(237,445,l),
(254,550,l),
(109,550,l),
(22,0,l)
);
}
);
width = 600;
},
{
anchors = (
{
name = bottom;
pos = (256,0);
},
{
name = top;
pos = (348,550);
}
);
layerId = "CCC0BD40-BA8C-414E-B576-CF0B94E6C996";
shapes = (
{
closed = 1;
nodes = (
(138,0,l),
(193,350,ls),
(207,435,o),
(261,484,o),
(336,484,cs),
(408,484,o),
(445,438,o),
(432,354,cs),
(376,0,l),
(466,0,l),
(525,370,ls),
(543,487,o),
(484,560,o),
(374,560,cs),
(282,560,o),
(219,510,o),
(205,424,c),
(227,445,l),
(208,445,l),
(225,550,l),
(135,550,l),
(48,0,l)
);
}
);
width = 600;
}
);
unicode = 110;
},
{
glyphname = eng;
layers = (
{
layerId = "9ADF6715-3D0F-493D-8567-18A6FBCFC567";
shapes = (
{
closed = 1;
nodes = (
(223,-180,ls),
(364,-180,o),
(477,-96,o),
(496,25,cs),
(548,355,ls),
(568,479,o),
(511,560,o),
(404,560,cs),
(313,560,o),
(247,503,o),
(232,410,c),
(281,445,l),
(237,445,l),
(254,550,l),
(109,550,l),
(22,0,l),
(172,0,l),
(226,340,ls),
(235,397,o),
(271,430,o),
(324,430,cs),
(378,430,o),
(405,397,o),
(396,340,cs),
(348,41,ls),
(341,-7,o),
(307,-35,o),
(256,-35,cs),
(196,-35,l),
(173,-180,l)
);
}
);
width = 600;
},
{
layerId = "CCC0BD40-BA8C-414E-B576-CF0B94E6C996";
shapes = (
{
closed = 1;
nodes = (
(230,-180,ls),
(354,-180,o),
(448,-103,o),
(466,15,cs),
(523,370,ls),
(541,487,o),
(484,560,o),
(374,560,cs),
(282,560,o),
(221,510,o),
(207,424,c),
(229,445,l),
(210,445,l),
(227,550,l),
(137,550,l),
(50,0,l),
(140,0,l),
(195,350,ls),
(209,435,o),
(261,484,o),
(336,484,cs),
(408,484,o),
(443,438,o),
(431,360,cs),
(376,15,ls),
(365,-55,o),
(314,-98,o),
(243,-98,cs),
(180,-98,l),
(167,-180,l)
);
}
);
width = 600;
},
{
layerId = "EDF5EB54-295C-4C90-9A2F-67CD82979CFF";
shapes = (
{
closed = 1;
nodes = (
(213,-180,ls),
(338,-180,o),
(432,-104,o),
(450,15,cs),
(506,367,ls),
(525,485,o),
(466,560,o),
(358,560,cs),
(260,560,o),
(188,499,o),
(173,404,c),
(211,455,l),
(188,455,l),
(203,550,l),
(153,550,l),
(66,0,l),
(116,0,l),
(173,360,ls),
(188,457,o),
(253,517,o),
(341,517,cs),
(427,517,o),
(471,459,o),
(455,360,cs),
(400,15,ls),
(386,-78,o),
(317,-135,o),
(221,-135,cs),
(180,-135,l),
(172,-180,l)
);
}
);
width = 600;
}
);
unicode = 331;
},
{
glyphname = o;
layers = (
{
anchors = (
{
name = bottom;
pos = (256,0);
},
{
name = center;
pos = (300,275);
},
{
name = horn;
pos = (363,550);
},
{
name = ogonek;
pos = (305,0);
},
{
name = top;
pos = (343,550);
},
{
name = topright;
pos = (624,550);
}
);
layerId = "9ADF6715-3D0F-493D-8567-18A6FBCFC567";
shapes = (
{
closed = 1;
nodes = (
(407,-10,o),
(506,70,o),
(529,210,cs),
(550,340,ls),
(571,470,o),
(490,560,o),
(345,560,cs),
(192,560,o),
(93,480,o),
(70,340,cs),
(49,210,ls),
(28,80,o),
(109,-10,o),
(254,-10,cs)
);
},
{
closed = 1;
nodes = (
(217,120,o),
(190,152,o),
(199,210,cs),
(220,340,ls),
(229,398,o),
(266,430,o),
(324,430,cs),
(382,430,o),
(409,398,o),
(400,340,cs),
(379,210,ls),
(370,152,o),
(333,120,o),
(275,120,cs)
);
}
);
width = 600;
},
{
anchors = (
{
name = bottom;
pos = (256,0);
},
{
name = center;
pos = (300,275);
},
{
name = horn;
pos = (375,550);
},
{
name = ogonek;
pos = (305,0);
},
{
name = top;
pos = (343,550);
},
{
name = topright;
pos = (624,550);
}
);
layerId = "CCC0BD40-BA8C-414E-B576-CF0B94E6C996";
shapes = (
{
closed = 1;
nodes = (
(389,-10,o),
(479,67,o),
(500,200,cs),
(524,351,ls),
(544,479,o),
(474,560,o),
(345,560,cs),
(209,560,o),
(119,483,o),
(99,350,cs),
(76,200,ls),
(56,71,o),
(125,-10,o),
(254,-10,cs)
);
},
{
closed = 1;
nodes = (
(189,70,o),
(153,115,o),
(166,200,cs),
(189,350,ls),
(202,435,o),
(254,480,o),
(332,480,cs),
(410,480,o),
(446,435,o),
(433,350,cs),
(410,200,ls),
(397,115,o),
(345,70,o),
(267,70,cs)
);
}
);
visible = 1;
width = 600;
},
{
anchors = (
{
name = bottom;
pos = (256,0);
},
{
name = center;
pos = (300,275);
},
{
name = horn;
pos = (363,550);
},
{
name = ogonek;
pos = (305,0);
},
{
name = top;
pos = (343,550);
},
{
name = topright;
pos = (624,550);
}
);
layerId = "EDF5EB54-295C-4C90-9A2F-67CD82979CFF";
shapes = (
{
closed = 1;
nodes = (
(377,-10,o),
(461,66,o),
(481,190,cs),
(508,360,ls),
(527,481,o),
(463,560,o),
(345,560,cs),
(223,560,o),
(138,483,o),
(118,360,cs),
(91,190,ls),
(72,68,o),
(136,-10,o),
(254,-10,cs)
);
},
{
closed = 1;
nodes = (
(169,34,o),
(125,91,o),
(141,190,cs),
(168,360,ls),
(184,458,o),
(247,516,o),
(338,516,cs),
(429,516,o),
(474,458,o),
(458,360,cs),
(431,190,ls),
(415,91,o),
(353,34,o),
(261,34,cs)
);
}
);
width = 600;
}
);
unicode = 111;
},
{
glyphname = ohorn;
layers = (
{
anchors = (
{
name = top;
pos = (340,550);
}
);
layerId = "EDF5EB54-295C-4C90-9A2F-67CD82979CFF";
shapes = (
{
closed = 1;
nodes = (
(475,495,ls),
(526,495,o),
(565,529,o),
(573,580,cs),
(583,640,l),
(543,640,l),
(533,580,ls),
(528,550,o),
(508,530,o),
(481,530,cs),
(446,530,l),
(440,495,l)
);
},
{
ref = o;
}
);
width = 600;
},
{
anchors = (
{
name = top;
pos = (333,550);
}
);
layerId = "CCC0BD40-BA8C-414E-B576-CF0B94E6C996";
shapes = (
{
closed = 1;
nodes = (
(465,465,ls),
(528,465,o),
(576,503,o),
(585,560,cs),
(597,640,l),
(522,640,l),
(510,565,ls),
(507,542,o),
(493,530,o),
(470,530,cs),
(436,530,l),
(426,465,l)
);
},
{
ref = o;
}
);
width = 600;
},
{
anchors = (
{
name = top;
pos = (333,550);
}
);
layerId = "9ADF6715-3D0F-493D-8567-18A6FBCFC567";
shapes = (
{
closed = 1;
nodes = (
(459,430,ls),
(546,430,o),
(613,484,o),
(625,565,cs),
(637,640,l),
(517,640,l),
(505,565,ls),
(502,543,o),
(487,530,o),
(465,530,cs),
(405,530,l),
(389,430,l)
);
},
{
ref = o;
}
);
width = 600;
}
);
unicode = 417;
},
{
glyphname = oogonek;
layers = (
{
anchors = (
{
name = horn;
pos = (363,550);
},
{
name = top;
pos = (343,550);
}
);
layerId = "9ADF6715-3D0F-493D-8567-18A6FBCFC567";
shapes = (
{
closed = 1;
nodes = (
(387,-225,l),
(404,-120,l),
(335,-120,ls),
(306,-120,o),
(292,-103,o),
(295,-83,cs),
(298,-66,o),
(316,-41,o),
(346,-18,cs),
(410,31,l),
(470,70,o),
(517,135,o),
(529,210,cs),
(550,340,ls),
(571,472,o),
(492,560,o),
(345,560,cs),
(198,560,o),
(91,472,o),
(70,340,cs),
(49,210,ls),
(28,78,o),
(107,-10,o),
(254,-10,cs),
(275,-10,o),
(321,12,o),
(324,31,c),
(224,-19,o),
(173,-68,o),
(166,-115,cs),
(155,-180,o),
(198,-225,o),
(279,-225,cs)
);
},
{
closed = 1;
nodes = (
(217,120,o),
(190,152,o),
(199,210,cs),
(220,340,ls),
(229,398,o),
(266,430,o),
(324,430,cs),
(382,430,o),
(409,398,o),
(400,340,cs),
(379,210,ls),
(370,152,o),
(333,120,o),
(275,120,cs)
);
}
);
width = 600;
},
{
anchors = (
{
name = horn;
pos = (375,550);
},
{
name = top;
pos = (343,550);
}
);
layerId = "CCC0BD40-BA8C-414E-B576-CF0B94E6C996";
shapes = (
{
closed = 1;
nodes = (
(374,-203,l),
(383,-143,l),
(323,-143,ls),
(289,-143,o),
(272,-122,o),
(276,-93,cs),
(281,-65,o),
(304,-36,o),
(355,1,cs),
(382,21,l),
(445,55,o),
(487,117,o),
(500,200,cs),
(524,351,ls),
(544,481,o),
(476,560,o),
(345,560,cs),
(214,560,o),
(120,481,o),
(99,350,cs),
(76,200,ls),
(55,69,o),
(123,-10,o),
(254,-10,cs),
(257,-10,o),
(260,-10,o),
(263,-10,c),
(211,-51,o),
(193,-81,o),
(189,-110,cs),
(180,-164,o),
(222,-203,o),
(296,-203,cs)
);
},
{
closed = 1;
nodes = (
(189,70,o),
(152,115,o),
(166,200,cs),
(189,350,ls),
(203,435,o),
(254,480,o),
(332,480,cs),
(410,480,o),
(447,435,o),
(433,350,cs),
(410,200,ls),
(396,115,o),
(345,70,o),
(267,70,cs)
);
}
);
width = 600;
},
{
anchors = (
{
name = horn;
pos = (363,550);
},
{
name = top;
pos = (343,550);
}
);
layerId = "EDF5EB54-295C-4C90-9A2F-67CD82979CFF";
shapes = (
{
closed = 1;
nodes = (
(371,-195,l),
(378,-153,l),
(314,-153,ls),
(282,-153,o),
(266,-134,o),
(271,-103,cs),
(275,-75,o),
(304,-36,o),
(348,0,cs),
(379,25,l),
(432,59,o),
(469,116,o),
(481,190,cs),
(508,360,ls),
(527,481,o),
(463,560,o),
(345,560,cs),
(227,560,o),
(137,481,o),
(118,360,cs),
(91,190,ls),
(72,68,o),
(136,-10,o),
(254,-10,cs),
(270,-10,o),
(287,-9,o),
(301,-6,c),
(252,-47,o),
(227,-83,o),
(222,-115,cs),
(214,-165,o),
(243,-195,o),
(298,-195,cs)
);
},
{
closed = 1;
nodes = (
(169,34,o),
(125,91,o),
(141,190,cs),
(168,360,ls),
(184,458,o),
(247,516,o),
(338,516,cs),
(429,516,o),
(474,458,o),
(458,360,cs),
(431,190,ls),
(415,91,o),
(353,34,o),
(261,34,cs)
);
}
);
width = 600;
}
);
unicode = 491;
},
{
glyphname = oslash;
layers = (
{
anchors = (
{
name = bottom;
pos = (256,0);
},
{
name = horn;
pos = (363,550);
},
{
name = top;
pos = (343,550);
}
);
layerId = "9ADF6715-3D0F-493D-8567-18A6FBCFC567";
shapes = (
{
closed = 1;
nodes = (
(91,-30,l),
(624,590,l),
(509,590,l),
(-24,-30,l)
);
},
{
closed = 1;
nodes = (
(401,-10,o),
(508,78,o),
(529,210,cs),
(550,340,ls),
(571,472,o),
(492,560,o),
(345,560,cs),
(198,560,o),
(91,472,o),
(70,340,cs),
(49,210,ls),
(28,78,o),
(107,-10,o),
(254,-10,cs)
);
},
{
closed = 1;
nodes = (
(212,120,o),
(180,154,o),
(189,210,cs),
(210,340,ls),
(219,396,o),
(261,430,o),
(324,430,cs),
(387,430,o),
(419,396,o),
(410,340,cs),
(389,210,ls),
(380,154,o),
(338,120,o),
(275,120,cs)
);
}
);
width = 600;
},
{
anchors = (
{
name = bottom;
pos = (256,0);
},
{
name = horn;
pos = (375,550);
},
{
name = top;
pos = (343,550);
}
);
layerId = "CCC0BD40-BA8C-414E-B576-CF0B94E6C996";
shapes = (
{
closed = 1;
nodes = (
(78,-30,l),
(614,590,l),
(521,590,l),
(-14,-30,l)
);
},
{
closed = 1;
nodes = (
(385,-10,o),
(479,69,o),
(500,200,cs),
(524,351,ls),
(545,481,o),
(476,560,o),
(345,560,cs),
(214,560,o),
(119,481,o),
(99,350,cs),
(76,200,ls),
(56,69,o),
(123,-10,o),
(254,-10,cs)
);
},
{
closed = 1;
nodes = (
(187,70,o),
(148,118,o),
(161,200,cs),
(184,350,ls),
(197,432,o),
(252,480,o),
(332,480,cs),
(412,480,o),
(451,432,o),
(438,350,cs),
(415,200,ls),
(402,118,o),
(347,70,o),
(267,70,cs)
);
}
);
width = 600;
},
{
anchors = (
{
name = bottom;
pos = (256,0);
},
{
name = horn;
pos = (363,550);
},
{
name = top;
pos = (343,550);
}
);
layerId = "EDF5EB54-295C-4C90-9A2F-67CD82979CFF";
shapes = (
{
closed = 1;
nodes = (
(61,-30,l),
(590,590,l),
(539,590,l),
(10,-30,l)
);
},
{
closed = 1;
nodes = (
(373,-10,o),
(462,68,o),
(481,190,cs),
(508,360,ls),
(527,481,o),
(463,560,o),
(345,560,cs),
(227,560,o),
(137,481,o),
(118,360,cs),
(91,190,ls),
(72,68,o),
(136,-10,o),
(254,-10,cs)
);
},
{
closed = 1;
nodes = (
(169,34,o),
(125,91,o),
(141,190,cs),
(168,360,ls),
(184,458,o),
(247,516,o),
(338,516,cs),
(429,516,o),
(474,458,o),
(458,360,cs),
(431,190,ls),
(415,91,o),
(353,34,o),
(261,34,cs)
);
}
);
width = 600;
}
);
unicode = 248;
},
{
glyphname = oe;
layers = (
{
layerId = "9ADF6715-3D0F-493D-8567-18A6FBCFC567";
shapes = (
{
closed = 1;
nodes = (
(208,-10,o),
(251,33,o),
(262,65,c),
(270,65,l),
(270,33,o),
(297,-10,o),
(374,-10,cs),
(461,-10,o),
(529,50,o),
(543,140,c),
(428,140,l),
(423,106,o),
(403,87,o),
(374,87,cs),
(345,87,o),
(330,107,o),
(335,140,cs),
(353,250,l),
(561,250,l),
(586,410,ls),
(600,500,o),
(552,560,o),
(465,560,cs),
(388,560,o),
(347,517,o),
(337,485,c),
(329,485,l),
(328,517,o),
(299,560,o),
(225,560,cs),
(138,560,o),
(70,500,o),
(56,410,cs),
(13,140,ls),
(-1,50,o),
(47,-10,o),
(134,-10,cs)
);
},
{
closed = 1;
nodes = (
(138,87,o),
(123,107,o),
(128,140,cs),
(171,410,ls),
(176,443,o),
(197,463,o),
(226,463,cs),
(255,463,o),
(269,444,o),
(264,410,cs),
(221,140,ls),
(216,106,o),
(196,87,o),
(167,87,cs)
);
},
{
closed = 1;
nodes = (
(378,410,ls),
(383,443,o),
(403,463,o),
(433,463,cs),
(462,463,o),
(476,444,o),
(471,410,cs),
(458,330,l),
(365,330,l)
);
}
);
width = 600;
},
{
layerId = "CCC0BD40-BA8C-414E-B576-CF0B94E6C996";
shapes = (
{
closed = 1;
nodes = (
(214,-10,o),
(257,36,o),
(265,70,c),
(269,70,l),
(267,36,o),
(294,-10,o),
(374,-10,cs),
(448,-10,o),
(512,42,o),
(538,125,c),
(453,125,l),
(441,90,o),
(411,67,o),
(377,67,cs),
(336,67,o),
(315,99,o),
(323,150,cs),
(339,250,l),
(561,250,l),
(584,400,ls),
(600,498,o),
(554,560,o),
(465,560,cs),
(385,560,o),
(342,514,o),
(334,480,c),
(330,480,l),
(332,514,o),
(305,560,o),
(225,560,cs),
(136,560,o),
(70,498,o),
(54,400,cs),
(15,150,ls),
(-1,52,o),
(45,-10,o),
(134,-10,cs)
);
},
{
closed = 1;
nodes = (
(114,67,o),
(92,99,o),
(100,150,cs),
(139,400,ls),
(147,451,o),
(179,483,o),
(222,483,cs),
(263,483,o),
(284,451,o),
(276,400,cs),
(237,150,ls),
(229,99,o),
(198,67,o),
(157,67,cs)
);
},
{
closed = 1;
nodes = (
(362,400,ls),
(370,451,o),
(401,483,o),
(442,483,cs),
(485,483,o),
(507,451,o),
(499,400,cs),
(487,323,l),
(350,323,l)
);
}
);
width = 600;
},
{
layerId = "EDF5EB54-295C-4C90-9A2F-67CD82979CFF";
shapes = (
{
closed = 1;
nodes = (
(209,-10,o),
(256,38,o),
(269,75,c),
(272,75,l),
(273,38,o),
(303,-10,o),
(380,-10,cs),
(461,-10,o),
(527,43,o),
(547,125,c),
(497,125,l),
(483,71,o),
(438,34,o),
(384,34,cs),
(327,34,o),
(295,77,o),
(305,140,cs),
(324,260,l),
(562,260,l),
(586,410,ls),
(600,501,o),
(555,560,o),
(468,560,cs),
(397,560,o),
(350,511,o),
(335,474,c),
(333,474,l),
(332,511,o),
(302,560,o),
(225,560,cs),
(137,560,o),
(70,500,o),
(56,408,cs),
(13,139,ls),
(-1,48,o),
(43,-10,o),
(128,-10,cs)
);
},
{
closed = 1;
nodes = (
(86,34,o),
(54,76,o),
(64,139,cs),
(107,408,ls),
(117,473,o),
(163,516,o),
(221,516,cs),
(278,516,o),
(309,473,o),
(299,410,cs),
(256,140,ls),
(246,77,o),
(201,34,o),
(144,34,cs)
);
},
{
closed = 1;
nodes = (
(348,410,ls),
(358,473,o),
(402,516,o),
(458,516,cs),
(515,516,o),
(546,473,o),
(536,410,cs),
(520,310,l),
(332,310,l)
);
}
);
width = 600;
}
);
unicode = 339;
},
{
glyphname = p;
layers = (
{
anchors = (
{
name = bottom;
pos = (256,0);
},
{
name = top;
pos = (343,550);
}
);
layerId = "EDF5EB54-295C-4C90-9A2F-67CD82979CFF";
shapes = (
{
closed = 1;
nodes = (
(87,-180,l),
(116,0,l),
(131,95,l),
(149,95,l),
(128,140,l),
(114,52,o),
(172,-10,o),
(267,-10,cs),
(383,-10,o),
(461,63,o),
(481,190,cs),
(508,361,ls),
(527,479,o),
(466,560,o),
(358,560,cs),
(255,560,o),
(186,505,o),
(171,410,c),
(206,455,l),
(188,455,l),
(203,550,l),
(153,550,l),
(37,-180,l)
);
},
{
closed = 1;
nodes = (
(174,33,o),
(130,91,o),
(146,190,cs),
(173,361,ls),
(188,459,o),
(251,517,o),
(341,517,cs),
(430,517,o),
(473,459,o),
(458,361,cs),
(431,190,ls),
(415,91,o),
(353,33,o),
(264,33,cs)
);
}
);
width = 600;
},
{
anchors = (
{
name = bottom;
pos = (256,0);
},
{
name = top;
pos = (343,550);
}
);
layerId = "9ADF6715-3D0F-493D-8567-18A6FBCFC567";
shapes = (
{
closed = 1;
nodes = (
(143,-180,l),
(167,-30,l),
(185,114,l),
(220,114,l),
(183,190,l),
(164,69,o),
(217,-10,o),
(316,-10,cs),
(429,-10,o),
(506,68,o),
(528,205,cs),
(551,345,ls),
(572,470,o),
(511,560,o),
(407,560,cs),
(301,560,o),
(230,487,o),
(210,360,c),
(271,435,l),
(236,435,l),
(254,550,l),
(109,550,l),
(-7,-180,l)
);
},
{
closed = 1;
nodes = (
(222,120,o),
(196,154,o),
(206,215,cs),
(225,335,ls),
(235,396,o),
(271,430,o),
(328,430,cs),
(383,430,o),
(409,398,o),
(400,340,cs),
(379,210,ls),
(370,152,o),
(334,120,o),
(279,120,cs)
);
}
);
width = 600;
},
{
anchors = (
{
name = bottom;
pos = (256,0);
},
{
name = top;
pos = (343,550);
}
);
layerId = "CCC0BD40-BA8C-414E-B576-CF0B94E6C996";
shapes = (
{
closed = 1;
nodes = (
(109,-180,l),
(135,-20,l),
(153,105,l),
(173,105,l),
(158,126,l),
(145,45,o),
(198,-10,o),
(286,-10,cs),
(401,-10,o),
(480,65,o),
(500,195,cs),
(525,356,ls),
(544,480,o),
(485,560,o),
(377,560,cs),
(281,560,o),
(218,510,o),
(205,424,c),
(226,445,l),
(208,445,l),
(225,550,l),
(135,550,l),
(19,-180,l)
);
},
{
closed = 1;
nodes = (
(195,68,o),
(157,117,o),
(170,200,cs),
(193,350,ls),
(206,433,o),
(260,482,o),
(334,482,cs),
(410,482,o),
(449,445,o),
(435,355,cs),
(410,195,ls),
(396,105,o),
(345,68,o),
(269,68,cs)
);
}
);
width = 600;
}
);
unicode = 112;
},
{
glyphname = thorn;
layers = (
{
layerId = "9ADF6715-3D0F-493D-8567-18A6FBCFC567";
shapes = (
{
closed = 1;
nodes = (
(138,-180,l),
(175,50,l),
(30,50,l),
(-7,-180,l)
);
},
{
alignment = -1;
ref = b;
}
);
width = 600;
},
{
layerId = "CCC0BD40-BA8C-414E-B576-CF0B94E6C996";
shapes = (
{
closed = 1;
nodes = (
(104,-180,l),
(142,59,l),
(52,59,l),
(14,-180,l)
);
},
{
alignment = -1;
pos = (-5,0);
ref = b;
}
);
width = 600;
},
{
layerId = "EDF5EB54-295C-4C90-9A2F-67CD82979CFF";
shapes = (
{
closed = 1;
nodes = (
(88,-180,l),
(126,59,l),
(76,59,l),
(38,-180,l)
);
},
{
alignment = -1;
ref = b;
}
);
width = 600;
}
);
unicode = 254;
},
{
glyphname = q;
layers = (
{
anchors = (
{
name = bottom;
pos = (256,0);
},
{
name = top;
pos = (343,550);
}
);
layerId = "9ADF6715-3D0F-493D-8567-18A6FBCFC567";
shapes = (
{
closed = 1;
nodes = (
(461,-180,l),
(577,550,l),
(432,550,l),
(414,435,l),
(379,435,l),
(416,360,l),
(436,482,o),
(383,560,o),
(283,560,cs),
(169,560,o),
(93,482,o),
(71,345,cs),
(48,205,ls),
(27,76,o),
(88,-10,o),
(192,-10,cs),
(296,-10,o),
(368,63,o),
(389,190,c),
(325,95,l),
(360,95,l),
(335,-30,l),
(311,-180,l)
);
},
{
closed = 1;
nodes = (
(216,120,o),
(190,152,o),
(199,210,cs),
(220,340,ls),
(229,398,o),
(265,430,o),
(320,430,cs),
(377,430,o),
(403,396,o),
(393,335,cs),
(374,215,ls),
(364,154,o),
(328,120,o),
(271,120,cs)
);
}
);
width = 600;
},
{
anchors = (
{
name = bottom;
pos = (256,0);
},
{
name = top;
pos = (344,550);
}
);
layerId = "CCC0BD40-BA8C-414E-B576-CF0B94E6C996";
shapes = (
{
closed = 1;
nodes = (
(435,-180,l),
(551,550,l),
(461,550,l),
(444,445,l),
(426,445,l),
(441,424,l),
(454,506,o),
(402,560,o),
(313,560,cs),
(199,560,o),
(120,486,o),
(100,356,cs),
(75,195,ls),
(56,70,o),
(113,-10,o),
(222,-10,cs),
(320,-10,o),
(383,40,o),
(396,126,c),
(373,105,l),
(393,105,l),
(371,-20,l),
(345,-180,l)
);
},
{
closed = 1;
nodes = (
(189,68,o),
(153,115,o),
(166,200,cs),
(189,350,ls),
(202,435,o),
(254,482,o),
(330,482,cs),
(404,482,o),
(442,433,o),
(429,350,cs),
(406,200,ls),
(393,117,o),
(339,68,o),
(265,68,cs)
);
}
);
width = 600;
},
{
anchors = (
{
name = bottom;
pos = (256,0);
},
{
name = top;
pos = (344,550);
}
);
layerId = "EDF5EB54-295C-4C90-9A2F-67CD82979CFF";
shapes = (
{
closed = 1;
nodes = (
(417,-180,l),
(533,550,l),
(483,550,l),
(468,455,l),
(460,455,l),
(471,410,l),
(485,499,o),
(426,560,o),
(332,560,cs),
(216,560,o),
(138,488,o),
(118,361,cs),
(91,190,ls),
(72,72,o),
(133,-10,o),
(241,-10,cs),
(345,-10,o),
(413,45,o),
(428,140,c),
(398,95,l),
(411,95,l),
(391,-30,l),
(367,-180,l)
);
},
{
closed = 1;
nodes = (
(169,33,o),
(126,92,o),
(141,190,cs),
(168,361,ls),
(183,459,o),
(246,517,o),
(335,517,cs),
(425,517,o),
(468,459,o),
(453,361,cs),
(426,190,ls),
(411,92,o),
(349,33,o),
(258,33,cs)
);
}
);
width = 600;
}
);
unicode = 113;
},
{
glyphname = r;
layers = (
{
anchors = (
{
name = bottom;
pos = (91,0);
},
{
name = top;
pos = (363,550);
}
);
layerId = "EDF5EB54-295C-4C90-9A2F-67CD82979CFF";
shapes = (
{
closed = 1;
nodes = (
(138,0,l),
(195,360,ls),
(211,460,o),
(269,517,o),
(358,517,cs),
(449,517,o),
(487,463,o),
(472,365,cs),
(464,315,l),
(514,315,l),
(522,365,ls),
(541,489,o),
(494,560,o),
(373,560,cs),
(276,560,o),
(207,497,o),
(190,397,c),
(222,455,l),
(210,455,l),
(225,550,l),
(175,550,l),
(88,0,l)
);
}
);
width = 600;
},
{
anchors = (
{
name = bottom;
pos = (101,0);
},
{
name = top;
pos = (363,550);
}
);
layerId = "9ADF6715-3D0F-493D-8567-18A6FBCFC567";
shapes = (
{
closed = 1;
nodes = (
(192,0,l),
(244,328,ls),
(254,393,o),
(292,430,o),
(348,430,cs),
(404,430,o),
(431,397,o),
(422,340,cs),
(415,295,l),
(565,295,l),
(573,350,ls),
(594,481,o),
(541,560,o),
(430,560,cs),
(332,560,o),
(261,498,o),
(245,400,c),
(300,435,l),
(256,435,l),
(274,550,l),
(129,550,l),
(42,0,l)
);
}
);
width = 600;
},
{
anchors = (
{
name = bottom;
pos = (101,0);
},
{
name = top;
pos = (363,550);
}
);
layerId = "CCC0BD40-BA8C-414E-B576-CF0B94E6C996";
shapes = (
{
closed = 1;
nodes = (
(158,0,l),
(213,350,ls),
(227,435,o),
(276,482,o),
(355,482,cs),
(431,482,o),
(466,443,o),
(453,362,cs),
(446,315,l),
(536,315,l),
(543,362,ls),
(563,488,o),
(510,560,o),
(396,560,cs),
(302,560,o),
(238,506,o),
(225,421,c),
(247,445,l),
(228,445,l),
(245,550,l),
(155,550,l),
(68,0,l)
);
}
);
width = 600;
}
);
unicode = 114;
},
{
glyphname = s;
layers = (
{
anchors = (
{
name = bottom;
pos = (256,0);
},
{
name = top;
pos = (343,550);
}
);
layerId = "EDF5EB54-295C-4C90-9A2F-67CD82979CFF";
shapes = (
{
closed = 1;
nodes = (
(296,-10,ls),
(404,-10,o),
(473,46,o),
(489,147,cs),
(502,226,o),
(456,291,o),
(376,301,cs),
(259,316,ls),
(191,325,o),
(160,355,o),
(169,412,cs),
(179,475,o),
(234,515,o),
(309,515,cs),
(363,515,ls),
(433,515,o),
(476,477,o),
(475,425,c),
(525,425,l),
(528,504,o),
(468,560,o),
(370,560,cs),
(316,560,ls),
(208,560,o),
(133,504,o),
(118,411,cs),
(105,334,o),
(158,282,o),
(244,271,cs),
(362,256,ls),
(419,249,o),
(448,197,o),
(439,140,cs),
(429,79,o),
(374,35,o),
(304,35,cs),
(231,35,ls),
(162,35,o),
(118,77,o),
(117,135,c),
(67,135,l),
(63,50,o),
(123,-10,o),
(223,-10,cs)
);
}
);
width = 600;
},
{
anchors = (
{
name = bottom;
pos = (256,0);
},
{
name = top;
pos = (343,550);
}
);
layerId = "9ADF6715-3D0F-493D-8567-18A6FBCFC567";
shapes = (
{
closed = 1;
nodes = (
(275,-10,ls),
(426,-10,o),
(513,48,o),
(531,160,cs),
(548,263,o),
(503,328,o),
(397,341,cs),
(279,356,ls),
(237,361,o),
(214,368,o),
(219,399,cs),
(224,429,o),
(251,448,o),
(298,448,cs),
(345,448,ls),
(392,448,o),
(416,430,o),
(411,398,c),
(558,398,l),
(573,491,o),
(493,560,o),
(363,560,cs),
(316,560,ls),
(175,560,o),
(93,503,o),
(75,393,cs),
(61,302,o),
(105,237,o),
(200,225,cs),
(323,210,ls),
(371,204,o),
(393,191,o),
(388,158,cs),
(383,125,o),
(346,104,o),
(293,104,cs),
(249,104,ls),
(198,104,o),
(172,123,o),
(178,160,c),
(31,160,l),
(15,58,o),
(95,-10,o),
(231,-10,cs)
);
}
);
width = 600;
},
{
anchors = (
{
name = bottom;
pos = (256,0);
},
{
name = top;
pos = (343,550);
}
);
layerId = "CCC0BD40-BA8C-414E-B576-CF0B94E6C996";
shapes = (
{
closed = 1;
nodes = (
(277,-8,ls),
(404,-8,o),
(478,48,o),
(495,154,cs),
(511,250,o),
(472,305,o),
(381,318,cs),
(243,338,ls),
(208,343,o),
(194,366,o),
(200,404,cs),
(208,452,o),
(248,482,o),
(310,482,cs),
(354,482,ls),
(409,482,o),
(441,453,o),
(438,415,c),
(529,415,l),
(537,503,o),
(474,558,o),
(366,558,cs),
(322,558,ls),
(202,558,o),
(127,504,o),
(112,404,cs),
(99,320,o),
(133,267,o),
(207,256,cs),
(355,234,ls),
(398,228,o),
(415,202,o),
(407,154,cs),
(399,101,o),
(356,70,o),
(289,70,cs),
(245,70,ls),
(180,70,o),
(147,100,o),
(155,151,c),
(65,151,l),
(50,50,o),
(111,-8,o),
(233,-8,cs)
);
}
);
width = 600;
}
);
unicode = 115;
},
{
glyphname = scedilla;
layers = (
{
layerId = "EDF5EB54-295C-4C90-9A2F-67CD82979CFF";
shapes = (
{
closed = 1;
nodes = (
(265,-195,ls),
(325,-195,o),
(370,-161,o),
(377,-118,cs),
(386,-61,o),
(327,-37,o),
(280,-34,c),
(313,26,l),
(271,26,l),
(222,-64,l),
(293,-64,o),
(336,-86,o),
(331,-118,cs),
(328,-140,o),
(303,-160,o),
(271,-160,cs),
(191,-160,l),
(185,-195,l)
);
},
{
ref = s;
}
);
width = 600;
},
{
layerId = "CCC0BD40-BA8C-414E-B576-CF0B94E6C996";
shapes = (
{
closed = 1;
nodes = (
(300,-203,ls),
(372,-203,o),
(420,-166,o),
(420,-120,cs),
(420,-68,o),
(352,-41,o),
(300,-35,c),
(321,26,l),
(264,26,l),
(229,-69,l),
(296,-69,o),
(334,-89,o),
(334,-112,cs),
(334,-130,o),
(314,-148,o),
(285,-148,cs),
(215,-148,l),
(215,-203,l)
);
},
{
ref = s;
}
);
width = 600;
},
{
layerId = "9ADF6715-3D0F-493D-8567-18A6FBCFC567";
shapes = (
{
closed = 1;
nodes = (
(310,-225,ls),
(394,-225,o),
(450,-182,o),
(450,-133,cs),
(450,-72,o),
(369,-43,o),
(308,-39,c),
(327,16,l),
(254,16,l),
(219,-69,l),
(292,-69,o),
(335,-88,o),
(335,-119,cs),
(335,-135,o),
(313,-155,o),
(280,-155,cs),
(200,-155,l),
(200,-225,l)
);
},
{
ref = s;
}
);
width = 600;
}
);
unicode = 351;
},
{
glyphname = germandbls;
layers = (
{
layerId = "9ADF6715-3D0F-493D-8567-18A6FBCFC567";
shapes = (
{
closed = 1;
nodes = (
(-83,-180,ls),
(53,-180,o),
(149,-105,o),
(168,15,cs),
(247,512,ls),
(257,573,o),
(300,615,o),
(356,615,cs),
(410,615,o),
(444,578,o),
(435,525,cs),
(427,472,o),
(382,435,o),
(328,435,cs),
(296,435,l),
(278,325,l),
(321,325,ls),
(378,325,o),
(413,286,o),
(404,228,cs),
(395,170,o),
(348,130,o),
(291,130,cs),
(248,130,l),
(227,0,l),
(275,0,ls),
(425,0,o),
(532,80,o),
(553,207,cs),
(567,295,o),
(523,368,o),
(446,386,c),
(446,388,l),
(516,400,o),
(573,462,o),
(586,541,cs),
(604,656,o),
(515,740,o),
(377,740,cs),
(227,740,o),
(119,652,o),
(97,512,cs),
(19,20,ls),
(11,-29,o),
(-24,-60,o),
(-74,-60,cs),
(-99,-60,l),
(-118,-180,l)
);
}
);
width = 600;
},
{
layerId = "CCC0BD40-BA8C-414E-B576-CF0B94E6C996";
shapes = (
{
closed = 1;
nodes = (
(-64,-180,ls),
(44,-180,o),
(119,-119,o),
(135,-20,cs),
(223,534,ls),
(235,609,o),
(292,660,o),
(364,660,cs),
(435,660,o),
(476,612,o),
(465,541,cs),
(453,470,o),
(397,422,o),
(326,422,cs),
(280,422,l),
(267,342,l),
(324,342,ls),
(401,342,o),
(446,289,o),
(434,212,cs),
(421,135,o),
(356,82,o),
(274,82,cs),
(226,82,l),
(213,0,l),
(271,0,ls),
(407,0,o),
(504,79,o),
(524,204,cs),
(540,300,o),
(495,376,o),
(414,391,c),
(414,394,l),
(486,411,o),
(545,477,o),
(557,556,cs),
(574,663,o),
(499,740,o),
(376,740,cs),
(246,740,o),
(153,661,o),
(133,534,cs),
(45,-20,ls),
(37,-73,o),
(6,-98,o),
(-50,-98,cs),
(-120,-98,l),
(-133,-180,l)
);
}
);
width = 600;
},
{
layerId = "EDF5EB54-295C-4C90-9A2F-67CD82979CFF";
shapes = (
{
closed = 1;
nodes = (
(-44,-180,ls),
(37,-180,o),
(95,-133,o),
(107,-55,cs),
(202,543,ls),
(216,633,o),
(286,695,o),
(373,695,cs),
(459,695,o),
(509,636,o),
(495,550,cs),
(481,463,o),
(413,404,o),
(327,404,cs),
(285,404,l),
(278,359,l),
(320,359,ls),
(417,359,o),
(473,295,o),
(458,202,cs),
(443,109,o),
(367,45,o),
(270,45,cs),
(228,45,l),
(221,0,l),
(263,0,ls),
(395,0,o),
(490,76,o),
(509,198,cs),
(524,292,o),
(479,367,o),
(399,383,c),
(399,386,l),
(473,401,o),
(532,468,o),
(545,550,cs),
(563,661,o),
(494,740,o),
(380,740,cs),
(260,740,o),
(171,664,o),
(152,543,cs),
(57,-55,ls),
(49,-106,o),
(16,-135,o),
(-35,-135,cs),
(-124,-135,l),
(-133,-180,l)
);
}
);
width = 600;
}
);
unicode = 223;
},
{
glyphname = longs;
layers = (
{
layerId = "9ADF6715-3D0F-493D-8567-18A6FBCFC567";
shapes = (
{
closed = 1;
nodes = (
(43,-180,ls),
(184,-180,o),
(284,-106,o),
(303,14,c),
(389,555,l),
(393,582,o),
(414,600,o),
(441,600,cs),
(597,600,l),
(618,730,l),
(457,730,ls),
(343,730,o),
(256,662,o),
(240,560,c),
(154,19,l),
(146,-31,o),
(110,-60,o),
(57,-60,cs),
(-41,-60,l),
(-60,-180,l)
);
}
);
width = 600;
},
{
layerId = "CCC0BD40-BA8C-414E-B576-CF0B94E6C996";
shapes = (
{
closed = 1;
nodes = (
(65,-180,ls),
(173,-180,o),
(248,-119,o),
(263,-20,c),
(356,570,l),
(364,623,o),
(394,648,o),
(450,648,cs),
(625,648,l),
(638,730,l),
(464,730,ls),
(356,730,o),
(281,669,o),
(266,570,c),
(173,-20,l),
(165,-73,o),
(135,-98,o),
(79,-98,cs),
(-34,-98,l),
(-47,-180,l)
);
}
);
width = 600;
},
{
layerId = "EDF5EB54-295C-4C90-9A2F-67CD82979CFF";
shapes = (
{
closed = 1;
nodes = (
(87,-180,ls),
(168,-180,o),
(225,-133,o),
(237,-55,c),
(342,605,l),
(350,656,o),
(383,685,o),
(434,685,cs),
(587,685,l),
(595,730,l),
(442,730,ls),
(361,730,o),
(305,683,o),
(292,605,c),
(187,-55,l),
(179,-106,o),
(146,-135,o),
(95,-135,cs),
(-18,-135,l),
(-26,-180,l)
);
}
);
width = 600;
}
);
unicode = 383;
},
{
glyphname = t;
layers = (
{
anchors = (
{
name = bottom;
pos = (316,0);
},
{
name = center;
pos = (300,275);
},
{
name = top;
pos = (318,705);
},
{
name = topright;
pos = (429,621);
}
);
layerId = "9ADF6715-3D0F-493D-8567-18A6FBCFC567";
shapes = (
{
closed = 1;
nodes = (
(491,0,l),
(512,135,l),
(347,135,ls),
(318,135,o),
(306,156,o),
(310,185,cs),
(347,415,l),
(562,415,l),
(583,550,l),
(368,550,l),
(393,705,l),
(243,705,l),
(218,550,l),
(70,550,l),
(49,415,l),
(197,415,l),
(160,180,ls),
(142,68,o),
(199,0,o),
(311,0,cs)
);
}
);
width = 600;
},
{
anchors = (
{
name = bottom;
pos = (316,0);
},
{
name = center;
pos = (300,275);
},
{
name = top;
pos = (318,705);
},
{
name = topright;
pos = (409,621);
}
);
layerId = "EDF5EB54-295C-4C90-9A2F-67CD82979CFF";
shapes = (
{
closed = 1;
nodes = (
(456,0,l),
(463,45,l),
(318,45,ls),
(266,45,o),
(243,73,o),
(251,125,cs),
(311,505,l),
(541,505,l),
(548,550,l),
(318,550,l),
(343,705,l),
(293,705,l),
(268,550,l),
(105,550,l),
(98,505,l),
(261,505,l),
(201,125,ls),
(188,44,o),
(227,0,o),
(311,0,cs)
);
}
);
width = 600;
},
{
anchors = (
{
name = bottom;
pos = (316,0);
},
{
name = center;
pos = (300,275);
},
{
name = top;
pos = (318,705);
},
{
name = topright;
pos = (409,621);
}
);
layerId = "CCC0BD40-BA8C-414E-B576-CF0B94E6C996";
shapes = (
{
closed = 1;
nodes = (
(471,0,l),
(484,82,l),
(324,82,ls),
(288,82,o),
(268,107,o),
(274,145,cs),
(325,468,l),
(550,468,l),
(563,550,l),
(338,550,l),
(363,705,l),
(273,705,l),
(248,550,l),
(90,550,l),
(77,468,l),
(235,468,l),
(184,145,ls),
(170,57,o),
(220,0,o),
(311,0,cs)
);
}
);
width = 600;
}
);
unicode = 116;
},
{
glyphname = tbar;
layers = (
{
layerId = "9ADF6715-3D0F-493D-8567-18A6FBCFC567";
shapes = (
{
closed = 1;
nodes = (
(481,220,l),
(499,335,l),
(79,335,l),
(61,220,l)
);
},
{
alignment = -1;
ref = t;
}
);
width = 600;
},
{
layerId = "CCC0BD40-BA8C-414E-B576-CF0B94E6C996";
shapes = (
{
closed = 1;
nodes = (
(469,239,l),
(481,314,l),
(91,314,l),
(79,239,l)
);
},
{
alignment = -1;
ref = t;
}
);
width = 600;
},
{
layerId = "EDF5EB54-295C-4C90-9A2F-67CD82979CFF";
shapes = (
{
closed = 1;
nodes = (
(462,261,l),
(469,304,l),
(98,304,l),
(91,261,l)
);
},
{
ref = t;
}
);
width = 600;
}
);
unicode = 359;
},
{
glyphname = tcedilla;
layers = (
{
anchors = (
{
name = _bottom;
pos = (360,0);
}
);
layerId = "EDF5EB54-295C-4C90-9A2F-67CD82979CFF";
shapes = (
{
closed = 1;
nodes = (
(350,-195,ls),
(410,-195,o),
(450,-161,o),
(450,-118,cs),
(450,-61,o),
(387,-37,o),
(340,-34,c),
(363,26,l),
(321,26,l),
(286,-64,l),
(357,-64,o),
(404,-86,o),
(404,-118,cs),
(404,-140,o),
(382,-160,o),
(350,-160,cs),
(270,-160,l),
(270,-195,l)
);
},
{
ref = t;
}
);
width = 600;
},
{
anchors = (
{
name = _bottom;
pos = (360,0);
}
);
layerId = "CCC0BD40-BA8C-414E-B576-CF0B94E6C996";
shapes = (
{
closed = 1;
nodes = (
(350,-203,ls),
(422,-203,o),
(470,-166,o),
(470,-120,cs),
(470,-68,o),
(402,-41,o),
(350,-35,c),
(371,26,l),
(314,26,l),
(279,-69,l),
(346,-69,o),
(384,-89,o),
(384,-112,cs),
(384,-130,o),
(364,-148,o),
(335,-148,cs),
(265,-148,l),
(265,-203,l)
);
},
{
ref = t;
}
);
width = 600;
},
{
anchors = (
{
name = _bottom;
pos = (360,0);
}
);
layerId = "9ADF6715-3D0F-493D-8567-18A6FBCFC567";
shapes = (
{
closed = 1;
nodes = (
(360,-225,ls),
(444,-225,o),
(500,-182,o),
(500,-133,cs),
(500,-72,o),
(419,-43,o),
(358,-39,c),
(377,16,l),
(304,16,l),
(269,-69,l),
(342,-69,o),
(385,-88,o),
(385,-119,cs),
(385,-135,o),
(363,-155,o),
(330,-155,cs),
(250,-155,l),
(250,-225,l)
);
},
{
ref = t;
}
);
width = 600;
}
);
unicode = 355;
},
{
glyphname = u;
layers = (
{
anchors = (
{
name = bottom;
pos = (256,0);
},
{
name = horn;
pos = (453,550);
},
{
name = ogonek;
pos = (305,0);
},
{
name = top;
pos = (343,550);
},
{
name = topright;
pos = (624,550);
}
);
layerId = "EDF5EB54-295C-4C90-9A2F-67CD82979CFF";
shapes = (
{
closed = 1;
nodes = (
(376,-10,o),
(458,64,o),
(479,194,cs),
(535,550,l),
(485,550,l),
(429,194,ls),
(413,94,o),
(350,35,o),
(261,35,cs),
(173,35,o),
(129,94,o),
(145,194,cs),
(201,550,l),
(151,550,l),
(95,194,ls),
(75,67,o),
(134,-10,o),
(253,-10,cs)
);
}
);
width = 600;
},
{
anchors = (
{
name = bottom;
pos = (256,0);
},
{
name = horn;
pos = (453,550);
},
{
name = ogonek;
pos = (305,0);
},
{
name = top;
pos = (343,550);
},
{
name = topright;
pos = (624,550);
}
);
layerId = "9ADF6715-3D0F-493D-8567-18A6FBCFC567";
shapes = (
{
closed = 1;
nodes = (
(405,-10,o),
(504,72,o),
(526,214,cs),
(579,550,l),
(429,550,l),
(376,215,ls),
(366,153,o),
(330,120,o),
(275,120,cs),
(219,120,o),
(194,153,o),
(204,215,cs),
(257,550,l),
(107,550,l),
(54,214,ls),
(32,75,o),
(106,-10,o),
(254,-10,cs)
);
}
);
width = 600;
},
{
anchors = (
{
name = bottom;
pos = (256,0);
},
{
name = horn;
pos = (463,550);
},
{
name = ogonek;
pos = (305,0);
},
{
name = top;
pos = (343,550);
},
{
name = topright;
pos = (624,550);
}
);
layerId = "CCC0BD40-BA8C-414E-B576-CF0B94E6C996";
shapes = (
{
closed = 1;
nodes = (
(388,-10,o),
(477,67,o),
(498,200,cs),
(553,550,l),
(463,550,l),
(408,200,ls),
(395,117,o),
(341,69,o),
(266,69,cs),
(192,69,o),
(155,117,o),
(168,200,cs),
(223,550,l),
(133,550,l),
(78,200,ls),
(58,71,o),
(126,-10,o),
(253,-10,cs)
);
}
);
width = 600;
}
);
unicode = 117;
},
{
glyphname = uhorn;
layers = (
{
anchors = (
{
name = bottom;
pos = (236,0);
},
{
name = top;
pos = (323,550);
}
);
layerId = "9ADF6715-3D0F-493D-8567-18A6FBCFC567";
shapes = (
{
closed = 1;
nodes = (
(31,72,o),
(99,-10,o),
(234,-10,cs),
(369,-10,o),
(463,72,o),
(485,209,cs),
(523,450,l),
(610,450,o),
(671,504,o),
(684,585,cs),
(696,660,l),
(576,660,l),
(564,585,ls),
(560,563,o),
(545,550,o),
(523,550,cs),
(389,550,l),
(335,206,ls),
(326,150,o),
(298,120,o),
(255,120,cs),
(212,120,o),
(194,150,o),
(203,206,cs),
(257,550,l),
(107,550,l),
(53,209,ls)
);
}
);
width = 600;
},
{
anchors = (
{
name = bottom;
pos = (255,0);
},
{
name = top;
pos = (343,550);
}
);
layerId = "CCC0BD40-BA8C-414E-B576-CF0B94E6C996";
shapes = (
{
closed = 1;
nodes = (
(57,71,o),
(126,-10,o),
(253,-10,cs),
(380,-10,o),
(477,71,o),
(498,200,cs),
(543,485,l),
(606,485,o),
(639,523,o),
(648,580,cs),
(661,660,l),
(586,660,l),
(574,585,ls),
(570,562,o),
(556,550,o),
(533,550,cs),
(463,550,l),
(408,200,ls),
(395,117,o),
(341,69,o),
(266,69,cs),
(192,69,o),
(155,117,o),
(168,200,cs),
(223,550,l),
(133,550,l),
(78,200,ls)
);
}
);
width = 600;
},
{
anchors = (
{
name = bottom;
pos = (255,0);
},
{
name = top;
pos = (343,550);
}
);
layerId = "EDF5EB54-295C-4C90-9A2F-67CD82979CFF";
shapes = (
{
closed = 1;
nodes = (
(75,67,o),
(134,-10,o),
(253,-10,cs),
(373,-10,o),
(459,68,o),
(479,194,cs),
(530,515,l),
(580,515,o),
(619,549,o),
(627,600,cs),
(637,660,l),
(597,660,l),
(587,600,ls),
(582,570,o),
(561,550,o),
(534,550,cs),
(485,550,l),
(429,194,ls),
(413,94,o),
(350,35,o),
(261,35,cs),
(173,35,o),
(129,94,o),
(145,194,cs),
(201,550,l),
(151,550,l),
(95,194,ls)
);
}
);
width = 600;
}
);
unicode = 432;
},
{
glyphname = uogonek;
layers = (
{
anchors = (
{
name = horn;
pos = (453,550);
},
{
name = top;
pos = (343,550);
}
);
layerId = "EDF5EB54-295C-4C90-9A2F-67CD82979CFF";
shapes = (
{
closed = 1;
nodes = (
(371,-195,l),
(378,-153,l),
(314,-153,ls),
(282,-153,o),
(266,-134,o),
(271,-103,cs),
(275,-75,o),
(304,-36,o),
(348,0,cs),
(379,25,l),
(432,59,o),
(466,116,o),
(478,190,cs),
(535,550,l),
(485,550,l),
(428,190,ls),
(412,91,o),
(353,34,o),
(261,34,cs),
(169,34,o),
(128,91,o),
(144,190,cs),
(201,550,l),
(151,550,l),
(94,190,ls),
(75,68,o),
(136,-10,o),
(254,-10,cs),
(270,-10,o),
(287,-9,o),
(301,-6,c),
(252,-47,o),
(227,-83,o),
(222,-115,cs),
(214,-165,o),
(243,-195,o),
(298,-195,cs)
);
}
);
width = 600;
},
{
anchors = (
{
name = horn;
pos = (463,550);
},
{
name = top;
pos = (343,550);
}
);
layerId = "CCC0BD40-BA8C-414E-B576-CF0B94E6C996";
shapes = (
{
closed = 1;
nodes = (
(374,-203,l),
(383,-143,l),
(323,-143,ls),
(289,-143,o),
(272,-122,o),
(276,-93,cs),
(281,-65,o),
(304,-36,o),
(355,1,cs),
(382,21,l),
(445,55,o),
(485,117,o),
(498,200,cs),
(553,550,l),
(463,550,l),
(408,200,ls),
(394,115,o),
(345,70,o),
(267,70,cs),
(189,70,o),
(154,115,o),
(168,200,cs),
(223,550,l),
(133,550,l),
(78,200,ls),
(57,69,o),
(123,-10,o),
(254,-10,cs),
(257,-10,o),
(260,-10,o),
(263,-10,c),
(211,-51,o),
(193,-81,o),
(189,-110,cs),
(180,-164,o),
(222,-203,o),
(296,-203,cs)
);
}
);
width = 600;
},
{
anchors = (
{
name = horn;
pos = (453,550);
},
{
name = top;
pos = (343,550);
}
);
layerId = "9ADF6715-3D0F-493D-8567-18A6FBCFC567";
shapes = (
{
closed = 1;
nodes = (
(387,-225,l),
(404,-120,l),
(335,-120,ls),
(306,-120,o),
(292,-103,o),
(295,-83,cs),
(298,-66,o),
(316,-41,o),
(346,-18,cs),
(410,31,l),
(470,70,o),
(513,135,o),
(525,210,cs),
(579,550,l),
(429,550,l),
(375,210,ls),
(366,152,o),
(333,120,o),
(275,120,cs),
(217,120,o),
(194,152,o),
(203,210,cs),
(257,550,l),
(107,550,l),
(53,210,ls),
(32,78,o),
(107,-10,o),
(254,-10,cs),
(275,-10,o),
(321,12,o),
(324,31,c),
(224,-19,o),
(173,-68,o),
(166,-115,cs),
(155,-180,o),
(198,-225,o),
(279,-225,cs)
);
}
);
width = 600;
}
);
unicode = 371;
},
{
glyphname = v;
layers = (
{
anchors = (
{
name = bottom;
pos = (256,0);
},
{
name = top;
pos = (343,550);
}
);
layerId = "9ADF6715-3D0F-493D-8567-18A6FBCFC567";
shapes = (
{
closed = 1;
nodes = (
(351,0,l),
(619,550,l),
(458,550,l),
(315,240,ls),
(298,204,o),
(281,161,o),
(273,127,c),
(275,161,o),
(271,204,o),
(265,241,cs),
(218,550,l),
(67,550,l),
(163,0,l)
);
}
);
width = 600;
},
{
anchors = (
{
name = bottom;
pos = (256,0);
},
{
name = top;
pos = (343,550);
}
);
layerId = "CCC0BD40-BA8C-414E-B576-CF0B94E6C996";
shapes = (
{
closed = 1;
nodes = (
(315,0,l),
(589,550,l),
(490,550,l),
(312,180,ls),
(291,136,o),
(271,91,o),
(265,69,c),
(265,92,o),
(259,136,o),
(252,180,cs),
(190,550,l),
(97,550,l),
(197,0,l)
);
}
);
width = 600;
},
{
anchors = (
{
name = bottom;
pos = (256,0);
},
{
name = top;
pos = (343,550);
}
);
layerId = "EDF5EB54-295C-4C90-9A2F-67CD82979CFF";
shapes = (
{
closed = 1;
nodes = (
(287,0,l),
(563,550,l),
(507,550,l),
(305,140,ls),
(287,104,o),
(269,62,o),
(261,39,c),
(260,62,o),
(255,104,o),
(249,140,cs),
(175,550,l),
(123,550,l),
(225,0,l)
);
}
);
width = 600;
}
);
unicode = 118;
},
{
glyphname = w;
layers = (
{
anchors = (
{
name = bottom;
pos = (256,0);
},
{
name = top;
pos = (343,550);
}
);
layerId = "9ADF6715-3D0F-493D-8567-18A6FBCFC567";
shapes = (
{
closed = 1;
nodes = (
(195,0,l),
(290,310,ls),
(301,347,o),
(320,410,o),
(326,445,c),
(323,410,o),
(321,348,o),
(321,310,cs),
(317,0,l),
(467,0,l),
(638,550,l),
(523,550,l),
(431,250,ls),
(415,199,o),
(403,134,o),
(395,96,c),
(398,134,o),
(403,199,o),
(402,250,cs),
(398,550,l),
(284,550,l),
(184,250,ls),
(167,199,o),
(153,136,o),
(144,97,c),
(148,136,o),
(155,199,o),
(156,250,cs),
(160,550,l),
(48,550,l),
(44,0,l)
);
}
);
width = 600;
},
{
anchors = (
{
name = bottom;
pos = (256,0);
},
{
name = top;
pos = (343,550);
}
);
layerId = "CCC0BD40-BA8C-414E-B576-CF0B94E6C996";
shapes = (
{
closed = 1;
nodes = (
(176,0,l),
(302,380,ls),
(314,417,o),
(328,465,o),
(333,488,c),
(332,465,o),
(329,417,o),
(329,380,cs),
(332,0,l),
(431,0,l),
(612,550,l),
(536,550,l),
(417,162,ls),
(408,132,o),
(397,93,o),
(391,70,c),
(393,93,o),
(394,132,o),
(394,162,cs),
(386,550,l),
(296,550,l),
(166,162,ls),
(156,132,o),
(146,92,o),
(140,70,c),
(142,92,o),
(144,132,o),
(145,162,cs),
(150,550,l),
(74,550,l),
(77,0,l)
);
}
);
width = 600;
},
{
anchors = (
{
name = bottom;
pos = (256,0);
},
{
name = top;
pos = (343,550);
}
);
layerId = "EDF5EB54-295C-4C90-9A2F-67CD82979CFF";
shapes = (
{
closed = 1;
nodes = (
(165,0,l),
(299,391,ls),
(312,427,o),
(331,478,o),
(337,507,c),
(335,478,o),
(339,427,o),
(339,391,cs),
(346,0,l),
(412,0,l),
(593,550,l),
(547,550,l),
(414,141,ls),
(399,95,o),
(393,64,o),
(387,35,c),
(389,65,o),
(387,95,o),
(385,140,cs),
(370,550,l),
(318,550,l),
(173,140,ls),
(155,91,o),
(146,63,o),
(139,35,c),
(142,63,o),
(143,91,o),
(143,141,cs),
(140,550,l),
(93,550,l),
(99,0,l)
);
}
);
width = 600;
}
);
unicode = 119;
},
{
glyphname = x;
layers = (
{
anchors = (
{
name = bottom;
pos = (256,0);
},
{
name = top;
pos = (344,550);
}
);
layerId = "9ADF6715-3D0F-493D-8567-18A6FBCFC567";
shapes = (
{
closed = 1;
nodes = (
(153,0,l),
(255,130,ls),
(269,147,o),
(281,172,o),
(288,185,c),
(291,172,o),
(300,148,o),
(308,130,cs),
(367,0,l),
(530,0,l),
(386,282,l),
(604,550,l),
(433,550,l),
(348,440,ls),
(334,422,o),
(321,398,o),
(314,385,c),
(311,398,o),
(304,422,o),
(296,440,cs),
(245,550,l),
(82,550,l),
(217,288,l),
(-18,0,l)
);
}
);
width = 600;
},
{
anchors = (
{
name = bottom;
pos = (256,0);
},
{
name = top;
pos = (344,550);
}
);
layerId = "CCC0BD40-BA8C-414E-B576-CF0B94E6C996";
shapes = (
{
closed = 1;
nodes = (
(118,0,l),
(260,180,ls),
(272,195,o),
(285,217,o),
(293,229,c),
(297,217,o),
(305,195,o),
(312,180,cs),
(397,0,l),
(501,0,l),
(357,279,l),
(577,550,l),
(470,550,l),
(339,380,ls),
(328,365,o),
(316,346,o),
(310,335,c),
(307,346,o),
(299,365,o),
(292,380,cs),
(214,550,l),
(110,550,l),
(246,286,l),
(11,0,l)
);
}
);
width = 600;
},
{
anchors = (
{
name = bottom;
pos = (256,0);
},
{
name = top;
pos = (344,550);
}
);
layerId = "EDF5EB54-295C-4C90-9A2F-67CD82979CFF";
shapes = (
{
closed = 1;
nodes = (
(91,0,l),
(265,210,ls),
(275,222,o),
(289,239,o),
(296,248,c),
(301,239,o),
(311,222,o),
(317,210,cs),
(426,0,l),
(481,0,l),
(330,281,l),
(557,550,l),
(496,550,l),
(333,350,ls),
(325,340,o),
(313,324,o),
(306,315,c),
(301,324,o),
(294,339,o),
(288,350,cs),
(186,550,l),
(130,550,l),
(273,283,l),
(31,0,l)
);
}
);
width = 600;
}
);
unicode = 120;
},
{
glyphname = y;
layers = (
{
anchors = (
{
name = bottom;
pos = (256,0);
},
{
name = top;
pos = (343,550);
}
);
layerId = "9ADF6715-3D0F-493D-8567-18A6FBCFC567";
shapes = (
{
closed = 1;
nodes = (
(227,-180,ls),
(368,-180,o),
(468,-106,o),
(487,14,cs),
(570,550,l),
(420,550,l),
(374,260,ls),
(365,203,o),
(329,170,o),
(276,170,cs),
(222,170,o),
(195,203,o),
(204,260,cs),
(250,550,l),
(100,550,l),
(52,245,ls),
(32,121,o),
(89,40,o),
(196,40,cs),
(287,40,o),
(353,97,o),
(368,190,c),
(319,155,l),
(363,155,l),
(344,40,l),
(341,19,ls),
(334,-31,o),
(297,-60,o),
(241,-60,cs),
(86,-60,l),
(67,-180,l)
);
}
);
width = 600;
},
{
anchors = (
{
name = bottom;
pos = (256,0);
},
{
name = top;
pos = (343,550);
}
);
layerId = "CCC0BD40-BA8C-414E-B576-CF0B94E6C996";
shapes = (
{
closed = 1;
nodes = (
(264,-180,ls),
(372,-180,o),
(446,-119,o),
(462,-20,cs),
(553,550,l),
(463,550,l),
(416,250,ls),
(403,165,o),
(348,116,o),
(273,116,cs),
(201,116,o),
(164,162,o),
(176,240,cs),
(225,550,l),
(135,550,l),
(84,230,ls),
(65,113,o),
(125,40,o),
(235,40,cs),
(327,40,o),
(390,90,o),
(404,176,c),
(382,155,l),
(401,155,l),
(384,55,l),
(372,-20,ls),
(363,-74,o),
(334,-98,o),
(278,-98,cs),
(98,-98,l),
(85,-180,l)
);
}
);
width = 600;
},
{
anchors = (
{
name = bottom;
pos = (256,0);
},
{
name = top;
pos = (343,550);
}
);
layerId = "EDF5EB54-295C-4C90-9A2F-67CD82979CFF";
shapes = (
{
closed = 1;
nodes = (
(239,-180,ls),
(351,-180,o),
(419,-124,o),
(437,-15,cs),
(526,550,l),
(476,550,l),
(427,240,ls),
(412,143,o),
(347,83,o),
(259,83,cs),
(173,83,o),
(129,141,o),
(145,240,cs),
(194,550,l),
(144,550,l),
(94,233,ls),
(75,115,o),
(134,40,o),
(242,40,cs),
(340,40,o),
(412,101,o),
(427,196,c),
(389,145,l),
(412,145,l),
(397,50,l),
(387,-15,ls),
(374,-94,o),
(326,-135,o),
(247,-135,cs),
(102,-135,l),
(94,-180,l)
);
}
);
width = 600;
}
);
unicode = 121;
},
{
glyphname = z;
layers = (
{
anchors = (
{
name = bottom;
pos = (256,0);
},
{
name = center;
pos = (300,275);
},
{
name = top;
pos = (343,550);
}
);
layerId = "9ADF6715-3D0F-493D-8567-18A6FBCFC567";
shapes = (
{
closed = 1;
nodes = (
(486,0,l),
(507,130,l),
(228,130,l),
(542,420,l),
(562,550,l),
(123,550,l),
(103,420,l),
(361,420,l),
(47,130,l),
(26,0,l)
);
}
);
width = 600;
},
{
anchors = (
{
name = bottom;
pos = (256,0);
},
{
name = center;
pos = (300,275);
},
{
name = top;
pos = (343,550);
}
);
layerId = "CCC0BD40-BA8C-414E-B576-CF0B94E6C996";
shapes = (
{
closed = 1;
nodes = (
(466,0,l),
(479,82,l),
(158,82,l),
(528,460,l),
(542,550,l),
(141,550,l),
(128,468,l),
(424,468,l),
(60,90,l),
(46,0,l)
);
}
);
width = 600;
},
{
anchors = (
{
name = bottom;
pos = (256,0);
},
{
name = center;
pos = (300,275);
},
{
name = top;
pos = (343,550);
}
);
layerId = "EDF5EB54-295C-4C90-9A2F-67CD82979CFF";
shapes = (
{
closed = 1;
nodes = (
(453,0,l),
(460,45,l),
(124,45,l),
(520,503,l),
(527,550,l),
(155,550,l),
(148,505,l),
(461,505,l),
(66,46,l),
(59,0,l)
);
}
);
width = 600;
}
);
unicode = 122;
},
{
glyphname = l.cv01;
layers = (
{
anchors = (
{
name = bottom;
pos = (266,0);
},
{
name = top;
pos = (357,730);
}
);
layerId = "CCC0BD40-BA8C-414E-B576-CF0B94E6C996";
shapes = (
{
closed = 1;
nodes = (
(511,0,l),
(524,82,l),
(324,82,l),
(427,730,l),
(157,730,l),
(144,648,l),
(324,648,l),
(234,82,l),
(34,82,l),
(21,0,l)
);
}
);
width = 600;
},
{
anchors = (
{
name = bottom;
pos = (261,0);
},
{
name = top;
pos = (343,730);
}
);
layerId = "EDF5EB54-295C-4C90-9A2F-67CD82979CFF";
shapes = (
{
closed = 1;
nodes = (
(496,0,l),
(503,45,l),
(294,45,l),
(403,730,l),
(177,730,l),
(169,685,l),
(345,685,l),
(244,45,l),
(23,45,l),
(16,0,l)
);
}
);
width = 600;
},
{
anchors = (
{
name = bottom;
pos = (261,0);
},
{
name = top;
pos = (369,730);
}
);
layerId = "9ADF6715-3D0F-493D-8567-18A6FBCFC567";
shapes = (
{
closed = 1;
nodes = (
(516,0,l),
(537,135,l),
(354,135,l),
(449,730,l),
(132,730,l),
(110,595,l),
(277,595,l),
(204,135,l),
(27,135,l),
(6,0,l)
);
}
);
width = 600;
}
);
},
{
glyphname = lslash.cv01;
layers = (
{
layerId = "9ADF6715-3D0F-493D-8567-18A6FBCFC567";
shapes = (
{
closed = 1;
nodes = (
(518,420,l),
(540,560,l),
(130,370,l),
(107,230,l)
);
},
{
ref = l.cv01;
}
);
width = 600;
},
{
layerId = "CCC0BD40-BA8C-414E-B576-CF0B94E6C996";
shapes = (
{
closed = 1;
nodes = (
(526,472,l),
(540,560,l),
(132,318,l),
(117,231,l)
);
},
{
ref = l.cv01;
}
);
width = 600;
},
{
layerId = "EDF5EB54-295C-4C90-9A2F-67CD82979CFF";
shapes = (
{
closed = 1;
nodes = (
(529,495,l),
(538,550,l),
(128,295,l),
(119,240,l)
);
},
{
ref = l.cv01;
}
);
width = 600;
}
);
},
{
glyphname = t.cv02;
layers = (
{
anchors = (
{
name = bottom;
pos = (316,0);
},
{
name = center;
pos = (300,275);
},
{
name = top;
pos = (368,705);
},
{
name = topright;
pos = (623,550);
}
);
layerId = "9ADF6715-3D0F-493D-8567-18A6FBCFC567";
shapes = (
{
closed = 1;
nodes = (
(463,-10,o),
(550,63,o),
(570,190,cs),
(574,212,l),
(430,212,l),
(426,190,ls),
(420,149,o),
(393,125,o),
(352,125,cs),
(310,125,o),
(290,149,o),
(296,190,cs),
(332,415,l),
(547,415,l),
(568,550,l),
(353,550,l),
(378,705,l),
(228,705,l),
(203,550,l),
(58,550,l),
(37,415,l),
(182,415,l),
(146,190,ls),
(126,63,o),
(193,-10,o),
(330,-10,cs)
);
}
);
width = 600;
},
{
anchors = (
{
name = bottom;
pos = (316,0);
},
{
name = center;
pos = (275,275);
},
{
name = top;
pos = (343,705);
},
{
name = topright;
pos = (623,550);
}
);
layerId = "EDF5EB54-295C-4C90-9A2F-67CD82979CFF";
shapes = (
{
closed = 1;
nodes = (
(422,-10,o),
(490,52,o),
(507,160,cs),
(511,185,l),
(463,185,l),
(459,160,ls),
(447,83,o),
(396,35,o),
(327,35,cs),
(256,35,o),
(219,83,o),
(231,160,cs),
(286,505,l),
(516,505,l),
(523,550,l),
(293,550,l),
(318,705,l),
(268,705,l),
(243,550,l),
(83,550,l),
(76,505,l),
(236,505,l),
(181,160,ls),
(165,56,o),
(218,-10,o),
(319,-10,cs)
);
}
);
width = 600;
},
{
anchors = (
{
name = bottom;
pos = (272,0);
},
{
name = center;
pos = (275,275);
},
{
name = top;
pos = (411,705);
},
{
name = topright;
pos = (666,550);
}
);
layerId = "CCC0BD40-BA8C-414E-B576-CF0B94E6C996";
shapes = (
{
closed = 1;
nodes = (
(433,-10,o),
(514,60,o),
(531,172,cs),
(532,175,l),
(444,175,l),
(443,172,ls),
(433,109,o),
(392,70,o),
(335,70,cs),
(278,70,o),
(248,109,o),
(258,172,cs),
(305,468,l),
(530,468,l),
(543,550,l),
(318,550,l),
(343,705,l),
(253,705,l),
(228,550,l),
(78,550,l),
(65,468,l),
(215,468,l),
(168,172,ls),
(151,60,o),
(210,-10,o),
(322,-10,cs)
);
}
);
width = 600;
}
);
},
{
glyphname = tbar.cv02;
layers = (
{
layerId = "9ADF6715-3D0F-493D-8567-18A6FBCFC567";
shapes = (
{
closed = 1;
nodes = (
(481,220,l),
(499,335,l),
(79,335,l),
(61,220,l)
);
},
{
alignment = -1;
ref = t.cv02;
}
);
width = 600;
},
{
layerId = "CCC0BD40-BA8C-414E-B576-CF0B94E6C996";
shapes = (
{
closed = 1;
nodes = (
(469,239,l),
(481,314,l),
(91,314,l),
(79,239,l)
);
},
{
alignment = -1;
ref = t.cv02;
}
);
width = 600;
},
{
layerId = "EDF5EB54-295C-4C90-9A2F-67CD82979CFF";
shapes = (
{
closed = 1;
nodes = (
(462,261,l),
(469,304,l),
(98,304,l),
(91,261,l)
);
},
{
alignment = -1;
ref = t.cv02;
}
);
width = 600;
}
);
},
{
glyphname = tcaron.cv02;
layers = (
{
layerId = "9ADF6715-3D0F-493D-8567-18A6FBCFC567";
shapes = (
{
closed = 1;
nodes = (
(490,620,l),
(580,775,l),
(460,775,l),
(380,620,l)
);
},
{
alignment = -1;
ref = t.cv02;
}
);
width = 600;
},
{
layerId = "CCC0BD40-BA8C-414E-B576-CF0B94E6C996";
shapes = (
{
closed = 1;
nodes = (
(452,620,l),
(552,776,l),
(462,776,l),
(372,620,l)
);
},
{
alignment = -1;
ref = t.cv02;
}
);
width = 600;
},
{
layerId = "EDF5EB54-295C-4C90-9A2F-67CD82979CFF";
shapes = (
{
closed = 1;
nodes = (
(435,620,l),
(535,776,l),
(470,776,l),
(390,620,l)
);
},
{
alignment = -1;
ref = t.cv02;
}
);
width = 600;
}
);
},
{
glyphname = tcedilla.cv02;
layers = (
{
anchors = (
{
name = _bottom;
pos = (316,0);
}
);
layerId = "EDF5EB54-295C-4C90-9A2F-67CD82979CFF";
shapes = (
{
closed = 1;
nodes = (
(275,-195,ls),
(335,-195,o),
(381,-161,o),
(387,-118,cs),
(396,-61,o),
(337,-37,o),
(291,-34,c),
(323,26,l),
(281,26,l),
(232,-64,l),
(303,-64,o),
(346,-86,o),
(341,-118,cs),
(338,-140,o),
(313,-160,o),
(281,-160,cs),
(201,-160,l),
(195,-195,l)
);
},
{
ref = t.cv02;
}
);
width = 600;
},
{
anchors = (
{
name = _bottom;
pos = (316,0);
}
);
layerId = "CCC0BD40-BA8C-414E-B576-CF0B94E6C996";
shapes = (
{
closed = 1;
nodes = (
(274,-203,ls),
(346,-203,o),
(400,-166,o),
(407,-120,cs),
(415,-68,o),
(352,-41,o),
(300,-35,c),
(331,26,l),
(274,26,l),
(224,-69,l),
(291,-69,o),
(326,-89,o),
(322,-112,cs),
(319,-130,o),
(297,-148,o),
(268,-148,cs),
(198,-148,l),
(189,-203,l)
);
},
{
ref = t.cv02;
}
);
width = 600;
},
{
anchors = (
{
name = _bottom;
pos = (316,0);
}
);
layerId = "9ADF6715-3D0F-493D-8567-18A6FBCFC567";
shapes = (
{
closed = 1;
nodes = (
(280,-225,ls),
(364,-225,o),
(427,-182,o),
(435,-133,cs),
(445,-72,o),
(368,-43,o),
(308,-39,c),
(336,16,l),
(263,16,l),
(214,-69,l),
(287,-69,o),
(327,-88,o),
(322,-119,cs),
(320,-135,o),
(294,-155,o),
(261,-155,cs),
(181,-155,l),
(170,-225,l)
);
},
{
ref = t.cv02;
}
);
width = 600;
}
);
},
{
glyphname = g.cv03;
layers = (
{
anchors = (
{
name = bottom;
pos = (213,-270);
},
{
name = top;
pos = (343,550);
}
);
layerId = "CCC0BD40-BA8C-414E-B576-CF0B94E6C996";
shapes = (
{
closed = 1;
nodes = (
(317,-190,ls),
(420,-190,o),
(504,-124,o),
(520,-28,cs),
(535,70,o),
(472,137,o),
(369,137,cs),
(205,137,ls),
(102,137,o),
(17,70,o),
(2,-28,cs),
(-14,-124,o),
(49,-190,o),
(152,-190,cs)
);
},
{
closed = 1;
nodes = (
(114,-112,o),
(83,-77,o),
(91,-25,cs),
(99,27,o),
(142,62,o),
(192,62,cs),
(358,62,ls),
(408,62,o),
(439,27,o),
(431,-25,cs),
(423,-77,o),
(380,-112,o),
(330,-112,cs),
(164,-112,ls)
);
},
{
closed = 1;
nodes = (
(246,116,l),
(266,238,l),
(189,238,l),
(169,116,l)
);
},
{
closed = 1;
nodes = (
(402,215,o),
(489,277,o),
(505,377,cs),
(515,441,o),
(482,468,o),
(428,475,c),
(430,487,l),
(438,536,o),
(419,560,o),
(334,560,cs),
(209,560,o),
(119,493,o),
(102,386,cs),
(86,281,o),
(154,215,o),
(279,215,cs)
);
},
{
closed = 1;
nodes = (
(215,286,o),
(174,325,o),
(184,386,cs),
(194,447,o),
(247,486,o),
(322,486,cs),
(396,486,o),
(436,447,o),
(426,386,cs),
(416,325,o),
(364,286,o),
(290,286,cs)
);
},
{
closed = 1;
nodes = (
(613,476,l),
(625,550,l),
(383,550,l),
(408,476,l)
);
}
);
width = 600;
},
{
anchors = (
{
name = bottom;
pos = (213,-270);
},
{
name = top;
pos = (343,550);
}
);
layerId = "EDF5EB54-295C-4C90-9A2F-67CD82979CFF";
shapes = (
{
closed = 1;
nodes = (
(318,-190,ls),
(409,-190,o),
(486,-123,o),
(500,-31,cs),
(515,60,o),
(459,126,o),
(368,126,cs),
(207,126,ls),
(115,126,o),
(38,60,o),
(23,-31,cs),
(9,-123,o),
(65,-190,o),
(157,-190,cs)
);
},
{
closed = 1;
nodes = (
(101,-145,o),
(62,-97,o),
(72,-31,cs),
(83,35,o),
(137,83,o),
(200,83,cs),
(361,83,ls),
(423,83,o),
(462,35,o),
(451,-31,cs),
(441,-97,o),
(387,-145,o),
(325,-145,cs),
(164,-145,ls)
);
},
{
closed = 1;
nodes = (
(228,106,l),
(251,250,l),
(211,250,l),
(188,106,l)
);
},
{
closed = 1;
nodes = (
(390,225,o),
(470,289,o),
(486,391,cs),
(497,458,o),
(475,495,o),
(421,505,c),
(422,511,l),
(427,540,o),
(392,560,o),
(332,560,cs),
(220,560,o),
(138,495,o),
(122,391,cs),
(106,289,o),
(167,225,o),
(279,225,cs)
);
},
{
closed = 1;
nodes = (
(203,268,o),
(159,315,o),
(171,391,cs),
(183,467,o),
(243,515,o),
(325,515,cs),
(407,515,o),
(451,467,o),
(439,391,cs),
(427,315,o),
(367,268,o),
(285,268,cs)
);
},
{
closed = 1;
nodes = (
(591,505,l),
(598,550,l),
(375,550,l),
(388,505,l)
);
}
);
width = 600;
},
{
anchors = (
{
name = bottom;
pos = (213,-270);
},
{
name = top;
pos = (343,550);
}
);
layerId = "9ADF6715-3D0F-493D-8567-18A6FBCFC567";
shapes = (
{
closed = 1;
nodes = (
(315,-190,ls),
(428,-190,o),
(516,-121,o),
(532,-22,cs),
(547,77,o),
(482,149,o),
(369,149,cs),
(209,149,ls),
(96,149,o),
(7,77,o),
(-8,-22,cs),
(-24,-121,o),
(42,-190,o),
(155,-190,cs)
);
},
{
closed = 1;
nodes = (
(148,-68,o),
(127,-46,o),
(132,-12,cs),
(137,22,o),
(166,43,o),
(205,43,cs),
(339,43,ls),
(378,43,o),
(399,22,o),
(394,-12,cs),
(389,-46,o),
(360,-68,o),
(321,-68,cs),
(187,-68,ls)
);
},
{
closed = 1;
nodes = (
(273,100,l),
(292,220,l),
(182,220,l),
(163,100,l)
);
},
{
closed = 1;
nodes = (
(399,202,o),
(490,257,o),
(505,352,cs),
(513,405,o),
(486,429,o),
(424,435,c),
(476,467,l),
(460,522,o),
(400,560,o),
(332,560,cs),
(199,560,o),
(105,491,o),
(86,373,cs),
(69,265,o),
(140,202,o),
(268,202,cs)
);
},
{
closed = 1;
nodes = (
(235,298,o),
(208,322,o),
(216,373,cs),
(224,420,o),
(258,442,o),
(313,442,cs),
(368,442,o),
(396,420,o),
(388,373,cs),
(380,322,o),
(345,298,o),
(290,298,cs)
);
},
{
closed = 1;
nodes = (
(610,435,l),
(628,550,l),
(361,550,l),
(391,435,l)
);
}
);
width = 600;
}
);
},
